%TF.GenerationSoftware,KiCad,Pcbnew,(6.0.2)*%
%TF.CreationDate,2022-03-19T12:25:46-03:00*%
%TF.ProjectId,ThermalControl,54686572-6d61-46c4-936f-6e74726f6c2e,rev?*%
%TF.SameCoordinates,Original*%
%TF.FileFunction,Legend,Top*%
%TF.FilePolarity,Positive*%
%FSLAX46Y46*%
G04 Gerber Fmt 4.6, Leading zero omitted, Abs format (unit mm)*
G04 Created by KiCad (PCBNEW (6.0.2)) date 2022-03-19 12:25:46*
%MOMM*%
%LPD*%
G01*
G04 APERTURE LIST*
%ADD10C,0.150000*%
%ADD11C,0.120000*%
%ADD12C,0.127000*%
G04 APERTURE END LIST*
D10*
X77041952Y-56602380D02*
X77041952Y-57316666D01*
X76994333Y-57459523D01*
X76899095Y-57554761D01*
X76756238Y-57602380D01*
X76661000Y-57602380D01*
X77994333Y-57602380D02*
X77518142Y-57602380D01*
X77518142Y-56602380D01*
X78899095Y-57507142D02*
X78851476Y-57554761D01*
X78708619Y-57602380D01*
X78613380Y-57602380D01*
X78470523Y-57554761D01*
X78375285Y-57459523D01*
X78327666Y-57364285D01*
X78280047Y-57173809D01*
X78280047Y-57030952D01*
X78327666Y-56840476D01*
X78375285Y-56745238D01*
X78470523Y-56650000D01*
X78613380Y-56602380D01*
X78708619Y-56602380D01*
X78851476Y-56650000D01*
X78899095Y-56697619D01*
X79613380Y-56602380D02*
X79613380Y-57316666D01*
X79565761Y-57459523D01*
X79470523Y-57554761D01*
X79327666Y-57602380D01*
X79232428Y-57602380D01*
X80565761Y-57602380D02*
X80089571Y-57602380D01*
X80089571Y-56602380D01*
X81470523Y-57507142D02*
X81422904Y-57554761D01*
X81280047Y-57602380D01*
X81184809Y-57602380D01*
X81041952Y-57554761D01*
X80946714Y-57459523D01*
X80899095Y-57364285D01*
X80851476Y-57173809D01*
X80851476Y-57030952D01*
X80899095Y-56840476D01*
X80946714Y-56745238D01*
X81041952Y-56650000D01*
X81184809Y-56602380D01*
X81280047Y-56602380D01*
X81422904Y-56650000D01*
X81470523Y-56697619D01*
X82184809Y-56602380D02*
X82184809Y-57316666D01*
X82137190Y-57459523D01*
X82041952Y-57554761D01*
X81899095Y-57602380D01*
X81803857Y-57602380D01*
X83137190Y-57602380D02*
X82661000Y-57602380D01*
X82661000Y-56602380D01*
X84041952Y-57507142D02*
X83994333Y-57554761D01*
X83851476Y-57602380D01*
X83756238Y-57602380D01*
X83613380Y-57554761D01*
X83518142Y-57459523D01*
X83470523Y-57364285D01*
X83422904Y-57173809D01*
X83422904Y-57030952D01*
X83470523Y-56840476D01*
X83518142Y-56745238D01*
X83613380Y-56650000D01*
X83756238Y-56602380D01*
X83851476Y-56602380D01*
X83994333Y-56650000D01*
X84041952Y-56697619D01*
X84756238Y-56602380D02*
X84756238Y-57316666D01*
X84708619Y-57459523D01*
X84613380Y-57554761D01*
X84470523Y-57602380D01*
X84375285Y-57602380D01*
X85708619Y-57602380D02*
X85232428Y-57602380D01*
X85232428Y-56602380D01*
X86613380Y-57507142D02*
X86565761Y-57554761D01*
X86422904Y-57602380D01*
X86327666Y-57602380D01*
X86184809Y-57554761D01*
X86089571Y-57459523D01*
X86041952Y-57364285D01*
X85994333Y-57173809D01*
X85994333Y-57030952D01*
X86041952Y-56840476D01*
X86089571Y-56745238D01*
X86184809Y-56650000D01*
X86327666Y-56602380D01*
X86422904Y-56602380D01*
X86565761Y-56650000D01*
X86613380Y-56697619D01*
X84074380Y-91336761D02*
X84217238Y-91384380D01*
X84455333Y-91384380D01*
X84550571Y-91336761D01*
X84598190Y-91289142D01*
X84645809Y-91193904D01*
X84645809Y-91098666D01*
X84598190Y-91003428D01*
X84550571Y-90955809D01*
X84455333Y-90908190D01*
X84264857Y-90860571D01*
X84169619Y-90812952D01*
X84122000Y-90765333D01*
X84074380Y-90670095D01*
X84074380Y-90574857D01*
X84122000Y-90479619D01*
X84169619Y-90432000D01*
X84264857Y-90384380D01*
X84502952Y-90384380D01*
X84645809Y-90432000D01*
X86598190Y-91003428D02*
X87360095Y-91003428D01*
X86979142Y-91384380D02*
X86979142Y-90622476D01*
X89360095Y-91003428D02*
X90122000Y-91003428D01*
X108021380Y-76041000D02*
X107021380Y-76041000D01*
X107021380Y-75660047D01*
X107069000Y-75564809D01*
X107116619Y-75517190D01*
X107211857Y-75469571D01*
X107354714Y-75469571D01*
X107449952Y-75517190D01*
X107497571Y-75564809D01*
X107545190Y-75660047D01*
X107545190Y-76041000D01*
X108116619Y-75279095D02*
X108116619Y-74517190D01*
X108021380Y-73802904D02*
X108021380Y-74279095D01*
X107021380Y-74279095D01*
X107497571Y-73469571D02*
X107497571Y-73136238D01*
X108021380Y-72993380D02*
X108021380Y-73469571D01*
X107021380Y-73469571D01*
X107021380Y-72993380D01*
X108021380Y-72564809D02*
X107021380Y-72564809D01*
X107021380Y-72326714D01*
X107069000Y-72183857D01*
X107164238Y-72088619D01*
X107259476Y-72041000D01*
X107449952Y-71993380D01*
X107592809Y-71993380D01*
X107783285Y-72041000D01*
X107878523Y-72088619D01*
X107973761Y-72183857D01*
X108021380Y-72326714D01*
X108021380Y-72564809D01*
X108259571Y-49870952D02*
X108259571Y-50204285D01*
X108783380Y-50204285D02*
X107783380Y-50204285D01*
X107783380Y-49728095D01*
X108735761Y-48966190D02*
X108783380Y-49061428D01*
X108783380Y-49251904D01*
X108735761Y-49347142D01*
X108640523Y-49394761D01*
X108259571Y-49394761D01*
X108164333Y-49347142D01*
X108116714Y-49251904D01*
X108116714Y-49061428D01*
X108164333Y-48966190D01*
X108259571Y-48918571D01*
X108354809Y-48918571D01*
X108450047Y-49394761D01*
X108783380Y-48061428D02*
X108259571Y-48061428D01*
X108164333Y-48109047D01*
X108116714Y-48204285D01*
X108116714Y-48394761D01*
X108164333Y-48490000D01*
X108735761Y-48061428D02*
X108783380Y-48156666D01*
X108783380Y-48394761D01*
X108735761Y-48490000D01*
X108640523Y-48537619D01*
X108545285Y-48537619D01*
X108450047Y-48490000D01*
X108402428Y-48394761D01*
X108402428Y-48156666D01*
X108354809Y-48061428D01*
X108116714Y-47585238D02*
X109116714Y-47585238D01*
X108164333Y-47585238D02*
X108116714Y-47490000D01*
X108116714Y-47299523D01*
X108164333Y-47204285D01*
X108211952Y-47156666D01*
X108307190Y-47109047D01*
X108592904Y-47109047D01*
X108688142Y-47156666D01*
X108735761Y-47204285D01*
X108783380Y-47299523D01*
X108783380Y-47490000D01*
X108735761Y-47585238D01*
X107783380Y-46823333D02*
X107783380Y-46251904D01*
X108783380Y-46537619D02*
X107783380Y-46537619D01*
X108735761Y-45537619D02*
X108783380Y-45632857D01*
X108783380Y-45823333D01*
X108735761Y-45918571D01*
X108640523Y-45966190D01*
X108259571Y-45966190D01*
X108164333Y-45918571D01*
X108116714Y-45823333D01*
X108116714Y-45632857D01*
X108164333Y-45537619D01*
X108259571Y-45490000D01*
X108354809Y-45490000D01*
X108450047Y-45966190D01*
X108735761Y-44632857D02*
X108783380Y-44728095D01*
X108783380Y-44918571D01*
X108735761Y-45013809D01*
X108688142Y-45061428D01*
X108592904Y-45109047D01*
X108307190Y-45109047D01*
X108211952Y-45061428D01*
X108164333Y-45013809D01*
X108116714Y-44918571D01*
X108116714Y-44728095D01*
X108164333Y-44632857D01*
X108783380Y-44204285D02*
X107783380Y-44204285D01*
X108783380Y-43775714D02*
X108259571Y-43775714D01*
X108164333Y-43823333D01*
X108116714Y-43918571D01*
X108116714Y-44061428D01*
X108164333Y-44156666D01*
X108211952Y-44204285D01*
X107910380Y-69753761D02*
X107910380Y-69182333D01*
X108910380Y-69468047D02*
X107910380Y-69468047D01*
X108910380Y-68849000D02*
X107910380Y-68849000D01*
X108910380Y-68420428D02*
X108386571Y-68420428D01*
X108291333Y-68468047D01*
X108243714Y-68563285D01*
X108243714Y-68706142D01*
X108291333Y-68801380D01*
X108338952Y-68849000D01*
X108862761Y-67563285D02*
X108910380Y-67658523D01*
X108910380Y-67849000D01*
X108862761Y-67944238D01*
X108767523Y-67991857D01*
X108386571Y-67991857D01*
X108291333Y-67944238D01*
X108243714Y-67849000D01*
X108243714Y-67658523D01*
X108291333Y-67563285D01*
X108386571Y-67515666D01*
X108481809Y-67515666D01*
X108577047Y-67991857D01*
X108910380Y-67087095D02*
X108243714Y-67087095D01*
X108434190Y-67087095D02*
X108338952Y-67039476D01*
X108291333Y-66991857D01*
X108243714Y-66896619D01*
X108243714Y-66801380D01*
X108910380Y-66468047D02*
X108243714Y-66468047D01*
X108338952Y-66468047D02*
X108291333Y-66420428D01*
X108243714Y-66325190D01*
X108243714Y-66182333D01*
X108291333Y-66087095D01*
X108386571Y-66039476D01*
X108910380Y-66039476D01*
X108386571Y-66039476D02*
X108291333Y-65991857D01*
X108243714Y-65896619D01*
X108243714Y-65753761D01*
X108291333Y-65658523D01*
X108386571Y-65610904D01*
X108910380Y-65610904D01*
X108910380Y-64706142D02*
X108386571Y-64706142D01*
X108291333Y-64753761D01*
X108243714Y-64849000D01*
X108243714Y-65039476D01*
X108291333Y-65134714D01*
X108862761Y-64706142D02*
X108910380Y-64801380D01*
X108910380Y-65039476D01*
X108862761Y-65134714D01*
X108767523Y-65182333D01*
X108672285Y-65182333D01*
X108577047Y-65134714D01*
X108529428Y-65039476D01*
X108529428Y-64801380D01*
X108481809Y-64706142D01*
X108910380Y-64087095D02*
X108862761Y-64182333D01*
X108767523Y-64229952D01*
X107910380Y-64229952D01*
X108815142Y-62372809D02*
X108862761Y-62420428D01*
X108910380Y-62563285D01*
X108910380Y-62658523D01*
X108862761Y-62801380D01*
X108767523Y-62896619D01*
X108672285Y-62944238D01*
X108481809Y-62991857D01*
X108338952Y-62991857D01*
X108148476Y-62944238D01*
X108053238Y-62896619D01*
X107958000Y-62801380D01*
X107910380Y-62658523D01*
X107910380Y-62563285D01*
X107958000Y-62420428D01*
X108005619Y-62372809D01*
X108910380Y-61801380D02*
X108862761Y-61896619D01*
X108815142Y-61944238D01*
X108719904Y-61991857D01*
X108434190Y-61991857D01*
X108338952Y-61944238D01*
X108291333Y-61896619D01*
X108243714Y-61801380D01*
X108243714Y-61658523D01*
X108291333Y-61563285D01*
X108338952Y-61515666D01*
X108434190Y-61468047D01*
X108719904Y-61468047D01*
X108815142Y-61515666D01*
X108862761Y-61563285D01*
X108910380Y-61658523D01*
X108910380Y-61801380D01*
X108243714Y-61039476D02*
X108910380Y-61039476D01*
X108338952Y-61039476D02*
X108291333Y-60991857D01*
X108243714Y-60896619D01*
X108243714Y-60753761D01*
X108291333Y-60658523D01*
X108386571Y-60610904D01*
X108910380Y-60610904D01*
X108243714Y-60277571D02*
X108243714Y-59896619D01*
X107910380Y-60134714D02*
X108767523Y-60134714D01*
X108862761Y-60087095D01*
X108910380Y-59991857D01*
X108910380Y-59896619D01*
X108910380Y-59563285D02*
X108243714Y-59563285D01*
X108434190Y-59563285D02*
X108338952Y-59515666D01*
X108291333Y-59468047D01*
X108243714Y-59372809D01*
X108243714Y-59277571D01*
X108910380Y-58801380D02*
X108862761Y-58896619D01*
X108815142Y-58944238D01*
X108719904Y-58991857D01*
X108434190Y-58991857D01*
X108338952Y-58944238D01*
X108291333Y-58896619D01*
X108243714Y-58801380D01*
X108243714Y-58658523D01*
X108291333Y-58563285D01*
X108338952Y-58515666D01*
X108434190Y-58468047D01*
X108719904Y-58468047D01*
X108815142Y-58515666D01*
X108862761Y-58563285D01*
X108910380Y-58658523D01*
X108910380Y-58801380D01*
X108910380Y-57896619D02*
X108862761Y-57991857D01*
X108767523Y-58039476D01*
X107910380Y-58039476D01*
X108243714Y-56849000D02*
X108910380Y-56610904D01*
X108243714Y-56372809D01*
X108910380Y-55468047D02*
X108910380Y-56039476D01*
X108910380Y-55753761D02*
X107910380Y-55753761D01*
X108053238Y-55849000D01*
X108148476Y-55944238D01*
X108196095Y-56039476D01*
X108815142Y-55039476D02*
X108862761Y-54991857D01*
X108910380Y-55039476D01*
X108862761Y-55087095D01*
X108815142Y-55039476D01*
X108910380Y-55039476D01*
X107910380Y-54372809D02*
X107910380Y-54277571D01*
X107958000Y-54182333D01*
X108005619Y-54134714D01*
X108100857Y-54087095D01*
X108291333Y-54039476D01*
X108529428Y-54039476D01*
X108719904Y-54087095D01*
X108815142Y-54134714D01*
X108862761Y-54182333D01*
X108910380Y-54277571D01*
X108910380Y-54372809D01*
X108862761Y-54468047D01*
X108815142Y-54515666D01*
X108719904Y-54563285D01*
X108529428Y-54610904D01*
X108291333Y-54610904D01*
X108100857Y-54563285D01*
X108005619Y-54515666D01*
X107958000Y-54468047D01*
X107910380Y-54372809D01*
%TO.C,U1*%
X58872380Y-60888095D02*
X57872380Y-60888095D01*
X58872380Y-60316666D01*
X57872380Y-60316666D01*
X57872380Y-59650000D02*
X57872380Y-59459523D01*
X57920000Y-59364285D01*
X58015238Y-59269047D01*
X58205714Y-59221428D01*
X58539047Y-59221428D01*
X58729523Y-59269047D01*
X58824761Y-59364285D01*
X58872380Y-59459523D01*
X58872380Y-59650000D01*
X58824761Y-59745238D01*
X58729523Y-59840476D01*
X58539047Y-59888095D01*
X58205714Y-59888095D01*
X58015238Y-59840476D01*
X57920000Y-59745238D01*
X57872380Y-59650000D01*
X58872380Y-58792857D02*
X57872380Y-58792857D01*
X57872380Y-58554761D01*
X57920000Y-58411904D01*
X58015238Y-58316666D01*
X58110476Y-58269047D01*
X58300952Y-58221428D01*
X58443809Y-58221428D01*
X58634285Y-58269047D01*
X58729523Y-58316666D01*
X58824761Y-58411904D01*
X58872380Y-58554761D01*
X58872380Y-58792857D01*
X58348571Y-57792857D02*
X58348571Y-57459523D01*
X58872380Y-57316666D02*
X58872380Y-57792857D01*
X57872380Y-57792857D01*
X57872380Y-57316666D01*
X58967619Y-57126190D02*
X58967619Y-56364285D01*
X58872380Y-56126190D02*
X57872380Y-56126190D01*
X58586666Y-55792857D01*
X57872380Y-55459523D01*
X58872380Y-55459523D01*
X58777142Y-54411904D02*
X58824761Y-54459523D01*
X58872380Y-54602380D01*
X58872380Y-54697619D01*
X58824761Y-54840476D01*
X58729523Y-54935714D01*
X58634285Y-54983333D01*
X58443809Y-55030952D01*
X58300952Y-55030952D01*
X58110476Y-54983333D01*
X58015238Y-54935714D01*
X57920000Y-54840476D01*
X57872380Y-54697619D01*
X57872380Y-54602380D01*
X57920000Y-54459523D01*
X57967619Y-54411904D01*
X57872380Y-53983333D02*
X58681904Y-53983333D01*
X58777142Y-53935714D01*
X58824761Y-53888095D01*
X58872380Y-53792857D01*
X58872380Y-53602380D01*
X58824761Y-53507142D01*
X58777142Y-53459523D01*
X58681904Y-53411904D01*
X57872380Y-53411904D01*
%TO.C,Vreg1*%
X81438380Y-86304238D02*
X81438380Y-86780428D01*
X80438380Y-86780428D01*
X80438380Y-86066142D02*
X80438380Y-85399476D01*
X81438380Y-85828047D01*
X80866952Y-84875666D02*
X80819333Y-84970904D01*
X80771714Y-85018523D01*
X80676476Y-85066142D01*
X80628857Y-85066142D01*
X80533619Y-85018523D01*
X80486000Y-84970904D01*
X80438380Y-84875666D01*
X80438380Y-84685190D01*
X80486000Y-84589952D01*
X80533619Y-84542333D01*
X80628857Y-84494714D01*
X80676476Y-84494714D01*
X80771714Y-84542333D01*
X80819333Y-84589952D01*
X80866952Y-84685190D01*
X80866952Y-84875666D01*
X80914571Y-84970904D01*
X80962190Y-85018523D01*
X81057428Y-85066142D01*
X81247904Y-85066142D01*
X81343142Y-85018523D01*
X81390761Y-84970904D01*
X81438380Y-84875666D01*
X81438380Y-84685190D01*
X81390761Y-84589952D01*
X81343142Y-84542333D01*
X81247904Y-84494714D01*
X81057428Y-84494714D01*
X80962190Y-84542333D01*
X80914571Y-84589952D01*
X80866952Y-84685190D01*
X80438380Y-83875666D02*
X80438380Y-83780428D01*
X80486000Y-83685190D01*
X80533619Y-83637571D01*
X80628857Y-83589952D01*
X80819333Y-83542333D01*
X81057428Y-83542333D01*
X81247904Y-83589952D01*
X81343142Y-83637571D01*
X81390761Y-83685190D01*
X81438380Y-83780428D01*
X81438380Y-83875666D01*
X81390761Y-83970904D01*
X81343142Y-84018523D01*
X81247904Y-84066142D01*
X81057428Y-84113761D01*
X80819333Y-84113761D01*
X80628857Y-84066142D01*
X80533619Y-84018523D01*
X80486000Y-83970904D01*
X80438380Y-83875666D01*
X80438380Y-82637571D02*
X80438380Y-83113761D01*
X80914571Y-83161380D01*
X80866952Y-83113761D01*
X80819333Y-83018523D01*
X80819333Y-82780428D01*
X80866952Y-82685190D01*
X80914571Y-82637571D01*
X81009809Y-82589952D01*
X81247904Y-82589952D01*
X81343142Y-82637571D01*
X81390761Y-82685190D01*
X81438380Y-82780428D01*
X81438380Y-83018523D01*
X81390761Y-83113761D01*
X81343142Y-83161380D01*
%TO.C,U2*%
X83995047Y-87320380D02*
X83661714Y-86844190D01*
X83423619Y-87320380D02*
X83423619Y-86320380D01*
X83804571Y-86320380D01*
X83899809Y-86368000D01*
X83947428Y-86415619D01*
X83995047Y-86510857D01*
X83995047Y-86653714D01*
X83947428Y-86748952D01*
X83899809Y-86796571D01*
X83804571Y-86844190D01*
X83423619Y-86844190D01*
X84423619Y-86796571D02*
X84756952Y-86796571D01*
X84899809Y-87320380D02*
X84423619Y-87320380D01*
X84423619Y-86320380D01*
X84899809Y-86320380D01*
X85804571Y-87320380D02*
X85328380Y-87320380D01*
X85328380Y-86320380D01*
X86090285Y-87034666D02*
X86566476Y-87034666D01*
X85995047Y-87320380D02*
X86328380Y-86320380D01*
X86661714Y-87320380D01*
X87185523Y-86844190D02*
X87185523Y-87320380D01*
X86852190Y-86320380D02*
X87185523Y-86844190D01*
X87518857Y-86320380D01*
X88614095Y-87320380D02*
X88614095Y-86320380D01*
X88947428Y-87034666D01*
X89280761Y-86320380D01*
X89280761Y-87320380D01*
X89947428Y-86320380D02*
X90137904Y-86320380D01*
X90233142Y-86368000D01*
X90328380Y-86463238D01*
X90376000Y-86653714D01*
X90376000Y-86987047D01*
X90328380Y-87177523D01*
X90233142Y-87272761D01*
X90137904Y-87320380D01*
X89947428Y-87320380D01*
X89852190Y-87272761D01*
X89756952Y-87177523D01*
X89709333Y-86987047D01*
X89709333Y-86653714D01*
X89756952Y-86463238D01*
X89852190Y-86368000D01*
X89947428Y-86320380D01*
X90804571Y-87320380D02*
X90804571Y-86320380D01*
X91042666Y-86320380D01*
X91185523Y-86368000D01*
X91280761Y-86463238D01*
X91328380Y-86558476D01*
X91376000Y-86748952D01*
X91376000Y-86891809D01*
X91328380Y-87082285D01*
X91280761Y-87177523D01*
X91185523Y-87272761D01*
X91042666Y-87320380D01*
X90804571Y-87320380D01*
%TO.C,SENSOR1*%
X63059380Y-77056857D02*
X62059380Y-77056857D01*
X62059380Y-76818761D01*
X62107000Y-76675904D01*
X62202238Y-76580666D01*
X62297476Y-76533047D01*
X62487952Y-76485428D01*
X62630809Y-76485428D01*
X62821285Y-76533047D01*
X62916523Y-76580666D01*
X63011761Y-76675904D01*
X63059380Y-76818761D01*
X63059380Y-77056857D01*
X63011761Y-76104476D02*
X63059380Y-75961619D01*
X63059380Y-75723523D01*
X63011761Y-75628285D01*
X62964142Y-75580666D01*
X62868904Y-75533047D01*
X62773666Y-75533047D01*
X62678428Y-75580666D01*
X62630809Y-75628285D01*
X62583190Y-75723523D01*
X62535571Y-75914000D01*
X62487952Y-76009238D01*
X62440333Y-76056857D01*
X62345095Y-76104476D01*
X62249857Y-76104476D01*
X62154619Y-76056857D01*
X62107000Y-76009238D01*
X62059380Y-75914000D01*
X62059380Y-75675904D01*
X62107000Y-75533047D01*
X63059380Y-74580666D02*
X63059380Y-75152095D01*
X63059380Y-74866380D02*
X62059380Y-74866380D01*
X62202238Y-74961619D01*
X62297476Y-75056857D01*
X62345095Y-75152095D01*
X62487952Y-74009238D02*
X62440333Y-74104476D01*
X62392714Y-74152095D01*
X62297476Y-74199714D01*
X62249857Y-74199714D01*
X62154619Y-74152095D01*
X62107000Y-74104476D01*
X62059380Y-74009238D01*
X62059380Y-73818761D01*
X62107000Y-73723523D01*
X62154619Y-73675904D01*
X62249857Y-73628285D01*
X62297476Y-73628285D01*
X62392714Y-73675904D01*
X62440333Y-73723523D01*
X62487952Y-73818761D01*
X62487952Y-74009238D01*
X62535571Y-74104476D01*
X62583190Y-74152095D01*
X62678428Y-74199714D01*
X62868904Y-74199714D01*
X62964142Y-74152095D01*
X63011761Y-74104476D01*
X63059380Y-74009238D01*
X63059380Y-73818761D01*
X63011761Y-73723523D01*
X62964142Y-73675904D01*
X62868904Y-73628285D01*
X62678428Y-73628285D01*
X62583190Y-73675904D01*
X62535571Y-73723523D01*
X62487952Y-73818761D01*
X62535571Y-72866380D02*
X62583190Y-72723523D01*
X62630809Y-72675904D01*
X62726047Y-72628285D01*
X62868904Y-72628285D01*
X62964142Y-72675904D01*
X63011761Y-72723523D01*
X63059380Y-72818761D01*
X63059380Y-73199714D01*
X62059380Y-73199714D01*
X62059380Y-72866380D01*
X62107000Y-72771142D01*
X62154619Y-72723523D01*
X62249857Y-72675904D01*
X62345095Y-72675904D01*
X62440333Y-72723523D01*
X62487952Y-72771142D01*
X62535571Y-72866380D01*
X62535571Y-73199714D01*
X62154619Y-72247333D02*
X62107000Y-72199714D01*
X62059380Y-72104476D01*
X62059380Y-71866380D01*
X62107000Y-71771142D01*
X62154619Y-71723523D01*
X62249857Y-71675904D01*
X62345095Y-71675904D01*
X62487952Y-71723523D01*
X63059380Y-72294952D01*
X63059380Y-71675904D01*
X62059380Y-71056857D02*
X62059380Y-70961619D01*
X62107000Y-70866380D01*
X62154619Y-70818761D01*
X62249857Y-70771142D01*
X62440333Y-70723523D01*
X62678428Y-70723523D01*
X62868904Y-70771142D01*
X62964142Y-70818761D01*
X63011761Y-70866380D01*
X63059380Y-70961619D01*
X63059380Y-71056857D01*
X63011761Y-71152095D01*
X62964142Y-71199714D01*
X62868904Y-71247333D01*
X62678428Y-71294952D01*
X62440333Y-71294952D01*
X62249857Y-71247333D01*
X62154619Y-71199714D01*
X62107000Y-71152095D01*
X62059380Y-71056857D01*
%TO.C,R5*%
X69056333Y-76525380D02*
X68484904Y-76525380D01*
X68770619Y-76525380D02*
X68770619Y-75525380D01*
X68675380Y-75668238D01*
X68580142Y-75763476D01*
X68484904Y-75811095D01*
X69675380Y-75525380D02*
X69770619Y-75525380D01*
X69865857Y-75573000D01*
X69913476Y-75620619D01*
X69961095Y-75715857D01*
X70008714Y-75906333D01*
X70008714Y-76144428D01*
X69961095Y-76334904D01*
X69913476Y-76430142D01*
X69865857Y-76477761D01*
X69770619Y-76525380D01*
X69675380Y-76525380D01*
X69580142Y-76477761D01*
X69532523Y-76430142D01*
X69484904Y-76334904D01*
X69437285Y-76144428D01*
X69437285Y-75906333D01*
X69484904Y-75715857D01*
X69532523Y-75620619D01*
X69580142Y-75573000D01*
X69675380Y-75525380D01*
X70627761Y-75525380D02*
X70723000Y-75525380D01*
X70818238Y-75573000D01*
X70865857Y-75620619D01*
X70913476Y-75715857D01*
X70961095Y-75906333D01*
X70961095Y-76144428D01*
X70913476Y-76334904D01*
X70865857Y-76430142D01*
X70818238Y-76477761D01*
X70723000Y-76525380D01*
X70627761Y-76525380D01*
X70532523Y-76477761D01*
X70484904Y-76430142D01*
X70437285Y-76334904D01*
X70389666Y-76144428D01*
X70389666Y-75906333D01*
X70437285Y-75715857D01*
X70484904Y-75620619D01*
X70532523Y-75573000D01*
X70627761Y-75525380D01*
%TO.C,R4*%
X80613333Y-72588380D02*
X80041904Y-72588380D01*
X80327619Y-72588380D02*
X80327619Y-71588380D01*
X80232380Y-71731238D01*
X80137142Y-71826476D01*
X80041904Y-71874095D01*
X81232380Y-71588380D02*
X81327619Y-71588380D01*
X81422857Y-71636000D01*
X81470476Y-71683619D01*
X81518095Y-71778857D01*
X81565714Y-71969333D01*
X81565714Y-72207428D01*
X81518095Y-72397904D01*
X81470476Y-72493142D01*
X81422857Y-72540761D01*
X81327619Y-72588380D01*
X81232380Y-72588380D01*
X81137142Y-72540761D01*
X81089523Y-72493142D01*
X81041904Y-72397904D01*
X80994285Y-72207428D01*
X80994285Y-71969333D01*
X81041904Y-71778857D01*
X81089523Y-71683619D01*
X81137142Y-71636000D01*
X81232380Y-71588380D01*
X82184761Y-71588380D02*
X82280000Y-71588380D01*
X82375238Y-71636000D01*
X82422857Y-71683619D01*
X82470476Y-71778857D01*
X82518095Y-71969333D01*
X82518095Y-72207428D01*
X82470476Y-72397904D01*
X82422857Y-72493142D01*
X82375238Y-72540761D01*
X82280000Y-72588380D01*
X82184761Y-72588380D01*
X82089523Y-72540761D01*
X82041904Y-72493142D01*
X81994285Y-72397904D01*
X81946666Y-72207428D01*
X81946666Y-71969333D01*
X81994285Y-71778857D01*
X82041904Y-71683619D01*
X82089523Y-71636000D01*
X82184761Y-71588380D01*
%TO.C,R3*%
X68572190Y-72175714D02*
X68572190Y-72842380D01*
X68334095Y-71794761D02*
X68096000Y-72509047D01*
X68715047Y-72509047D01*
X69096000Y-72747142D02*
X69143619Y-72794761D01*
X69096000Y-72842380D01*
X69048380Y-72794761D01*
X69096000Y-72747142D01*
X69096000Y-72842380D01*
X69476952Y-71842380D02*
X70143619Y-71842380D01*
X69715047Y-72842380D01*
X70524571Y-72842380D02*
X70524571Y-71842380D01*
X71096000Y-72842380D02*
X70667428Y-72270952D01*
X71096000Y-71842380D02*
X70524571Y-72413809D01*
%TO.C,R2*%
X80843523Y-76525380D02*
X80272095Y-76525380D01*
X80557809Y-76525380D02*
X80557809Y-75525380D01*
X80462571Y-75668238D01*
X80367333Y-75763476D01*
X80272095Y-75811095D01*
X81462571Y-75525380D02*
X81557809Y-75525380D01*
X81653047Y-75573000D01*
X81700666Y-75620619D01*
X81748285Y-75715857D01*
X81795904Y-75906333D01*
X81795904Y-76144428D01*
X81748285Y-76334904D01*
X81700666Y-76430142D01*
X81653047Y-76477761D01*
X81557809Y-76525380D01*
X81462571Y-76525380D01*
X81367333Y-76477761D01*
X81319714Y-76430142D01*
X81272095Y-76334904D01*
X81224476Y-76144428D01*
X81224476Y-75906333D01*
X81272095Y-75715857D01*
X81319714Y-75620619D01*
X81367333Y-75573000D01*
X81462571Y-75525380D01*
X82224476Y-76525380D02*
X82224476Y-75525380D01*
X82795904Y-76525380D02*
X82367333Y-75953952D01*
X82795904Y-75525380D02*
X82224476Y-76096809D01*
%TO.C,R1*%
X86812523Y-80716380D02*
X86241095Y-80716380D01*
X86526809Y-80716380D02*
X86526809Y-79716380D01*
X86431571Y-79859238D01*
X86336333Y-79954476D01*
X86241095Y-80002095D01*
X87431571Y-79716380D02*
X87526809Y-79716380D01*
X87622047Y-79764000D01*
X87669666Y-79811619D01*
X87717285Y-79906857D01*
X87764904Y-80097333D01*
X87764904Y-80335428D01*
X87717285Y-80525904D01*
X87669666Y-80621142D01*
X87622047Y-80668761D01*
X87526809Y-80716380D01*
X87431571Y-80716380D01*
X87336333Y-80668761D01*
X87288714Y-80621142D01*
X87241095Y-80525904D01*
X87193476Y-80335428D01*
X87193476Y-80097333D01*
X87241095Y-79906857D01*
X87288714Y-79811619D01*
X87336333Y-79764000D01*
X87431571Y-79716380D01*
X88193476Y-80716380D02*
X88193476Y-79716380D01*
X88764904Y-80716380D02*
X88336333Y-80144952D01*
X88764904Y-79716380D02*
X88193476Y-80287809D01*
%TO.C,J4*%
X94376952Y-87530380D02*
X93805523Y-87530380D01*
X94091238Y-87530380D02*
X94091238Y-86530380D01*
X93996000Y-86673238D01*
X93900761Y-86768476D01*
X93805523Y-86816095D01*
X94757904Y-86625619D02*
X94805523Y-86578000D01*
X94900761Y-86530380D01*
X95138857Y-86530380D01*
X95234095Y-86578000D01*
X95281714Y-86625619D01*
X95329333Y-86720857D01*
X95329333Y-86816095D01*
X95281714Y-86958952D01*
X94710285Y-87530380D01*
X95329333Y-87530380D01*
X95615047Y-86530380D02*
X95948380Y-87530380D01*
X96281714Y-86530380D01*
%TO.C,J3*%
X66548238Y-79170380D02*
X66548238Y-78170380D01*
X66786333Y-78170380D01*
X66929190Y-78218000D01*
X67024428Y-78313238D01*
X67072047Y-78408476D01*
X67119666Y-78598952D01*
X67119666Y-78741809D01*
X67072047Y-78932285D01*
X67024428Y-79027523D01*
X66929190Y-79122761D01*
X66786333Y-79170380D01*
X66548238Y-79170380D01*
X68119666Y-79075142D02*
X68072047Y-79122761D01*
X67929190Y-79170380D01*
X67833952Y-79170380D01*
X67691095Y-79122761D01*
X67595857Y-79027523D01*
X67548238Y-78932285D01*
X67500619Y-78741809D01*
X67500619Y-78598952D01*
X67548238Y-78408476D01*
X67595857Y-78313238D01*
X67691095Y-78218000D01*
X67833952Y-78170380D01*
X67929190Y-78170380D01*
X68072047Y-78218000D01*
X68119666Y-78265619D01*
X69310142Y-79170380D02*
X69310142Y-78170380D01*
X69786333Y-79170380D02*
X69786333Y-78170380D01*
X70357761Y-79170380D01*
X70357761Y-78170380D01*
%TO.C,J2*%
X104394095Y-86578000D02*
X104298857Y-86530380D01*
X104156000Y-86530380D01*
X104013142Y-86578000D01*
X103917904Y-86673238D01*
X103870285Y-86768476D01*
X103822666Y-86958952D01*
X103822666Y-87101809D01*
X103870285Y-87292285D01*
X103917904Y-87387523D01*
X104013142Y-87482761D01*
X104156000Y-87530380D01*
X104251238Y-87530380D01*
X104394095Y-87482761D01*
X104441714Y-87435142D01*
X104441714Y-87101809D01*
X104251238Y-87101809D01*
X104870285Y-87530380D02*
X104870285Y-86530380D01*
X105441714Y-87530380D01*
X105441714Y-86530380D01*
X105917904Y-87530380D02*
X105917904Y-86530380D01*
X106156000Y-86530380D01*
X106298857Y-86578000D01*
X106394095Y-86673238D01*
X106441714Y-86768476D01*
X106489333Y-86958952D01*
X106489333Y-87101809D01*
X106441714Y-87292285D01*
X106394095Y-87387523D01*
X106298857Y-87482761D01*
X106156000Y-87530380D01*
X105917904Y-87530380D01*
%TO.C,J1*%
X99885523Y-86530380D02*
X99409333Y-86530380D01*
X99361714Y-87006571D01*
X99409333Y-86958952D01*
X99504571Y-86911333D01*
X99742666Y-86911333D01*
X99837904Y-86958952D01*
X99885523Y-87006571D01*
X99933142Y-87101809D01*
X99933142Y-87339904D01*
X99885523Y-87435142D01*
X99837904Y-87482761D01*
X99742666Y-87530380D01*
X99504571Y-87530380D01*
X99409333Y-87482761D01*
X99361714Y-87435142D01*
X100218857Y-86530380D02*
X100552190Y-87530380D01*
X100885523Y-86530380D01*
%TO.C,C2*%
X89701761Y-71064380D02*
X89130333Y-71064380D01*
X89416047Y-71064380D02*
X89416047Y-70064380D01*
X89320809Y-70207238D01*
X89225571Y-70302476D01*
X89130333Y-70350095D01*
X90558904Y-70397714D02*
X90558904Y-71064380D01*
X90130333Y-70397714D02*
X90130333Y-70921523D01*
X90177952Y-71016761D01*
X90273190Y-71064380D01*
X90416047Y-71064380D01*
X90511285Y-71016761D01*
X90558904Y-70969142D01*
X91368428Y-70540571D02*
X91035095Y-70540571D01*
X91035095Y-71064380D02*
X91035095Y-70064380D01*
X91511285Y-70064380D01*
%TO.C,C1*%
X86780761Y-83002380D02*
X86209333Y-83002380D01*
X86495047Y-83002380D02*
X86495047Y-82002380D01*
X86399809Y-82145238D01*
X86304571Y-82240476D01*
X86209333Y-82288095D01*
X87209333Y-82335714D02*
X87209333Y-83002380D01*
X87209333Y-82430952D02*
X87256952Y-82383333D01*
X87352190Y-82335714D01*
X87495047Y-82335714D01*
X87590285Y-82383333D01*
X87637904Y-82478571D01*
X87637904Y-83002380D01*
X88447428Y-82478571D02*
X88114095Y-82478571D01*
X88114095Y-83002380D02*
X88114095Y-82002380D01*
X88590285Y-82002380D01*
%TO.C,BTN2*%
X98766380Y-83581571D02*
X98766380Y-83010142D01*
X99766380Y-83295857D02*
X98766380Y-83295857D01*
X99242571Y-82676809D02*
X99242571Y-82343476D01*
X99766380Y-82200619D02*
X99766380Y-82676809D01*
X98766380Y-82676809D01*
X98766380Y-82200619D01*
X99766380Y-81772047D02*
X98766380Y-81772047D01*
X99480666Y-81438714D01*
X98766380Y-81105380D01*
X99766380Y-81105380D01*
X99766380Y-80629190D02*
X98766380Y-80629190D01*
X98766380Y-80248238D01*
X98814000Y-80153000D01*
X98861619Y-80105380D01*
X98956857Y-80057761D01*
X99099714Y-80057761D01*
X99194952Y-80105380D01*
X99242571Y-80153000D01*
X99290190Y-80248238D01*
X99290190Y-80629190D01*
X99385428Y-79629190D02*
X99385428Y-78867285D01*
%TO.C,BTN1*%
X98766380Y-76723571D02*
X98766380Y-76152142D01*
X99766380Y-76437857D02*
X98766380Y-76437857D01*
X99242571Y-75818809D02*
X99242571Y-75485476D01*
X99766380Y-75342619D02*
X99766380Y-75818809D01*
X98766380Y-75818809D01*
X98766380Y-75342619D01*
X99766380Y-74914047D02*
X98766380Y-74914047D01*
X99480666Y-74580714D01*
X98766380Y-74247380D01*
X99766380Y-74247380D01*
X99766380Y-73771190D02*
X98766380Y-73771190D01*
X98766380Y-73390238D01*
X98814000Y-73295000D01*
X98861619Y-73247380D01*
X98956857Y-73199761D01*
X99099714Y-73199761D01*
X99194952Y-73247380D01*
X99242571Y-73295000D01*
X99290190Y-73390238D01*
X99290190Y-73771190D01*
X99385428Y-72771190D02*
X99385428Y-72009285D01*
X99766380Y-72390238D02*
X99004476Y-72390238D01*
D11*
%TO.C,Vreg1*%
X76726000Y-89829000D02*
X76726000Y-79589000D01*
X75216000Y-79589000D02*
X79857000Y-79589000D01*
X79857000Y-89829000D02*
X79857000Y-79589000D01*
X75216000Y-89829000D02*
X79857000Y-89829000D01*
X75216000Y-82858000D02*
X76726000Y-82858000D01*
X75216000Y-86559000D02*
X76726000Y-86559000D01*
X75216000Y-89829000D02*
X75216000Y-79589000D01*
%TO.C,SENSOR1*%
X61667000Y-75714000D02*
X61667000Y-72114000D01*
X61655478Y-72075522D02*
G75*
G03*
X57217000Y-73914000I-1838478J-1838478D01*
G01*
X57216999Y-73914000D02*
G75*
G03*
X61655478Y-75752478I2600001J0D01*
G01*
%TO.C,R5*%
X66326000Y-74703000D02*
X66326000Y-75033000D01*
X72866000Y-77443000D02*
X66326000Y-77443000D01*
X72866000Y-74703000D02*
X66326000Y-74703000D01*
X72866000Y-75033000D02*
X72866000Y-74703000D01*
X72866000Y-77113000D02*
X72866000Y-77443000D01*
X66326000Y-77443000D02*
X66326000Y-77113000D01*
%TO.C,R4*%
X78010000Y-70893000D02*
X78010000Y-71223000D01*
X84550000Y-73633000D02*
X78010000Y-73633000D01*
X84550000Y-70893000D02*
X78010000Y-70893000D01*
X84550000Y-71223000D02*
X84550000Y-70893000D01*
X84550000Y-73303000D02*
X84550000Y-73633000D01*
X78010000Y-73633000D02*
X78010000Y-73303000D01*
%TO.C,R3*%
X72866000Y-70893000D02*
X72866000Y-71223000D01*
X66326000Y-71223000D02*
X66326000Y-70893000D01*
X66326000Y-73303000D02*
X66326000Y-73633000D01*
X66326000Y-73633000D02*
X72866000Y-73633000D01*
X66326000Y-70893000D02*
X72866000Y-70893000D01*
X72866000Y-73633000D02*
X72866000Y-73303000D01*
%TO.C,R2*%
X78010000Y-74703000D02*
X78010000Y-75033000D01*
X84550000Y-77443000D02*
X78010000Y-77443000D01*
X84550000Y-74703000D02*
X78010000Y-74703000D01*
X84550000Y-75033000D02*
X84550000Y-74703000D01*
X84550000Y-77113000D02*
X84550000Y-77443000D01*
X78010000Y-77443000D02*
X78010000Y-77113000D01*
%TO.C,R1*%
X84233000Y-78894000D02*
X84233000Y-79224000D01*
X90773000Y-81634000D02*
X84233000Y-81634000D01*
X90773000Y-78894000D02*
X84233000Y-78894000D01*
X90773000Y-79224000D02*
X90773000Y-78894000D01*
X90773000Y-81304000D02*
X90773000Y-81634000D01*
X84233000Y-81634000D02*
X84233000Y-81304000D01*
%TO.C,P_LED1*%
X105878000Y-74041000D02*
G75*
G03*
X105878000Y-74041000I-2500000J0D01*
G01*
X100388000Y-74040538D02*
G75*
G03*
X105938000Y-75585830I2990000J-462D01*
G01*
X105938000Y-72496170D02*
G75*
G03*
X100388000Y-74041462I-2560000J-1544830D01*
G01*
X105938000Y-75586000D02*
X105938000Y-72496000D01*
%TO.C,J4*%
X96106000Y-89533000D02*
X94996000Y-89533000D01*
X96106000Y-88013000D02*
X93886000Y-88013000D01*
X93886000Y-88013000D02*
X93886000Y-88078000D01*
X96106000Y-88013000D02*
X95559471Y-88013000D01*
X96106000Y-88773000D02*
X96106000Y-89533000D01*
X94432529Y-88013000D02*
X93886000Y-88013000D01*
X96106000Y-88013000D02*
X96106000Y-88078000D01*
D12*
%TO.C,J3*%
X71693000Y-79828000D02*
X71693000Y-82028000D01*
X71693000Y-86628000D02*
X71693000Y-88828000D01*
X57393000Y-79828000D02*
X71693000Y-79828000D01*
X57393000Y-88828000D02*
X57393000Y-79828000D01*
X65993000Y-88828000D02*
X57393000Y-88828000D01*
X71693000Y-88828000D02*
X70793000Y-88828000D01*
D11*
%TO.C,J2*%
X106266000Y-88013000D02*
X106266000Y-88078000D01*
X104592529Y-88013000D02*
X104046000Y-88013000D01*
X106266000Y-88773000D02*
X106266000Y-89533000D01*
X106266000Y-88013000D02*
X105719471Y-88013000D01*
X104046000Y-88013000D02*
X104046000Y-88078000D01*
X106266000Y-88013000D02*
X104046000Y-88013000D01*
X106266000Y-89533000D02*
X105156000Y-89533000D01*
%TO.C,J1*%
X101186000Y-89533000D02*
X100076000Y-89533000D01*
X101186000Y-88013000D02*
X98966000Y-88013000D01*
X98966000Y-88013000D02*
X98966000Y-88078000D01*
X101186000Y-88013000D02*
X100639471Y-88013000D01*
X101186000Y-88773000D02*
X101186000Y-89533000D01*
X99512529Y-88013000D02*
X98966000Y-88013000D01*
X101186000Y-88013000D02*
X101186000Y-88078000D01*
%TO.C,C_LED1*%
X105938000Y-83460000D02*
X105938000Y-80370000D01*
X105938000Y-80370170D02*
G75*
G03*
X100388000Y-81915462I-2560000J-1544830D01*
G01*
X100388000Y-81914538D02*
G75*
G03*
X105938000Y-83459830I2990000J-462D01*
G01*
X105878000Y-81915000D02*
G75*
G03*
X105878000Y-81915000I-2500000J0D01*
G01*
%TO.C,C2*%
X89109000Y-73255000D02*
X89109000Y-71947000D01*
X88229000Y-75994000D02*
X88229000Y-75335000D01*
X87949000Y-75614000D02*
X87949000Y-75335000D01*
X87989000Y-75678000D02*
X87989000Y-75335000D01*
X89710000Y-73255000D02*
X89710000Y-71759000D01*
X88909000Y-76542000D02*
X88909000Y-75335000D01*
X90190000Y-76875000D02*
X90190000Y-71715000D01*
X89029000Y-73255000D02*
X89029000Y-71985000D01*
X88349000Y-73255000D02*
X88349000Y-72469000D01*
X88749000Y-73255000D02*
X88749000Y-72146000D01*
X89469000Y-73255000D02*
X89469000Y-71815000D01*
X88709000Y-73255000D02*
X88709000Y-72173000D01*
X88029000Y-75738000D02*
X88029000Y-75335000D01*
X90110000Y-76874000D02*
X90110000Y-71716000D01*
X88589000Y-76330000D02*
X88589000Y-75335000D01*
X87629000Y-74813000D02*
X87629000Y-73777000D01*
X89389000Y-76750000D02*
X89389000Y-75335000D01*
X88869000Y-76519000D02*
X88869000Y-75335000D01*
X89069000Y-73255000D02*
X89069000Y-71966000D01*
X88269000Y-73255000D02*
X88269000Y-72552000D01*
X88549000Y-73255000D02*
X88549000Y-72291000D01*
X87949000Y-73255000D02*
X87949000Y-72976000D01*
X87909000Y-73255000D02*
X87909000Y-73044000D01*
X88389000Y-73255000D02*
X88389000Y-72431000D01*
X89630000Y-73255000D02*
X89630000Y-71775000D01*
X89710000Y-76831000D02*
X89710000Y-75335000D01*
X89469000Y-76775000D02*
X89469000Y-75335000D01*
X89269000Y-76709000D02*
X89269000Y-75335000D01*
X89510000Y-73255000D02*
X89510000Y-71804000D01*
X87669000Y-74972000D02*
X87669000Y-73618000D01*
X88789000Y-76470000D02*
X88789000Y-75335000D01*
X89429000Y-73255000D02*
X89429000Y-71827000D01*
X88309000Y-76080000D02*
X88309000Y-75335000D01*
X88029000Y-73255000D02*
X88029000Y-72852000D01*
X88469000Y-76232000D02*
X88469000Y-75335000D01*
X88749000Y-76444000D02*
X88749000Y-75335000D01*
X89069000Y-76624000D02*
X89069000Y-75335000D01*
X89830000Y-73255000D02*
X89830000Y-71739000D01*
X87989000Y-73255000D02*
X87989000Y-72912000D01*
X89590000Y-76806000D02*
X89590000Y-75335000D01*
X87829000Y-75393000D02*
X87829000Y-73197000D01*
X88269000Y-76038000D02*
X88269000Y-75335000D01*
X89950000Y-73255000D02*
X89950000Y-71726000D01*
X89670000Y-73255000D02*
X89670000Y-71767000D01*
X89750000Y-76838000D02*
X89750000Y-75335000D01*
X90030000Y-76871000D02*
X90030000Y-71719000D01*
X88669000Y-76390000D02*
X88669000Y-75335000D01*
X88949000Y-73255000D02*
X88949000Y-72027000D01*
X89189000Y-76677000D02*
X89189000Y-75335000D01*
X89550000Y-73255000D02*
X89550000Y-71794000D01*
X89670000Y-76823000D02*
X89670000Y-75335000D01*
X90150000Y-76875000D02*
X90150000Y-71715000D01*
X89149000Y-76660000D02*
X89149000Y-75335000D01*
X88189000Y-73255000D02*
X88189000Y-72642000D01*
X89550000Y-76796000D02*
X89550000Y-75335000D01*
X89870000Y-76856000D02*
X89870000Y-75335000D01*
X88829000Y-76495000D02*
X88829000Y-75335000D01*
X88589000Y-73255000D02*
X88589000Y-72260000D01*
X88349000Y-76121000D02*
X88349000Y-75335000D01*
X89790000Y-73255000D02*
X89790000Y-71745000D01*
X89349000Y-76737000D02*
X89349000Y-75335000D01*
X89630000Y-76815000D02*
X89630000Y-75335000D01*
X89790000Y-76845000D02*
X89790000Y-75335000D01*
X88789000Y-73255000D02*
X88789000Y-72120000D01*
X89229000Y-73255000D02*
X89229000Y-71897000D01*
X90070000Y-76873000D02*
X90070000Y-71717000D01*
X89990000Y-76868000D02*
X89990000Y-71722000D01*
X89950000Y-76864000D02*
X89950000Y-75335000D01*
X89590000Y-73255000D02*
X89590000Y-71784000D01*
X88309000Y-73255000D02*
X88309000Y-72510000D01*
X88989000Y-76585000D02*
X88989000Y-75335000D01*
X88629000Y-76360000D02*
X88629000Y-75335000D01*
X89149000Y-73255000D02*
X89149000Y-71930000D01*
X88189000Y-75948000D02*
X88189000Y-75335000D01*
X89830000Y-76851000D02*
X89830000Y-75335000D01*
X88469000Y-73255000D02*
X88469000Y-72358000D01*
X89349000Y-73255000D02*
X89349000Y-71853000D01*
X88629000Y-73255000D02*
X88629000Y-72230000D01*
X88909000Y-73255000D02*
X88909000Y-72048000D01*
X88429000Y-73255000D02*
X88429000Y-72394000D01*
X89389000Y-73255000D02*
X89389000Y-71840000D01*
X88869000Y-73255000D02*
X88869000Y-72071000D01*
X89229000Y-76693000D02*
X89229000Y-75335000D01*
X92994775Y-75770000D02*
X92494775Y-75770000D01*
X88149000Y-73255000D02*
X88149000Y-72690000D01*
X87709000Y-75100000D02*
X87709000Y-73490000D01*
X87909000Y-75546000D02*
X87909000Y-75335000D01*
X89309000Y-73255000D02*
X89309000Y-71867000D01*
X89910000Y-73255000D02*
X89910000Y-71730000D01*
X87589000Y-74579000D02*
X87589000Y-74011000D01*
X89309000Y-76723000D02*
X89309000Y-75335000D01*
X87789000Y-75306000D02*
X87789000Y-73284000D01*
X89189000Y-73255000D02*
X89189000Y-71913000D01*
X88549000Y-76299000D02*
X88549000Y-75335000D01*
X88069000Y-75795000D02*
X88069000Y-75335000D01*
X87869000Y-75473000D02*
X87869000Y-73117000D01*
X88709000Y-76417000D02*
X88709000Y-75335000D01*
X88829000Y-73255000D02*
X88829000Y-72095000D01*
X89269000Y-73255000D02*
X89269000Y-71881000D01*
X92744775Y-76020000D02*
X92744775Y-75520000D01*
X89109000Y-76643000D02*
X89109000Y-75335000D01*
X88509000Y-76266000D02*
X88509000Y-75335000D01*
X89510000Y-76786000D02*
X89510000Y-75335000D01*
X88669000Y-73255000D02*
X88669000Y-72200000D01*
X89870000Y-73255000D02*
X89870000Y-71734000D01*
X88989000Y-73255000D02*
X88989000Y-72005000D01*
X88949000Y-76563000D02*
X88949000Y-75335000D01*
X88109000Y-75849000D02*
X88109000Y-75335000D01*
X89029000Y-76605000D02*
X89029000Y-75335000D01*
X88109000Y-73255000D02*
X88109000Y-72741000D01*
X87749000Y-75210000D02*
X87749000Y-73380000D01*
X88509000Y-73255000D02*
X88509000Y-72324000D01*
X89910000Y-76860000D02*
X89910000Y-75335000D01*
X88069000Y-73255000D02*
X88069000Y-72795000D01*
X88429000Y-76196000D02*
X88429000Y-75335000D01*
X89750000Y-73255000D02*
X89750000Y-71752000D01*
X88149000Y-75900000D02*
X88149000Y-75335000D01*
X89429000Y-76763000D02*
X89429000Y-75335000D01*
X88229000Y-73255000D02*
X88229000Y-72596000D01*
X88389000Y-76159000D02*
X88389000Y-75335000D01*
X92810000Y-74295000D02*
G75*
G03*
X92810000Y-74295000I-2620000J0D01*
G01*
%TO.C,C1*%
X89869000Y-86079000D02*
X89869000Y-85764000D01*
X89869000Y-83654000D02*
X89869000Y-83339000D01*
X84629000Y-86079000D02*
X84629000Y-85764000D01*
X89869000Y-83339000D02*
X84629000Y-83339000D01*
X89869000Y-86079000D02*
X84629000Y-86079000D01*
X84629000Y-83654000D02*
X84629000Y-83339000D01*
%TO.C,BTN2*%
X97952000Y-81768000D02*
X97952000Y-79168000D01*
X95292000Y-81768000D02*
X95292000Y-79168000D01*
X97952000Y-81768000D02*
X95292000Y-81768000D01*
X96622000Y-84368000D02*
X95292000Y-84368000D01*
X95292000Y-84368000D02*
X95292000Y-83038000D01*
X97952000Y-79168000D02*
X95292000Y-79168000D01*
%TO.C,BTN1*%
X98079000Y-74529000D02*
X98079000Y-71929000D01*
X95419000Y-74529000D02*
X95419000Y-71929000D01*
X98079000Y-74529000D02*
X95419000Y-74529000D01*
X96749000Y-77129000D02*
X95419000Y-77129000D01*
X95419000Y-77129000D02*
X95419000Y-75799000D01*
X98079000Y-71929000D02*
X95419000Y-71929000D01*
%TD*%
M02*
