%TF.GenerationSoftware,KiCad,Pcbnew,(6.0.2)*%
%TF.CreationDate,2022-03-19T19:34:23-03:00*%
%TF.ProjectId,ThermalControl,54686572-6d61-46c4-936f-6e74726f6c2e,rev?*%
%TF.SameCoordinates,Original*%
%TF.FileFunction,Legend,Top*%
%TF.FilePolarity,Positive*%
%FSLAX46Y46*%
G04 Gerber Fmt 4.6, Leading zero omitted, Abs format (unit mm)*
G04 Created by KiCad (PCBNEW (6.0.2)) date 2022-03-19 19:34:23*
%MOMM*%
%LPD*%
G01*
G04 APERTURE LIST*
%ADD10C,0.150000*%
%ADD11C,0.120000*%
%ADD12C,0.127000*%
G04 APERTURE END LIST*
D10*
X83582238Y-91257428D02*
X84344142Y-91257428D01*
X83963190Y-91638380D02*
X83963190Y-90876476D01*
X88629857Y-91257428D02*
X89391761Y-91257428D01*
X108259571Y-49870952D02*
X108259571Y-50204285D01*
X108783380Y-50204285D02*
X107783380Y-50204285D01*
X107783380Y-49728095D01*
X108735761Y-48966190D02*
X108783380Y-49061428D01*
X108783380Y-49251904D01*
X108735761Y-49347142D01*
X108640523Y-49394761D01*
X108259571Y-49394761D01*
X108164333Y-49347142D01*
X108116714Y-49251904D01*
X108116714Y-49061428D01*
X108164333Y-48966190D01*
X108259571Y-48918571D01*
X108354809Y-48918571D01*
X108450047Y-49394761D01*
X108783380Y-48061428D02*
X108259571Y-48061428D01*
X108164333Y-48109047D01*
X108116714Y-48204285D01*
X108116714Y-48394761D01*
X108164333Y-48490000D01*
X108735761Y-48061428D02*
X108783380Y-48156666D01*
X108783380Y-48394761D01*
X108735761Y-48490000D01*
X108640523Y-48537619D01*
X108545285Y-48537619D01*
X108450047Y-48490000D01*
X108402428Y-48394761D01*
X108402428Y-48156666D01*
X108354809Y-48061428D01*
X108116714Y-47585238D02*
X109116714Y-47585238D01*
X108164333Y-47585238D02*
X108116714Y-47490000D01*
X108116714Y-47299523D01*
X108164333Y-47204285D01*
X108211952Y-47156666D01*
X108307190Y-47109047D01*
X108592904Y-47109047D01*
X108688142Y-47156666D01*
X108735761Y-47204285D01*
X108783380Y-47299523D01*
X108783380Y-47490000D01*
X108735761Y-47585238D01*
X107783380Y-46823333D02*
X107783380Y-46251904D01*
X108783380Y-46537619D02*
X107783380Y-46537619D01*
X108735761Y-45537619D02*
X108783380Y-45632857D01*
X108783380Y-45823333D01*
X108735761Y-45918571D01*
X108640523Y-45966190D01*
X108259571Y-45966190D01*
X108164333Y-45918571D01*
X108116714Y-45823333D01*
X108116714Y-45632857D01*
X108164333Y-45537619D01*
X108259571Y-45490000D01*
X108354809Y-45490000D01*
X108450047Y-45966190D01*
X108735761Y-44632857D02*
X108783380Y-44728095D01*
X108783380Y-44918571D01*
X108735761Y-45013809D01*
X108688142Y-45061428D01*
X108592904Y-45109047D01*
X108307190Y-45109047D01*
X108211952Y-45061428D01*
X108164333Y-45013809D01*
X108116714Y-44918571D01*
X108116714Y-44728095D01*
X108164333Y-44632857D01*
X108783380Y-44204285D02*
X107783380Y-44204285D01*
X108783380Y-43775714D02*
X108259571Y-43775714D01*
X108164333Y-43823333D01*
X108116714Y-43918571D01*
X108116714Y-44061428D01*
X108164333Y-44156666D01*
X108211952Y-44204285D01*
X107910380Y-69753761D02*
X107910380Y-69182333D01*
X108910380Y-69468047D02*
X107910380Y-69468047D01*
X108910380Y-68849000D02*
X107910380Y-68849000D01*
X108910380Y-68420428D02*
X108386571Y-68420428D01*
X108291333Y-68468047D01*
X108243714Y-68563285D01*
X108243714Y-68706142D01*
X108291333Y-68801380D01*
X108338952Y-68849000D01*
X108862761Y-67563285D02*
X108910380Y-67658523D01*
X108910380Y-67849000D01*
X108862761Y-67944238D01*
X108767523Y-67991857D01*
X108386571Y-67991857D01*
X108291333Y-67944238D01*
X108243714Y-67849000D01*
X108243714Y-67658523D01*
X108291333Y-67563285D01*
X108386571Y-67515666D01*
X108481809Y-67515666D01*
X108577047Y-67991857D01*
X108910380Y-67087095D02*
X108243714Y-67087095D01*
X108434190Y-67087095D02*
X108338952Y-67039476D01*
X108291333Y-66991857D01*
X108243714Y-66896619D01*
X108243714Y-66801380D01*
X108910380Y-66468047D02*
X108243714Y-66468047D01*
X108338952Y-66468047D02*
X108291333Y-66420428D01*
X108243714Y-66325190D01*
X108243714Y-66182333D01*
X108291333Y-66087095D01*
X108386571Y-66039476D01*
X108910380Y-66039476D01*
X108386571Y-66039476D02*
X108291333Y-65991857D01*
X108243714Y-65896619D01*
X108243714Y-65753761D01*
X108291333Y-65658523D01*
X108386571Y-65610904D01*
X108910380Y-65610904D01*
X108910380Y-64706142D02*
X108386571Y-64706142D01*
X108291333Y-64753761D01*
X108243714Y-64849000D01*
X108243714Y-65039476D01*
X108291333Y-65134714D01*
X108862761Y-64706142D02*
X108910380Y-64801380D01*
X108910380Y-65039476D01*
X108862761Y-65134714D01*
X108767523Y-65182333D01*
X108672285Y-65182333D01*
X108577047Y-65134714D01*
X108529428Y-65039476D01*
X108529428Y-64801380D01*
X108481809Y-64706142D01*
X108910380Y-64087095D02*
X108862761Y-64182333D01*
X108767523Y-64229952D01*
X107910380Y-64229952D01*
X108815142Y-62372809D02*
X108862761Y-62420428D01*
X108910380Y-62563285D01*
X108910380Y-62658523D01*
X108862761Y-62801380D01*
X108767523Y-62896619D01*
X108672285Y-62944238D01*
X108481809Y-62991857D01*
X108338952Y-62991857D01*
X108148476Y-62944238D01*
X108053238Y-62896619D01*
X107958000Y-62801380D01*
X107910380Y-62658523D01*
X107910380Y-62563285D01*
X107958000Y-62420428D01*
X108005619Y-62372809D01*
X108910380Y-61801380D02*
X108862761Y-61896619D01*
X108815142Y-61944238D01*
X108719904Y-61991857D01*
X108434190Y-61991857D01*
X108338952Y-61944238D01*
X108291333Y-61896619D01*
X108243714Y-61801380D01*
X108243714Y-61658523D01*
X108291333Y-61563285D01*
X108338952Y-61515666D01*
X108434190Y-61468047D01*
X108719904Y-61468047D01*
X108815142Y-61515666D01*
X108862761Y-61563285D01*
X108910380Y-61658523D01*
X108910380Y-61801380D01*
X108243714Y-61039476D02*
X108910380Y-61039476D01*
X108338952Y-61039476D02*
X108291333Y-60991857D01*
X108243714Y-60896619D01*
X108243714Y-60753761D01*
X108291333Y-60658523D01*
X108386571Y-60610904D01*
X108910380Y-60610904D01*
X108243714Y-60277571D02*
X108243714Y-59896619D01*
X107910380Y-60134714D02*
X108767523Y-60134714D01*
X108862761Y-60087095D01*
X108910380Y-59991857D01*
X108910380Y-59896619D01*
X108910380Y-59563285D02*
X108243714Y-59563285D01*
X108434190Y-59563285D02*
X108338952Y-59515666D01*
X108291333Y-59468047D01*
X108243714Y-59372809D01*
X108243714Y-59277571D01*
X108910380Y-58801380D02*
X108862761Y-58896619D01*
X108815142Y-58944238D01*
X108719904Y-58991857D01*
X108434190Y-58991857D01*
X108338952Y-58944238D01*
X108291333Y-58896619D01*
X108243714Y-58801380D01*
X108243714Y-58658523D01*
X108291333Y-58563285D01*
X108338952Y-58515666D01*
X108434190Y-58468047D01*
X108719904Y-58468047D01*
X108815142Y-58515666D01*
X108862761Y-58563285D01*
X108910380Y-58658523D01*
X108910380Y-58801380D01*
X108910380Y-57896619D02*
X108862761Y-57991857D01*
X108767523Y-58039476D01*
X107910380Y-58039476D01*
X108243714Y-56849000D02*
X108910380Y-56610904D01*
X108243714Y-56372809D01*
X108910380Y-55468047D02*
X108910380Y-56039476D01*
X108910380Y-55753761D02*
X107910380Y-55753761D01*
X108053238Y-55849000D01*
X108148476Y-55944238D01*
X108196095Y-56039476D01*
X108815142Y-55039476D02*
X108862761Y-54991857D01*
X108910380Y-55039476D01*
X108862761Y-55087095D01*
X108815142Y-55039476D01*
X108910380Y-55039476D01*
X107910380Y-54372809D02*
X107910380Y-54277571D01*
X107958000Y-54182333D01*
X108005619Y-54134714D01*
X108100857Y-54087095D01*
X108291333Y-54039476D01*
X108529428Y-54039476D01*
X108719904Y-54087095D01*
X108815142Y-54134714D01*
X108862761Y-54182333D01*
X108910380Y-54277571D01*
X108910380Y-54372809D01*
X108862761Y-54468047D01*
X108815142Y-54515666D01*
X108719904Y-54563285D01*
X108529428Y-54610904D01*
X108291333Y-54610904D01*
X108100857Y-54563285D01*
X108005619Y-54515666D01*
X107958000Y-54468047D01*
X107910380Y-54372809D01*
X108021380Y-76041000D02*
X107021380Y-76041000D01*
X107021380Y-75660047D01*
X107069000Y-75564809D01*
X107116619Y-75517190D01*
X107211857Y-75469571D01*
X107354714Y-75469571D01*
X107449952Y-75517190D01*
X107497571Y-75564809D01*
X107545190Y-75660047D01*
X107545190Y-76041000D01*
X108116619Y-75279095D02*
X108116619Y-74517190D01*
X108021380Y-73802904D02*
X108021380Y-74279095D01*
X107021380Y-74279095D01*
X107497571Y-73469571D02*
X107497571Y-73136238D01*
X108021380Y-72993380D02*
X108021380Y-73469571D01*
X107021380Y-73469571D01*
X107021380Y-72993380D01*
X108021380Y-72564809D02*
X107021380Y-72564809D01*
X107021380Y-72326714D01*
X107069000Y-72183857D01*
X107164238Y-72088619D01*
X107259476Y-72041000D01*
X107449952Y-71993380D01*
X107592809Y-71993380D01*
X107783285Y-72041000D01*
X107878523Y-72088619D01*
X107973761Y-72183857D01*
X108021380Y-72326714D01*
X108021380Y-72564809D01*
X77041952Y-56602380D02*
X77041952Y-57316666D01*
X76994333Y-57459523D01*
X76899095Y-57554761D01*
X76756238Y-57602380D01*
X76661000Y-57602380D01*
X77994333Y-57602380D02*
X77518142Y-57602380D01*
X77518142Y-56602380D01*
X78899095Y-57507142D02*
X78851476Y-57554761D01*
X78708619Y-57602380D01*
X78613380Y-57602380D01*
X78470523Y-57554761D01*
X78375285Y-57459523D01*
X78327666Y-57364285D01*
X78280047Y-57173809D01*
X78280047Y-57030952D01*
X78327666Y-56840476D01*
X78375285Y-56745238D01*
X78470523Y-56650000D01*
X78613380Y-56602380D01*
X78708619Y-56602380D01*
X78851476Y-56650000D01*
X78899095Y-56697619D01*
X79613380Y-56602380D02*
X79613380Y-57316666D01*
X79565761Y-57459523D01*
X79470523Y-57554761D01*
X79327666Y-57602380D01*
X79232428Y-57602380D01*
X80565761Y-57602380D02*
X80089571Y-57602380D01*
X80089571Y-56602380D01*
X81470523Y-57507142D02*
X81422904Y-57554761D01*
X81280047Y-57602380D01*
X81184809Y-57602380D01*
X81041952Y-57554761D01*
X80946714Y-57459523D01*
X80899095Y-57364285D01*
X80851476Y-57173809D01*
X80851476Y-57030952D01*
X80899095Y-56840476D01*
X80946714Y-56745238D01*
X81041952Y-56650000D01*
X81184809Y-56602380D01*
X81280047Y-56602380D01*
X81422904Y-56650000D01*
X81470523Y-56697619D01*
X82184809Y-56602380D02*
X82184809Y-57316666D01*
X82137190Y-57459523D01*
X82041952Y-57554761D01*
X81899095Y-57602380D01*
X81803857Y-57602380D01*
X83137190Y-57602380D02*
X82661000Y-57602380D01*
X82661000Y-56602380D01*
X84041952Y-57507142D02*
X83994333Y-57554761D01*
X83851476Y-57602380D01*
X83756238Y-57602380D01*
X83613380Y-57554761D01*
X83518142Y-57459523D01*
X83470523Y-57364285D01*
X83422904Y-57173809D01*
X83422904Y-57030952D01*
X83470523Y-56840476D01*
X83518142Y-56745238D01*
X83613380Y-56650000D01*
X83756238Y-56602380D01*
X83851476Y-56602380D01*
X83994333Y-56650000D01*
X84041952Y-56697619D01*
X84756238Y-56602380D02*
X84756238Y-57316666D01*
X84708619Y-57459523D01*
X84613380Y-57554761D01*
X84470523Y-57602380D01*
X84375285Y-57602380D01*
X85708619Y-57602380D02*
X85232428Y-57602380D01*
X85232428Y-56602380D01*
X86613380Y-57507142D02*
X86565761Y-57554761D01*
X86422904Y-57602380D01*
X86327666Y-57602380D01*
X86184809Y-57554761D01*
X86089571Y-57459523D01*
X86041952Y-57364285D01*
X85994333Y-57173809D01*
X85994333Y-57030952D01*
X86041952Y-56840476D01*
X86089571Y-56745238D01*
X86184809Y-56650000D01*
X86327666Y-56602380D01*
X86422904Y-56602380D01*
X86565761Y-56650000D01*
X86613380Y-56697619D01*
X94885238Y-91130428D02*
X95647142Y-91130428D01*
X95266190Y-91511380D02*
X95266190Y-90749476D01*
X99932857Y-91130428D02*
X100694761Y-91130428D01*
%TO.C,J6*%
X85153761Y-87352142D02*
X85106142Y-87399761D01*
X84963285Y-87447380D01*
X84868047Y-87447380D01*
X84725190Y-87399761D01*
X84629952Y-87304523D01*
X84582333Y-87209285D01*
X84534714Y-87018809D01*
X84534714Y-86875952D01*
X84582333Y-86685476D01*
X84629952Y-86590238D01*
X84725190Y-86495000D01*
X84868047Y-86447380D01*
X84963285Y-86447380D01*
X85106142Y-86495000D01*
X85153761Y-86542619D01*
X85772809Y-86447380D02*
X85963285Y-86447380D01*
X86058523Y-86495000D01*
X86153761Y-86590238D01*
X86201380Y-86780714D01*
X86201380Y-87114047D01*
X86153761Y-87304523D01*
X86058523Y-87399761D01*
X85963285Y-87447380D01*
X85772809Y-87447380D01*
X85677571Y-87399761D01*
X85582333Y-87304523D01*
X85534714Y-87114047D01*
X85534714Y-86780714D01*
X85582333Y-86590238D01*
X85677571Y-86495000D01*
X85772809Y-86447380D01*
X86820428Y-86447380D02*
X87010904Y-86447380D01*
X87106142Y-86495000D01*
X87201380Y-86590238D01*
X87249000Y-86780714D01*
X87249000Y-87114047D01*
X87201380Y-87304523D01*
X87106142Y-87399761D01*
X87010904Y-87447380D01*
X86820428Y-87447380D01*
X86725190Y-87399761D01*
X86629952Y-87304523D01*
X86582333Y-87114047D01*
X86582333Y-86780714D01*
X86629952Y-86590238D01*
X86725190Y-86495000D01*
X86820428Y-86447380D01*
X88153761Y-87447380D02*
X87677571Y-87447380D01*
X87677571Y-86447380D01*
X88487095Y-86923571D02*
X88820428Y-86923571D01*
X88963285Y-87447380D02*
X88487095Y-87447380D01*
X88487095Y-86447380D01*
X88963285Y-86447380D01*
X89963285Y-87447380D02*
X89629952Y-86971190D01*
X89391857Y-87447380D02*
X89391857Y-86447380D01*
X89772809Y-86447380D01*
X89868047Y-86495000D01*
X89915666Y-86542619D01*
X89963285Y-86637857D01*
X89963285Y-86780714D01*
X89915666Y-86875952D01*
X89868047Y-86923571D01*
X89772809Y-86971190D01*
X89391857Y-86971190D01*
%TO.C,J4*%
X96691904Y-86129380D02*
X97263333Y-86129380D01*
X96977619Y-87129380D02*
X96977619Y-86129380D01*
X97596666Y-86605571D02*
X97930000Y-86605571D01*
X98072857Y-87129380D02*
X97596666Y-87129380D01*
X97596666Y-86129380D01*
X98072857Y-86129380D01*
X99072857Y-87034142D02*
X99025238Y-87081761D01*
X98882380Y-87129380D01*
X98787142Y-87129380D01*
X98644285Y-87081761D01*
X98549047Y-86986523D01*
X98501428Y-86891285D01*
X98453809Y-86700809D01*
X98453809Y-86557952D01*
X98501428Y-86367476D01*
X98549047Y-86272238D01*
X98644285Y-86177000D01*
X98787142Y-86129380D01*
X98882380Y-86129380D01*
X99025238Y-86177000D01*
X99072857Y-86224619D01*
%TO.C,C_LED1*%
X107894380Y-80652857D02*
X107894380Y-81129047D01*
X106894380Y-81129047D01*
X107370571Y-80319523D02*
X107370571Y-79986190D01*
X107894380Y-79843333D02*
X107894380Y-80319523D01*
X106894380Y-80319523D01*
X106894380Y-79843333D01*
X107894380Y-79414761D02*
X106894380Y-79414761D01*
X106894380Y-79176666D01*
X106942000Y-79033809D01*
X107037238Y-78938571D01*
X107132476Y-78890952D01*
X107322952Y-78843333D01*
X107465809Y-78843333D01*
X107656285Y-78890952D01*
X107751523Y-78938571D01*
X107846761Y-79033809D01*
X107894380Y-79176666D01*
X107894380Y-79414761D01*
%TO.C,U1*%
X58872380Y-60888095D02*
X57872380Y-60888095D01*
X58872380Y-60316666D01*
X57872380Y-60316666D01*
X57872380Y-59650000D02*
X57872380Y-59459523D01*
X57920000Y-59364285D01*
X58015238Y-59269047D01*
X58205714Y-59221428D01*
X58539047Y-59221428D01*
X58729523Y-59269047D01*
X58824761Y-59364285D01*
X58872380Y-59459523D01*
X58872380Y-59650000D01*
X58824761Y-59745238D01*
X58729523Y-59840476D01*
X58539047Y-59888095D01*
X58205714Y-59888095D01*
X58015238Y-59840476D01*
X57920000Y-59745238D01*
X57872380Y-59650000D01*
X58872380Y-58792857D02*
X57872380Y-58792857D01*
X57872380Y-58554761D01*
X57920000Y-58411904D01*
X58015238Y-58316666D01*
X58110476Y-58269047D01*
X58300952Y-58221428D01*
X58443809Y-58221428D01*
X58634285Y-58269047D01*
X58729523Y-58316666D01*
X58824761Y-58411904D01*
X58872380Y-58554761D01*
X58872380Y-58792857D01*
X58348571Y-57792857D02*
X58348571Y-57459523D01*
X58872380Y-57316666D02*
X58872380Y-57792857D01*
X57872380Y-57792857D01*
X57872380Y-57316666D01*
X58967619Y-57126190D02*
X58967619Y-56364285D01*
X58872380Y-56126190D02*
X57872380Y-56126190D01*
X58586666Y-55792857D01*
X57872380Y-55459523D01*
X58872380Y-55459523D01*
X58777142Y-54411904D02*
X58824761Y-54459523D01*
X58872380Y-54602380D01*
X58872380Y-54697619D01*
X58824761Y-54840476D01*
X58729523Y-54935714D01*
X58634285Y-54983333D01*
X58443809Y-55030952D01*
X58300952Y-55030952D01*
X58110476Y-54983333D01*
X58015238Y-54935714D01*
X57920000Y-54840476D01*
X57872380Y-54697619D01*
X57872380Y-54602380D01*
X57920000Y-54459523D01*
X57967619Y-54411904D01*
X57872380Y-53983333D02*
X58681904Y-53983333D01*
X58777142Y-53935714D01*
X58824761Y-53888095D01*
X58872380Y-53792857D01*
X58872380Y-53602380D01*
X58824761Y-53507142D01*
X58777142Y-53459523D01*
X58681904Y-53411904D01*
X57872380Y-53411904D01*
%TO.C,SENSOR1*%
X63059380Y-77056857D02*
X62059380Y-77056857D01*
X62059380Y-76818761D01*
X62107000Y-76675904D01*
X62202238Y-76580666D01*
X62297476Y-76533047D01*
X62487952Y-76485428D01*
X62630809Y-76485428D01*
X62821285Y-76533047D01*
X62916523Y-76580666D01*
X63011761Y-76675904D01*
X63059380Y-76818761D01*
X63059380Y-77056857D01*
X63011761Y-76104476D02*
X63059380Y-75961619D01*
X63059380Y-75723523D01*
X63011761Y-75628285D01*
X62964142Y-75580666D01*
X62868904Y-75533047D01*
X62773666Y-75533047D01*
X62678428Y-75580666D01*
X62630809Y-75628285D01*
X62583190Y-75723523D01*
X62535571Y-75914000D01*
X62487952Y-76009238D01*
X62440333Y-76056857D01*
X62345095Y-76104476D01*
X62249857Y-76104476D01*
X62154619Y-76056857D01*
X62107000Y-76009238D01*
X62059380Y-75914000D01*
X62059380Y-75675904D01*
X62107000Y-75533047D01*
X63059380Y-74580666D02*
X63059380Y-75152095D01*
X63059380Y-74866380D02*
X62059380Y-74866380D01*
X62202238Y-74961619D01*
X62297476Y-75056857D01*
X62345095Y-75152095D01*
X62487952Y-74009238D02*
X62440333Y-74104476D01*
X62392714Y-74152095D01*
X62297476Y-74199714D01*
X62249857Y-74199714D01*
X62154619Y-74152095D01*
X62107000Y-74104476D01*
X62059380Y-74009238D01*
X62059380Y-73818761D01*
X62107000Y-73723523D01*
X62154619Y-73675904D01*
X62249857Y-73628285D01*
X62297476Y-73628285D01*
X62392714Y-73675904D01*
X62440333Y-73723523D01*
X62487952Y-73818761D01*
X62487952Y-74009238D01*
X62535571Y-74104476D01*
X62583190Y-74152095D01*
X62678428Y-74199714D01*
X62868904Y-74199714D01*
X62964142Y-74152095D01*
X63011761Y-74104476D01*
X63059380Y-74009238D01*
X63059380Y-73818761D01*
X63011761Y-73723523D01*
X62964142Y-73675904D01*
X62868904Y-73628285D01*
X62678428Y-73628285D01*
X62583190Y-73675904D01*
X62535571Y-73723523D01*
X62487952Y-73818761D01*
X62535571Y-72866380D02*
X62583190Y-72723523D01*
X62630809Y-72675904D01*
X62726047Y-72628285D01*
X62868904Y-72628285D01*
X62964142Y-72675904D01*
X63011761Y-72723523D01*
X63059380Y-72818761D01*
X63059380Y-73199714D01*
X62059380Y-73199714D01*
X62059380Y-72866380D01*
X62107000Y-72771142D01*
X62154619Y-72723523D01*
X62249857Y-72675904D01*
X62345095Y-72675904D01*
X62440333Y-72723523D01*
X62487952Y-72771142D01*
X62535571Y-72866380D01*
X62535571Y-73199714D01*
X62154619Y-72247333D02*
X62107000Y-72199714D01*
X62059380Y-72104476D01*
X62059380Y-71866380D01*
X62107000Y-71771142D01*
X62154619Y-71723523D01*
X62249857Y-71675904D01*
X62345095Y-71675904D01*
X62487952Y-71723523D01*
X63059380Y-72294952D01*
X63059380Y-71675904D01*
X62059380Y-71056857D02*
X62059380Y-70961619D01*
X62107000Y-70866380D01*
X62154619Y-70818761D01*
X62249857Y-70771142D01*
X62440333Y-70723523D01*
X62678428Y-70723523D01*
X62868904Y-70771142D01*
X62964142Y-70818761D01*
X63011761Y-70866380D01*
X63059380Y-70961619D01*
X63059380Y-71056857D01*
X63011761Y-71152095D01*
X62964142Y-71199714D01*
X62868904Y-71247333D01*
X62678428Y-71294952D01*
X62440333Y-71294952D01*
X62249857Y-71247333D01*
X62154619Y-71199714D01*
X62107000Y-71152095D01*
X62059380Y-71056857D01*
%TO.C,BTN2*%
X98766380Y-83581571D02*
X98766380Y-83010142D01*
X99766380Y-83295857D02*
X98766380Y-83295857D01*
X99242571Y-82676809D02*
X99242571Y-82343476D01*
X99766380Y-82200619D02*
X99766380Y-82676809D01*
X98766380Y-82676809D01*
X98766380Y-82200619D01*
X99766380Y-81772047D02*
X98766380Y-81772047D01*
X99480666Y-81438714D01*
X98766380Y-81105380D01*
X99766380Y-81105380D01*
X99766380Y-80629190D02*
X98766380Y-80629190D01*
X98766380Y-80248238D01*
X98814000Y-80153000D01*
X98861619Y-80105380D01*
X98956857Y-80057761D01*
X99099714Y-80057761D01*
X99194952Y-80105380D01*
X99242571Y-80153000D01*
X99290190Y-80248238D01*
X99290190Y-80629190D01*
X99385428Y-79629190D02*
X99385428Y-78867285D01*
%TO.C,R5*%
X69056333Y-76525380D02*
X68484904Y-76525380D01*
X68770619Y-76525380D02*
X68770619Y-75525380D01*
X68675380Y-75668238D01*
X68580142Y-75763476D01*
X68484904Y-75811095D01*
X69675380Y-75525380D02*
X69770619Y-75525380D01*
X69865857Y-75573000D01*
X69913476Y-75620619D01*
X69961095Y-75715857D01*
X70008714Y-75906333D01*
X70008714Y-76144428D01*
X69961095Y-76334904D01*
X69913476Y-76430142D01*
X69865857Y-76477761D01*
X69770619Y-76525380D01*
X69675380Y-76525380D01*
X69580142Y-76477761D01*
X69532523Y-76430142D01*
X69484904Y-76334904D01*
X69437285Y-76144428D01*
X69437285Y-75906333D01*
X69484904Y-75715857D01*
X69532523Y-75620619D01*
X69580142Y-75573000D01*
X69675380Y-75525380D01*
X70627761Y-75525380D02*
X70723000Y-75525380D01*
X70818238Y-75573000D01*
X70865857Y-75620619D01*
X70913476Y-75715857D01*
X70961095Y-75906333D01*
X70961095Y-76144428D01*
X70913476Y-76334904D01*
X70865857Y-76430142D01*
X70818238Y-76477761D01*
X70723000Y-76525380D01*
X70627761Y-76525380D01*
X70532523Y-76477761D01*
X70484904Y-76430142D01*
X70437285Y-76334904D01*
X70389666Y-76144428D01*
X70389666Y-75906333D01*
X70437285Y-75715857D01*
X70484904Y-75620619D01*
X70532523Y-75573000D01*
X70627761Y-75525380D01*
%TO.C,R6*%
X111323380Y-74763285D02*
X111323380Y-75334714D01*
X111323380Y-75049000D02*
X110323380Y-75049000D01*
X110466238Y-75144238D01*
X110561476Y-75239476D01*
X110609095Y-75334714D01*
X111323380Y-74334714D02*
X110323380Y-74334714D01*
X111323380Y-73763285D02*
X110751952Y-74191857D01*
X110323380Y-73763285D02*
X110894809Y-74334714D01*
%TO.C,R7*%
X86685523Y-85415380D02*
X86114095Y-85415380D01*
X86399809Y-85415380D02*
X86399809Y-84415380D01*
X86304571Y-84558238D01*
X86209333Y-84653476D01*
X86114095Y-84701095D01*
X87304571Y-84415380D02*
X87399809Y-84415380D01*
X87495047Y-84463000D01*
X87542666Y-84510619D01*
X87590285Y-84605857D01*
X87637904Y-84796333D01*
X87637904Y-85034428D01*
X87590285Y-85224904D01*
X87542666Y-85320142D01*
X87495047Y-85367761D01*
X87399809Y-85415380D01*
X87304571Y-85415380D01*
X87209333Y-85367761D01*
X87161714Y-85320142D01*
X87114095Y-85224904D01*
X87066476Y-85034428D01*
X87066476Y-84796333D01*
X87114095Y-84605857D01*
X87161714Y-84510619D01*
X87209333Y-84463000D01*
X87304571Y-84415380D01*
X88066476Y-85415380D02*
X88066476Y-84415380D01*
X88637904Y-85415380D02*
X88209333Y-84843952D01*
X88637904Y-84415380D02*
X88066476Y-84986809D01*
%TO.C,Vreg1*%
X74747380Y-86177238D02*
X74747380Y-86653428D01*
X73747380Y-86653428D01*
X73747380Y-85939142D02*
X73747380Y-85272476D01*
X74747380Y-85701047D01*
X74175952Y-84748666D02*
X74128333Y-84843904D01*
X74080714Y-84891523D01*
X73985476Y-84939142D01*
X73937857Y-84939142D01*
X73842619Y-84891523D01*
X73795000Y-84843904D01*
X73747380Y-84748666D01*
X73747380Y-84558190D01*
X73795000Y-84462952D01*
X73842619Y-84415333D01*
X73937857Y-84367714D01*
X73985476Y-84367714D01*
X74080714Y-84415333D01*
X74128333Y-84462952D01*
X74175952Y-84558190D01*
X74175952Y-84748666D01*
X74223571Y-84843904D01*
X74271190Y-84891523D01*
X74366428Y-84939142D01*
X74556904Y-84939142D01*
X74652142Y-84891523D01*
X74699761Y-84843904D01*
X74747380Y-84748666D01*
X74747380Y-84558190D01*
X74699761Y-84462952D01*
X74652142Y-84415333D01*
X74556904Y-84367714D01*
X74366428Y-84367714D01*
X74271190Y-84415333D01*
X74223571Y-84462952D01*
X74175952Y-84558190D01*
X73747380Y-83748666D02*
X73747380Y-83653428D01*
X73795000Y-83558190D01*
X73842619Y-83510571D01*
X73937857Y-83462952D01*
X74128333Y-83415333D01*
X74366428Y-83415333D01*
X74556904Y-83462952D01*
X74652142Y-83510571D01*
X74699761Y-83558190D01*
X74747380Y-83653428D01*
X74747380Y-83748666D01*
X74699761Y-83843904D01*
X74652142Y-83891523D01*
X74556904Y-83939142D01*
X74366428Y-83986761D01*
X74128333Y-83986761D01*
X73937857Y-83939142D01*
X73842619Y-83891523D01*
X73795000Y-83843904D01*
X73747380Y-83748666D01*
X73747380Y-82510571D02*
X73747380Y-82986761D01*
X74223571Y-83034380D01*
X74175952Y-82986761D01*
X74128333Y-82891523D01*
X74128333Y-82653428D01*
X74175952Y-82558190D01*
X74223571Y-82510571D01*
X74318809Y-82462952D01*
X74556904Y-82462952D01*
X74652142Y-82510571D01*
X74699761Y-82558190D01*
X74747380Y-82653428D01*
X74747380Y-82891523D01*
X74699761Y-82986761D01*
X74652142Y-83034380D01*
%TO.C,R4*%
X80613333Y-72588380D02*
X80041904Y-72588380D01*
X80327619Y-72588380D02*
X80327619Y-71588380D01*
X80232380Y-71731238D01*
X80137142Y-71826476D01*
X80041904Y-71874095D01*
X81232380Y-71588380D02*
X81327619Y-71588380D01*
X81422857Y-71636000D01*
X81470476Y-71683619D01*
X81518095Y-71778857D01*
X81565714Y-71969333D01*
X81565714Y-72207428D01*
X81518095Y-72397904D01*
X81470476Y-72493142D01*
X81422857Y-72540761D01*
X81327619Y-72588380D01*
X81232380Y-72588380D01*
X81137142Y-72540761D01*
X81089523Y-72493142D01*
X81041904Y-72397904D01*
X80994285Y-72207428D01*
X80994285Y-71969333D01*
X81041904Y-71778857D01*
X81089523Y-71683619D01*
X81137142Y-71636000D01*
X81232380Y-71588380D01*
X82184761Y-71588380D02*
X82280000Y-71588380D01*
X82375238Y-71636000D01*
X82422857Y-71683619D01*
X82470476Y-71778857D01*
X82518095Y-71969333D01*
X82518095Y-72207428D01*
X82470476Y-72397904D01*
X82422857Y-72493142D01*
X82375238Y-72540761D01*
X82280000Y-72588380D01*
X82184761Y-72588380D01*
X82089523Y-72540761D01*
X82041904Y-72493142D01*
X81994285Y-72397904D01*
X81946666Y-72207428D01*
X81946666Y-71969333D01*
X81994285Y-71778857D01*
X82041904Y-71683619D01*
X82089523Y-71636000D01*
X82184761Y-71588380D01*
%TO.C,R2*%
X80843523Y-76525380D02*
X80272095Y-76525380D01*
X80557809Y-76525380D02*
X80557809Y-75525380D01*
X80462571Y-75668238D01*
X80367333Y-75763476D01*
X80272095Y-75811095D01*
X81462571Y-75525380D02*
X81557809Y-75525380D01*
X81653047Y-75573000D01*
X81700666Y-75620619D01*
X81748285Y-75715857D01*
X81795904Y-75906333D01*
X81795904Y-76144428D01*
X81748285Y-76334904D01*
X81700666Y-76430142D01*
X81653047Y-76477761D01*
X81557809Y-76525380D01*
X81462571Y-76525380D01*
X81367333Y-76477761D01*
X81319714Y-76430142D01*
X81272095Y-76334904D01*
X81224476Y-76144428D01*
X81224476Y-75906333D01*
X81272095Y-75715857D01*
X81319714Y-75620619D01*
X81367333Y-75573000D01*
X81462571Y-75525380D01*
X82224476Y-76525380D02*
X82224476Y-75525380D01*
X82795904Y-76525380D02*
X82367333Y-75953952D01*
X82795904Y-75525380D02*
X82224476Y-76096809D01*
%TO.C,BTN1*%
X98766380Y-76723571D02*
X98766380Y-76152142D01*
X99766380Y-76437857D02*
X98766380Y-76437857D01*
X99242571Y-75818809D02*
X99242571Y-75485476D01*
X99766380Y-75342619D02*
X99766380Y-75818809D01*
X98766380Y-75818809D01*
X98766380Y-75342619D01*
X99766380Y-74914047D02*
X98766380Y-74914047D01*
X99480666Y-74580714D01*
X98766380Y-74247380D01*
X99766380Y-74247380D01*
X99766380Y-73771190D02*
X98766380Y-73771190D01*
X98766380Y-73390238D01*
X98814000Y-73295000D01*
X98861619Y-73247380D01*
X98956857Y-73199761D01*
X99099714Y-73199761D01*
X99194952Y-73247380D01*
X99242571Y-73295000D01*
X99290190Y-73390238D01*
X99290190Y-73771190D01*
X99385428Y-72771190D02*
X99385428Y-72009285D01*
X99766380Y-72390238D02*
X99004476Y-72390238D01*
%TO.C,Q1*%
X108021380Y-90510952D02*
X107021380Y-90510952D01*
X108021380Y-89463333D02*
X107545190Y-89796666D01*
X108021380Y-90034761D02*
X107021380Y-90034761D01*
X107021380Y-89653809D01*
X107069000Y-89558571D01*
X107116619Y-89510952D01*
X107211857Y-89463333D01*
X107354714Y-89463333D01*
X107449952Y-89510952D01*
X107497571Y-89558571D01*
X107545190Y-89653809D01*
X107545190Y-90034761D01*
X107497571Y-88701428D02*
X107497571Y-89034761D01*
X108021380Y-89034761D02*
X107021380Y-89034761D01*
X107021380Y-88558571D01*
X107021380Y-87701428D02*
X107021380Y-88177619D01*
X107497571Y-88225238D01*
X107449952Y-88177619D01*
X107402333Y-88082380D01*
X107402333Y-87844285D01*
X107449952Y-87749047D01*
X107497571Y-87701428D01*
X107592809Y-87653809D01*
X107830904Y-87653809D01*
X107926142Y-87701428D01*
X107973761Y-87749047D01*
X108021380Y-87844285D01*
X108021380Y-88082380D01*
X107973761Y-88177619D01*
X107926142Y-88225238D01*
X107354714Y-86796666D02*
X108021380Y-86796666D01*
X106973761Y-87034761D02*
X107688047Y-87272857D01*
X107688047Y-86653809D01*
X107021380Y-86082380D02*
X107021380Y-85987142D01*
X107069000Y-85891904D01*
X107116619Y-85844285D01*
X107211857Y-85796666D01*
X107402333Y-85749047D01*
X107640428Y-85749047D01*
X107830904Y-85796666D01*
X107926142Y-85844285D01*
X107973761Y-85891904D01*
X108021380Y-85987142D01*
X108021380Y-86082380D01*
X107973761Y-86177619D01*
X107926142Y-86225238D01*
X107830904Y-86272857D01*
X107640428Y-86320476D01*
X107402333Y-86320476D01*
X107211857Y-86272857D01*
X107116619Y-86225238D01*
X107069000Y-86177619D01*
X107021380Y-86082380D01*
X108021380Y-85320476D02*
X107021380Y-85320476D01*
X108021380Y-84749047D01*
X107021380Y-84749047D01*
%TO.C,R3*%
X68572190Y-72175714D02*
X68572190Y-72842380D01*
X68334095Y-71794761D02*
X68096000Y-72509047D01*
X68715047Y-72509047D01*
X69096000Y-72747142D02*
X69143619Y-72794761D01*
X69096000Y-72842380D01*
X69048380Y-72794761D01*
X69096000Y-72747142D01*
X69096000Y-72842380D01*
X69476952Y-71842380D02*
X70143619Y-71842380D01*
X69715047Y-72842380D01*
X70524571Y-72842380D02*
X70524571Y-71842380D01*
X71096000Y-72842380D02*
X70667428Y-72270952D01*
X71096000Y-71842380D02*
X70524571Y-72413809D01*
%TO.C,J3*%
X65643476Y-79170380D02*
X65643476Y-78170380D01*
X65881571Y-78170380D01*
X66024428Y-78218000D01*
X66119666Y-78313238D01*
X66167285Y-78408476D01*
X66214904Y-78598952D01*
X66214904Y-78741809D01*
X66167285Y-78932285D01*
X66119666Y-79027523D01*
X66024428Y-79122761D01*
X65881571Y-79170380D01*
X65643476Y-79170380D01*
X67214904Y-79075142D02*
X67167285Y-79122761D01*
X67024428Y-79170380D01*
X66929190Y-79170380D01*
X66786333Y-79122761D01*
X66691095Y-79027523D01*
X66643476Y-78932285D01*
X66595857Y-78741809D01*
X66595857Y-78598952D01*
X66643476Y-78408476D01*
X66691095Y-78313238D01*
X66786333Y-78218000D01*
X66929190Y-78170380D01*
X67024428Y-78170380D01*
X67167285Y-78218000D01*
X67214904Y-78265619D01*
X67643476Y-78789428D02*
X68405380Y-78789428D01*
X69072047Y-78170380D02*
X69167285Y-78170380D01*
X69262523Y-78218000D01*
X69310142Y-78265619D01*
X69357761Y-78360857D01*
X69405380Y-78551333D01*
X69405380Y-78789428D01*
X69357761Y-78979904D01*
X69310142Y-79075142D01*
X69262523Y-79122761D01*
X69167285Y-79170380D01*
X69072047Y-79170380D01*
X68976809Y-79122761D01*
X68929190Y-79075142D01*
X68881571Y-78979904D01*
X68833952Y-78789428D01*
X68833952Y-78551333D01*
X68881571Y-78360857D01*
X68929190Y-78265619D01*
X68976809Y-78218000D01*
X69072047Y-78170380D01*
X70024428Y-78170380D02*
X70119666Y-78170380D01*
X70214904Y-78218000D01*
X70262523Y-78265619D01*
X70310142Y-78360857D01*
X70357761Y-78551333D01*
X70357761Y-78789428D01*
X70310142Y-78979904D01*
X70262523Y-79075142D01*
X70214904Y-79122761D01*
X70119666Y-79170380D01*
X70024428Y-79170380D01*
X69929190Y-79122761D01*
X69881571Y-79075142D01*
X69833952Y-78979904D01*
X69786333Y-78789428D01*
X69786333Y-78551333D01*
X69833952Y-78360857D01*
X69881571Y-78265619D01*
X69929190Y-78218000D01*
X70024428Y-78170380D01*
X71262523Y-78170380D02*
X70786333Y-78170380D01*
X70738714Y-78646571D01*
X70786333Y-78598952D01*
X70881571Y-78551333D01*
X71119666Y-78551333D01*
X71214904Y-78598952D01*
X71262523Y-78646571D01*
X71310142Y-78741809D01*
X71310142Y-78979904D01*
X71262523Y-79075142D01*
X71214904Y-79122761D01*
X71119666Y-79170380D01*
X70881571Y-79170380D01*
X70786333Y-79122761D01*
X70738714Y-79075142D01*
%TO.C,R1*%
X86812523Y-80716380D02*
X86241095Y-80716380D01*
X86526809Y-80716380D02*
X86526809Y-79716380D01*
X86431571Y-79859238D01*
X86336333Y-79954476D01*
X86241095Y-80002095D01*
X87431571Y-79716380D02*
X87526809Y-79716380D01*
X87622047Y-79764000D01*
X87669666Y-79811619D01*
X87717285Y-79906857D01*
X87764904Y-80097333D01*
X87764904Y-80335428D01*
X87717285Y-80525904D01*
X87669666Y-80621142D01*
X87622047Y-80668761D01*
X87526809Y-80716380D01*
X87431571Y-80716380D01*
X87336333Y-80668761D01*
X87288714Y-80621142D01*
X87241095Y-80525904D01*
X87193476Y-80335428D01*
X87193476Y-80097333D01*
X87241095Y-79906857D01*
X87288714Y-79811619D01*
X87336333Y-79764000D01*
X87431571Y-79716380D01*
X88193476Y-80716380D02*
X88193476Y-79716380D01*
X88764904Y-80716380D02*
X88336333Y-80144952D01*
X88764904Y-79716380D02*
X88193476Y-80287809D01*
D11*
%TO.C,C_LED1*%
X105938000Y-83460000D02*
X105938000Y-80370000D01*
X105938000Y-80370170D02*
G75*
G03*
X100388000Y-81915462I-2560000J-1544830D01*
G01*
X100388000Y-81914538D02*
G75*
G03*
X105938000Y-83459830I2990000J-462D01*
G01*
X105878000Y-81915000D02*
G75*
G03*
X105878000Y-81915000I-2500000J0D01*
G01*
%TO.C,SENSOR1*%
X61667000Y-75714000D02*
X61667000Y-72114000D01*
X57216999Y-73914000D02*
G75*
G03*
X61655478Y-75752478I2600001J0D01*
G01*
X61655478Y-72075522D02*
G75*
G03*
X57217000Y-73914000I-1838478J-1838478D01*
G01*
%TO.C,BTN2*%
X95292000Y-84368000D02*
X95292000Y-83038000D01*
X97952000Y-79168000D02*
X95292000Y-79168000D01*
X96622000Y-84368000D02*
X95292000Y-84368000D01*
X97952000Y-81768000D02*
X97952000Y-79168000D01*
X95292000Y-81768000D02*
X95292000Y-79168000D01*
X97952000Y-81768000D02*
X95292000Y-81768000D01*
%TO.C,R5*%
X72866000Y-77113000D02*
X72866000Y-77443000D01*
X66326000Y-77443000D02*
X66326000Y-77113000D01*
X72866000Y-75033000D02*
X72866000Y-74703000D01*
X72866000Y-77443000D02*
X66326000Y-77443000D01*
X72866000Y-74703000D02*
X66326000Y-74703000D01*
X66326000Y-74703000D02*
X66326000Y-75033000D01*
%TO.C,R6*%
X112241000Y-71279000D02*
X111911000Y-71279000D01*
X109501000Y-77819000D02*
X109501000Y-71279000D01*
X112241000Y-77819000D02*
X112241000Y-71279000D01*
X109501000Y-71279000D02*
X109831000Y-71279000D01*
X109831000Y-77819000D02*
X109501000Y-77819000D01*
X111911000Y-77819000D02*
X112241000Y-77819000D01*
%TO.C,R7*%
X90519000Y-86003000D02*
X90519000Y-86333000D01*
X83979000Y-83593000D02*
X83979000Y-83923000D01*
X90519000Y-83593000D02*
X83979000Y-83593000D01*
X83979000Y-86333000D02*
X83979000Y-86003000D01*
X90519000Y-83923000D02*
X90519000Y-83593000D01*
X90519000Y-86333000D02*
X83979000Y-86333000D01*
%TO.C,Vreg1*%
X75216000Y-79589000D02*
X79857000Y-79589000D01*
X75216000Y-86559000D02*
X76726000Y-86559000D01*
X75216000Y-89829000D02*
X79857000Y-89829000D01*
X76726000Y-89829000D02*
X76726000Y-79589000D01*
X75216000Y-82858000D02*
X76726000Y-82858000D01*
X75216000Y-89829000D02*
X75216000Y-79589000D01*
X79857000Y-89829000D02*
X79857000Y-79589000D01*
%TO.C,R4*%
X78010000Y-73633000D02*
X78010000Y-73303000D01*
X84550000Y-71223000D02*
X84550000Y-70893000D01*
X84550000Y-73633000D02*
X78010000Y-73633000D01*
X84550000Y-73303000D02*
X84550000Y-73633000D01*
X78010000Y-70893000D02*
X78010000Y-71223000D01*
X84550000Y-70893000D02*
X78010000Y-70893000D01*
%TO.C,R2*%
X78010000Y-77443000D02*
X78010000Y-77113000D01*
X84550000Y-77443000D02*
X78010000Y-77443000D01*
X84550000Y-74703000D02*
X78010000Y-74703000D01*
X84550000Y-77113000D02*
X84550000Y-77443000D01*
X84550000Y-75033000D02*
X84550000Y-74703000D01*
X78010000Y-74703000D02*
X78010000Y-75033000D01*
%TO.C,BTN1*%
X95419000Y-77129000D02*
X95419000Y-75799000D01*
X98079000Y-74529000D02*
X98079000Y-71929000D01*
X98079000Y-71929000D02*
X95419000Y-71929000D01*
X98079000Y-74529000D02*
X95419000Y-74529000D01*
X95419000Y-74529000D02*
X95419000Y-71929000D01*
X96749000Y-77129000D02*
X95419000Y-77129000D01*
%TO.C,Q1*%
X111559000Y-80478000D02*
X111559000Y-90718000D01*
X113069000Y-80478000D02*
X113069000Y-90718000D01*
X113069000Y-90718000D02*
X108428000Y-90718000D01*
X113069000Y-83748000D02*
X111559000Y-83748000D01*
X108428000Y-80478000D02*
X108428000Y-90718000D01*
X113069000Y-80478000D02*
X108428000Y-80478000D01*
X113069000Y-87449000D02*
X111559000Y-87449000D01*
%TO.C,R3*%
X72866000Y-70893000D02*
X72866000Y-71223000D01*
X72866000Y-73633000D02*
X72866000Y-73303000D01*
X66326000Y-71223000D02*
X66326000Y-70893000D01*
X66326000Y-70893000D02*
X72866000Y-70893000D01*
X66326000Y-73303000D02*
X66326000Y-73633000D01*
X66326000Y-73633000D02*
X72866000Y-73633000D01*
D12*
%TO.C,J3*%
X71693000Y-86628000D02*
X71693000Y-88828000D01*
X71693000Y-79828000D02*
X71693000Y-82028000D01*
X65993000Y-88828000D02*
X57393000Y-88828000D01*
X57393000Y-79828000D02*
X71693000Y-79828000D01*
X57393000Y-88828000D02*
X57393000Y-79828000D01*
X71693000Y-88828000D02*
X70793000Y-88828000D01*
D11*
%TO.C,P_LED1*%
X105938000Y-75586000D02*
X105938000Y-72496000D01*
X105938000Y-72496170D02*
G75*
G03*
X100388000Y-74041462I-2560000J-1544830D01*
G01*
X100388000Y-74040538D02*
G75*
G03*
X105938000Y-75585830I2990000J-462D01*
G01*
X105878000Y-74041000D02*
G75*
G03*
X105878000Y-74041000I-2500000J0D01*
G01*
%TO.C,R1*%
X90773000Y-81634000D02*
X84233000Y-81634000D01*
X90773000Y-81304000D02*
X90773000Y-81634000D01*
X90773000Y-78894000D02*
X84233000Y-78894000D01*
X84233000Y-78894000D02*
X84233000Y-79224000D01*
X84233000Y-81634000D02*
X84233000Y-81304000D01*
X90773000Y-79224000D02*
X90773000Y-78894000D01*
%TD*%
M02*
