%TF.GenerationSoftware,KiCad,Pcbnew,(6.0.2)*%
%TF.CreationDate,2022-03-19T12:25:46-03:00*%
%TF.ProjectId,ThermalControl,54686572-6d61-46c4-936f-6e74726f6c2e,rev?*%
%TF.SameCoordinates,Original*%
%TF.FileFunction,Soldermask,Bot*%
%TF.FilePolarity,Negative*%
%FSLAX46Y46*%
G04 Gerber Fmt 4.6, Leading zero omitted, Abs format (unit mm)*
G04 Created by KiCad (PCBNEW (6.0.2)) date 2022-03-19 12:25:46*
%MOMM*%
%LPD*%
G01*
G04 APERTURE LIST*
%ADD10R,1.270000X1.270000*%
%ADD11C,1.270000*%
%ADD12O,2.000000X1.905000*%
%ADD13R,2.000000X1.905000*%
%ADD14R,1.524000X1.524000*%
%ADD15C,1.524000*%
%ADD16R,1.500000X1.050000*%
%ADD17O,1.500000X1.050000*%
%ADD18C,1.600000*%
%ADD19O,1.600000X1.600000*%
%ADD20C,1.800000*%
%ADD21R,1.800000X1.800000*%
%ADD22R,1.000000X1.000000*%
%ADD23O,4.700000X2.350000*%
%ADD24O,2.000000X4.000000*%
%ADD25R,1.600000X1.600000*%
%ADD26R,1.700000X1.700000*%
%ADD27O,1.700000X1.700000*%
G04 APERTURE END LIST*
D10*
%TO.C,U1*%
X63500000Y-45720000D03*
D11*
X66040000Y-45720000D03*
X68580000Y-45720000D03*
X71120000Y-45720000D03*
X73660000Y-45720000D03*
X76200000Y-45720000D03*
X78740000Y-45720000D03*
X81280000Y-45720000D03*
X83820000Y-45720000D03*
X86360000Y-45720000D03*
X88900000Y-45720000D03*
X91440000Y-45720000D03*
X93980000Y-45720000D03*
X96520000Y-45720000D03*
X99060000Y-45720000D03*
D10*
X63500000Y-68580000D03*
D11*
X66040000Y-68580000D03*
X68580000Y-68580000D03*
X71120000Y-68580000D03*
X73660000Y-68580000D03*
X76200000Y-68580000D03*
X78740000Y-68580000D03*
X81280000Y-68580000D03*
X83820000Y-68580000D03*
X86360000Y-68580000D03*
X88900000Y-68580000D03*
X91440000Y-68580000D03*
X93980000Y-68580000D03*
X96520000Y-68580000D03*
X99060000Y-68580000D03*
%TD*%
D12*
%TO.C,Vreg1*%
X78486000Y-82169000D03*
X78486000Y-84709000D03*
D13*
X78486000Y-87249000D03*
%TD*%
D14*
%TO.C,U2*%
X84582000Y-88773000D03*
D15*
X87122000Y-88773000D03*
X89662000Y-88773000D03*
%TD*%
D16*
%TO.C,SENSOR1*%
X59817000Y-75184000D03*
D17*
X59817000Y-73914000D03*
X59817000Y-72644000D03*
%TD*%
D18*
%TO.C,R5*%
X73406000Y-76073000D03*
D19*
X65786000Y-76073000D03*
%TD*%
D18*
%TO.C,R4*%
X85090000Y-72263000D03*
D19*
X77470000Y-72263000D03*
%TD*%
%TO.C,R3*%
X73406000Y-72263000D03*
D18*
X65786000Y-72263000D03*
%TD*%
%TO.C,R2*%
X85090000Y-76073000D03*
D19*
X77470000Y-76073000D03*
%TD*%
D18*
%TO.C,R1*%
X91313000Y-80264000D03*
D19*
X83693000Y-80264000D03*
%TD*%
D20*
%TO.C,P_LED1*%
X102108000Y-74041000D03*
D21*
X104648000Y-74041000D03*
%TD*%
D22*
%TO.C,J4*%
X94996000Y-88773000D03*
%TD*%
D23*
%TO.C,J3*%
X68393000Y-89128000D03*
D24*
X64893000Y-84328000D03*
X70893000Y-84328000D03*
%TD*%
D22*
%TO.C,J2*%
X105156000Y-88773000D03*
%TD*%
%TO.C,J1*%
X100076000Y-88773000D03*
%TD*%
D21*
%TO.C,C_LED1*%
X104648000Y-81915000D03*
D20*
X102108000Y-81915000D03*
%TD*%
D25*
%TO.C,C2*%
X91440000Y-74295000D03*
D18*
X88940000Y-74295000D03*
%TD*%
%TO.C,C1*%
X84749000Y-84709000D03*
X89749000Y-84709000D03*
%TD*%
D26*
%TO.C,BTN2*%
X96622000Y-83038000D03*
D27*
X96622000Y-80498000D03*
%TD*%
D26*
%TO.C,BTN1*%
X96749000Y-75799000D03*
D27*
X96749000Y-73259000D03*
%TD*%
M02*
