%TF.GenerationSoftware,KiCad,Pcbnew,(6.0.2)*%
%TF.CreationDate,2022-03-19T19:34:23-03:00*%
%TF.ProjectId,ThermalControl,54686572-6d61-46c4-936f-6e74726f6c2e,rev?*%
%TF.SameCoordinates,Original*%
%TF.FileFunction,Copper,L2,Bot*%
%TF.FilePolarity,Positive*%
%FSLAX46Y46*%
G04 Gerber Fmt 4.6, Leading zero omitted, Abs format (unit mm)*
G04 Created by KiCad (PCBNEW (6.0.2)) date 2022-03-19 19:34:23*
%MOMM*%
%LPD*%
G01*
G04 APERTURE LIST*
G04 Aperture macros list*
%AMRoundRect*
0 Rectangle with rounded corners*
0 $1 Rounding radius*
0 $2 $3 $4 $5 $6 $7 $8 $9 X,Y pos of 4 corners*
0 Add a 4 corners polygon primitive as box body*
4,1,4,$2,$3,$4,$5,$6,$7,$8,$9,$2,$3,0*
0 Add four circle primitives for the rounded corners*
1,1,$1+$1,$2,$3*
1,1,$1+$1,$4,$5*
1,1,$1+$1,$6,$7*
1,1,$1+$1,$8,$9*
0 Add four rect primitives between the rounded corners*
20,1,$1+$1,$2,$3,$4,$5,0*
20,1,$1+$1,$4,$5,$6,$7,0*
20,1,$1+$1,$6,$7,$8,$9,0*
20,1,$1+$1,$8,$9,$2,$3,0*%
G04 Aperture macros list end*
%TA.AperFunction,ComponentPad*%
%ADD10RoundRect,0.250001X0.899999X0.899999X-0.899999X0.899999X-0.899999X-0.899999X0.899999X-0.899999X0*%
%TD*%
%TA.AperFunction,ComponentPad*%
%ADD11C,2.300000*%
%TD*%
%TA.AperFunction,ComponentPad*%
%ADD12R,1.800000X1.800000*%
%TD*%
%TA.AperFunction,ComponentPad*%
%ADD13C,1.800000*%
%TD*%
%TA.AperFunction,ComponentPad*%
%ADD14R,1.270000X1.270000*%
%TD*%
%TA.AperFunction,ComponentPad*%
%ADD15C,1.270000*%
%TD*%
%TA.AperFunction,ComponentPad*%
%ADD16R,1.500000X1.050000*%
%TD*%
%TA.AperFunction,ComponentPad*%
%ADD17O,1.500000X1.050000*%
%TD*%
%TA.AperFunction,ComponentPad*%
%ADD18R,1.700000X1.700000*%
%TD*%
%TA.AperFunction,ComponentPad*%
%ADD19O,1.700000X1.700000*%
%TD*%
%TA.AperFunction,ComponentPad*%
%ADD20C,1.600000*%
%TD*%
%TA.AperFunction,ComponentPad*%
%ADD21O,1.600000X1.600000*%
%TD*%
%TA.AperFunction,ComponentPad*%
%ADD22R,2.000000X1.905000*%
%TD*%
%TA.AperFunction,ComponentPad*%
%ADD23O,2.000000X1.905000*%
%TD*%
%TA.AperFunction,ComponentPad*%
%ADD24O,4.700000X2.350000*%
%TD*%
%TA.AperFunction,ComponentPad*%
%ADD25O,2.000000X4.000000*%
%TD*%
%TA.AperFunction,Conductor*%
%ADD26C,0.500000*%
%TD*%
%TA.AperFunction,Conductor*%
%ADD27C,2.000000*%
%TD*%
G04 APERTURE END LIST*
D10*
%TO.P,J6,1,Pin_1*%
%TO.N,Net-(J4-Pad1)*%
X89268000Y-89027000D03*
D11*
%TO.P,J6,2,Pin_2*%
%TO.N,Net-(J3-Pad4)*%
X84468000Y-89027000D03*
%TD*%
D10*
%TO.P,J4,1,Pin_1*%
%TO.N,Net-(J4-Pad1)*%
X100330000Y-89027000D03*
D11*
%TO.P,J4,2,Pin_2*%
%TO.N,Net-(J3-Pad4)*%
X95530000Y-89027000D03*
%TD*%
D12*
%TO.P,C_LED1,1,K*%
%TO.N,Net-(C_LED1-Pad1)*%
X104648000Y-81915000D03*
D13*
%TO.P,C_LED1,2,A*%
%TO.N,Net-(C_LED1-Pad2)*%
X102108000Y-81915000D03*
%TD*%
D14*
%TO.P,U1,1,Vin*%
%TO.N,Net-(R3-Pad2)*%
X63500000Y-45720000D03*
D15*
%TO.P,U1,2,GND*%
%TO.N,GND*%
X66040000Y-45720000D03*
%TO.P,U1,3,RST*%
%TO.N,unconnected-(U1-Pad3)*%
X68580000Y-45720000D03*
%TO.P,U1,4,EN*%
%TO.N,unconnected-(U1-Pad4)*%
X71120000Y-45720000D03*
%TO.P,U1,5,3V3*%
%TO.N,unconnected-(U1-Pad5)*%
X73660000Y-45720000D03*
%TO.P,U1,6,GND*%
%TO.N,GND*%
X76200000Y-45720000D03*
%TO.P,U1,7,CLK*%
%TO.N,unconnected-(U1-Pad7)*%
X78740000Y-45720000D03*
%TO.P,U1,8,SD0*%
%TO.N,unconnected-(U1-Pad8)*%
X81280000Y-45720000D03*
%TO.P,U1,9,CMD*%
%TO.N,unconnected-(U1-Pad9)*%
X83820000Y-45720000D03*
%TO.P,U1,10,SD1*%
%TO.N,unconnected-(U1-Pad10)*%
X86360000Y-45720000D03*
%TO.P,U1,11,SD2*%
%TO.N,unconnected-(U1-Pad11)*%
X88900000Y-45720000D03*
%TO.P,U1,12,SD3*%
%TO.N,unconnected-(U1-Pad12)*%
X91440000Y-45720000D03*
%TO.P,U1,13,RSV*%
%TO.N,unconnected-(U1-Pad13)*%
X93980000Y-45720000D03*
%TO.P,U1,14,RSV*%
%TO.N,unconnected-(U1-Pad14)*%
X96520000Y-45720000D03*
%TO.P,U1,15,A0*%
%TO.N,unconnected-(U1-Pad15)*%
X99060000Y-45720000D03*
D14*
%TO.P,U1,16,3V3*%
%TO.N,unconnected-(U1-Pad16)*%
X63500000Y-68580000D03*
D15*
%TO.P,U1,17,GND*%
%TO.N,GND*%
X66040000Y-68580000D03*
%TO.P,U1,18,TX*%
%TO.N,unconnected-(U1-Pad18)*%
X68580000Y-68580000D03*
%TO.P,U1,19,RX*%
%TO.N,unconnected-(U1-Pad19)*%
X71120000Y-68580000D03*
%TO.P,U1,20,D8*%
%TO.N,unconnected-(U1-Pad20)*%
X73660000Y-68580000D03*
%TO.P,U1,21,D7*%
%TO.N,unconnected-(U1-Pad21)*%
X76200000Y-68580000D03*
%TO.P,U1,22,D6*%
%TO.N,unconnected-(U1-Pad22)*%
X78740000Y-68580000D03*
%TO.P,U1,23,D5*%
%TO.N,Net-(R6-Pad2)*%
X81280000Y-68580000D03*
%TO.P,U1,24,GND*%
%TO.N,GND*%
X83820000Y-68580000D03*
%TO.P,U1,25,3V3*%
%TO.N,unconnected-(U1-Pad25)*%
X86360000Y-68580000D03*
%TO.P,U1,26,D4*%
%TO.N,Net-(BTN2-Pad1)*%
X88900000Y-68580000D03*
%TO.P,U1,27,D3*%
%TO.N,Net-(BTN1-Pad1)*%
X91440000Y-68580000D03*
%TO.P,U1,28,D2*%
%TO.N,Net-(R3-Pad1)*%
X93980000Y-68580000D03*
%TO.P,U1,29,D1*%
%TO.N,Net-(C_LED1-Pad1)*%
X96520000Y-68580000D03*
%TO.P,U1,30,D0*%
%TO.N,Net-(P_LED1-Pad1)*%
X99060000Y-68580000D03*
%TD*%
D16*
%TO.P,SENSOR1,1,GND*%
%TO.N,GND*%
X59817000Y-75184000D03*
D17*
%TO.P,SENSOR1,2,DQ*%
%TO.N,Net-(R3-Pad1)*%
X59817000Y-73914000D03*
%TO.P,SENSOR1,3,VDD*%
%TO.N,Net-(R3-Pad2)*%
X59817000Y-72644000D03*
%TD*%
D18*
%TO.P,BTN2,1,Pin_1*%
%TO.N,Net-(BTN2-Pad1)*%
X96622000Y-83038000D03*
D19*
%TO.P,BTN2,2,Pin_2*%
%TO.N,Net-(BTN2-Pad2)*%
X96622000Y-80498000D03*
%TD*%
D20*
%TO.P,R5,1*%
%TO.N,Net-(P_LED1-Pad2)*%
X73406000Y-76073000D03*
D21*
%TO.P,R5,2*%
%TO.N,GND*%
X65786000Y-76073000D03*
%TD*%
D20*
%TO.P,R6,1*%
%TO.N,Net-(Q1-Pad1)*%
X110871000Y-78359000D03*
D21*
%TO.P,R6,2*%
%TO.N,Net-(R6-Pad2)*%
X110871000Y-70739000D03*
%TD*%
D20*
%TO.P,R7,1*%
%TO.N,Net-(Q1-Pad1)*%
X91059000Y-84963000D03*
D21*
%TO.P,R7,2*%
%TO.N,GND*%
X83439000Y-84963000D03*
%TD*%
D22*
%TO.P,Vreg1,1,IN*%
%TO.N,Net-(J3-Pad4)*%
X78486000Y-87249000D03*
D23*
%TO.P,Vreg1,2,GND*%
%TO.N,GND*%
X78486000Y-84709000D03*
%TO.P,Vreg1,3,OUT*%
%TO.N,Net-(R3-Pad2)*%
X78486000Y-82169000D03*
%TD*%
D20*
%TO.P,R4,1*%
%TO.N,Net-(C_LED1-Pad2)*%
X85090000Y-72263000D03*
D21*
%TO.P,R4,2*%
%TO.N,GND*%
X77470000Y-72263000D03*
%TD*%
D20*
%TO.P,R2,1*%
%TO.N,Net-(BTN2-Pad2)*%
X85090000Y-76073000D03*
D21*
%TO.P,R2,2*%
%TO.N,GND*%
X77470000Y-76073000D03*
%TD*%
D18*
%TO.P,BTN1,1,Pin_1*%
%TO.N,Net-(BTN1-Pad1)*%
X96749000Y-75799000D03*
D19*
%TO.P,BTN1,2,Pin_2*%
%TO.N,Net-(BTN1-Pad2)*%
X96749000Y-73259000D03*
%TD*%
D22*
%TO.P,Q1,1,G*%
%TO.N,Net-(Q1-Pad1)*%
X109799000Y-83058000D03*
D23*
%TO.P,Q1,2,D*%
%TO.N,Net-(J4-Pad1)*%
X109799000Y-85598000D03*
%TO.P,Q1,3,S*%
%TO.N,GND*%
X109799000Y-88138000D03*
%TD*%
D20*
%TO.P,R3,1*%
%TO.N,Net-(R3-Pad1)*%
X65786000Y-72263000D03*
D21*
%TO.P,R3,2*%
%TO.N,Net-(R3-Pad2)*%
X73406000Y-72263000D03*
%TD*%
D24*
%TO.P,J3,2*%
%TO.N,unconnected-(J3-Pad2)*%
X68393000Y-89128000D03*
D25*
%TO.P,J3,3*%
%TO.N,GND*%
X64893000Y-84328000D03*
%TO.P,J3,4*%
%TO.N,Net-(J3-Pad4)*%
X70893000Y-84328000D03*
%TD*%
D12*
%TO.P,P_LED1,1,K*%
%TO.N,Net-(P_LED1-Pad1)*%
X104648000Y-74041000D03*
D13*
%TO.P,P_LED1,2,A*%
%TO.N,Net-(P_LED1-Pad2)*%
X102108000Y-74041000D03*
%TD*%
D20*
%TO.P,R1,1*%
%TO.N,Net-(BTN1-Pad2)*%
X91313000Y-80264000D03*
D21*
%TO.P,R1,2*%
%TO.N,GND*%
X83693000Y-80264000D03*
%TD*%
D26*
%TO.N,Net-(BTN1-Pad1)*%
X96749000Y-75413000D02*
X91440000Y-70104000D01*
X96749000Y-75799000D02*
X96749000Y-75413000D01*
X91440000Y-70104000D02*
X91440000Y-68580000D01*
%TO.N,Net-(P_LED1-Pad2)*%
X94488000Y-74549000D02*
X92456000Y-72517000D01*
X86614000Y-72517000D02*
X84836000Y-74295000D01*
X75184000Y-74295000D02*
X73406000Y-76073000D01*
X84836000Y-74295000D02*
X75184000Y-74295000D01*
X102108000Y-74041000D02*
X98171000Y-77978000D01*
X96328978Y-77978000D02*
X94488000Y-76137022D01*
X98171000Y-77978000D02*
X96328978Y-77978000D01*
X92456000Y-72517000D02*
X86614000Y-72517000D01*
X94488000Y-76137022D02*
X94488000Y-74549000D01*
%TO.N,Net-(Q1-Pad1)*%
X107894000Y-84963000D02*
X91059000Y-84963000D01*
X109799000Y-83058000D02*
X107894000Y-84963000D01*
%TO.N,Net-(R6-Pad2)*%
X106807000Y-66675000D02*
X83185000Y-66675000D01*
X83185000Y-66675000D02*
X81280000Y-68580000D01*
X110871000Y-70739000D02*
X106807000Y-66675000D01*
D27*
%TO.N,Net-(J3-Pad4)*%
X70893000Y-83969000D02*
X70893000Y-83974000D01*
%TD*%
%TA.AperFunction,Conductor*%
%TO.N,GND*%
G36*
X113134455Y-43783002D02*
G01*
X113180948Y-43836658D01*
X113192334Y-43888671D01*
X113299674Y-84957525D01*
X113314962Y-90806479D01*
X113318893Y-92310682D01*
X113299069Y-92378854D01*
X113245535Y-92425487D01*
X113192932Y-92437011D01*
X94965340Y-92442470D01*
X58419165Y-92453416D01*
X58351038Y-92433434D01*
X58304529Y-92379793D01*
X58293127Y-92327745D01*
X58293083Y-92310682D01*
X58284533Y-89039633D01*
X65531860Y-89039633D01*
X65535044Y-89174762D01*
X65537579Y-89282315D01*
X65537894Y-89295697D01*
X65538728Y-89300401D01*
X65581385Y-89541089D01*
X65582592Y-89547901D01*
X65584129Y-89552428D01*
X65584129Y-89552429D01*
X65663385Y-89785911D01*
X65663388Y-89785918D01*
X65664924Y-89790443D01*
X65782995Y-90017741D01*
X65785811Y-90021596D01*
X65785815Y-90021602D01*
X65889016Y-90162865D01*
X65934090Y-90224563D01*
X65965331Y-90255968D01*
X66111355Y-90402760D01*
X66111360Y-90402764D01*
X66114729Y-90406151D01*
X66320758Y-90558326D01*
X66324996Y-90560556D01*
X66324998Y-90560557D01*
X66543198Y-90675358D01*
X66543205Y-90675361D01*
X66547434Y-90677586D01*
X66551950Y-90679145D01*
X66551956Y-90679148D01*
X66677020Y-90722333D01*
X66789541Y-90761187D01*
X66871850Y-90776219D01*
X67037536Y-90806479D01*
X67037542Y-90806480D01*
X67041508Y-90807204D01*
X67086004Y-90809536D01*
X67121809Y-90811413D01*
X67121825Y-90811413D01*
X67123477Y-90811500D01*
X69633124Y-90811500D01*
X69635503Y-90811319D01*
X69635504Y-90811319D01*
X69818630Y-90797389D01*
X69818635Y-90797388D01*
X69823397Y-90797026D01*
X69828051Y-90795947D01*
X69828053Y-90795947D01*
X70068253Y-90740272D01*
X70068252Y-90740272D01*
X70072917Y-90739191D01*
X70310817Y-90644278D01*
X70457027Y-90558326D01*
X70527496Y-90516900D01*
X70527499Y-90516898D01*
X70531624Y-90514473D01*
X70730255Y-90352761D01*
X70829795Y-90242791D01*
X70898930Y-90166412D01*
X70898933Y-90166408D01*
X70902140Y-90162865D01*
X70950474Y-90089703D01*
X71040687Y-89953147D01*
X71040688Y-89953145D01*
X71043324Y-89949155D01*
X71047781Y-89939488D01*
X71148552Y-89720900D01*
X71148553Y-89720896D01*
X71150558Y-89716548D01*
X71193175Y-89568412D01*
X71220052Y-89474990D01*
X71220053Y-89474986D01*
X71221373Y-89470397D01*
X71254140Y-89216367D01*
X71250088Y-89044410D01*
X71249678Y-89027000D01*
X82804372Y-89027000D01*
X82824854Y-89287249D01*
X82826008Y-89292056D01*
X82826009Y-89292062D01*
X82828375Y-89301915D01*
X82885796Y-89541089D01*
X82887689Y-89545660D01*
X82887690Y-89545662D01*
X82958474Y-89716548D01*
X82985697Y-89782271D01*
X83122097Y-90004856D01*
X83291637Y-90203363D01*
X83490144Y-90372903D01*
X83712729Y-90509303D01*
X83717299Y-90511196D01*
X83717303Y-90511198D01*
X83949338Y-90607310D01*
X83953911Y-90609204D01*
X84002495Y-90620868D01*
X84202938Y-90668991D01*
X84202944Y-90668992D01*
X84207751Y-90670146D01*
X84468000Y-90690628D01*
X84728249Y-90670146D01*
X84733056Y-90668992D01*
X84733062Y-90668991D01*
X84933505Y-90620868D01*
X84982089Y-90609204D01*
X84986662Y-90607310D01*
X85218697Y-90511198D01*
X85218701Y-90511196D01*
X85223271Y-90509303D01*
X85445856Y-90372903D01*
X85644363Y-90203363D01*
X85813903Y-90004856D01*
X85830728Y-89977400D01*
X87609500Y-89977400D01*
X87609837Y-89980646D01*
X87609837Y-89980650D01*
X87613686Y-90017741D01*
X87620474Y-90083165D01*
X87622655Y-90089701D01*
X87622655Y-90089703D01*
X87647064Y-90162865D01*
X87676450Y-90250945D01*
X87769522Y-90401348D01*
X87894697Y-90526305D01*
X87900927Y-90530145D01*
X87900928Y-90530146D01*
X88038090Y-90614694D01*
X88045262Y-90619115D01*
X88113806Y-90641850D01*
X88206611Y-90672632D01*
X88206613Y-90672632D01*
X88213139Y-90674797D01*
X88219975Y-90675497D01*
X88219978Y-90675498D01*
X88263031Y-90679909D01*
X88317600Y-90685500D01*
X90218400Y-90685500D01*
X90221646Y-90685163D01*
X90221650Y-90685163D01*
X90317307Y-90675238D01*
X90317311Y-90675237D01*
X90324165Y-90674526D01*
X90330701Y-90672345D01*
X90330703Y-90672345D01*
X90462805Y-90628272D01*
X90491945Y-90618550D01*
X90642348Y-90525478D01*
X90767305Y-90400303D01*
X90794748Y-90355783D01*
X90856275Y-90255968D01*
X90856276Y-90255966D01*
X90860115Y-90249738D01*
X90915797Y-90081861D01*
X90926500Y-89977400D01*
X90926500Y-89027000D01*
X93866372Y-89027000D01*
X93886854Y-89287249D01*
X93888008Y-89292056D01*
X93888009Y-89292062D01*
X93890375Y-89301915D01*
X93947796Y-89541089D01*
X93949689Y-89545660D01*
X93949690Y-89545662D01*
X94020474Y-89716548D01*
X94047697Y-89782271D01*
X94184097Y-90004856D01*
X94353637Y-90203363D01*
X94552144Y-90372903D01*
X94774729Y-90509303D01*
X94779299Y-90511196D01*
X94779303Y-90511198D01*
X95011338Y-90607310D01*
X95015911Y-90609204D01*
X95064495Y-90620868D01*
X95264938Y-90668991D01*
X95264944Y-90668992D01*
X95269751Y-90670146D01*
X95530000Y-90690628D01*
X95790249Y-90670146D01*
X95795056Y-90668992D01*
X95795062Y-90668991D01*
X95995505Y-90620868D01*
X96044089Y-90609204D01*
X96048662Y-90607310D01*
X96280697Y-90511198D01*
X96280701Y-90511196D01*
X96285271Y-90509303D01*
X96507856Y-90372903D01*
X96706363Y-90203363D01*
X96875903Y-90004856D01*
X96892728Y-89977400D01*
X98671500Y-89977400D01*
X98671837Y-89980646D01*
X98671837Y-89980650D01*
X98675686Y-90017741D01*
X98682474Y-90083165D01*
X98684655Y-90089701D01*
X98684655Y-90089703D01*
X98709064Y-90162865D01*
X98738450Y-90250945D01*
X98831522Y-90401348D01*
X98956697Y-90526305D01*
X98962927Y-90530145D01*
X98962928Y-90530146D01*
X99100090Y-90614694D01*
X99107262Y-90619115D01*
X99175806Y-90641850D01*
X99268611Y-90672632D01*
X99268613Y-90672632D01*
X99275139Y-90674797D01*
X99281975Y-90675497D01*
X99281978Y-90675498D01*
X99325031Y-90679909D01*
X99379600Y-90685500D01*
X101280400Y-90685500D01*
X101283646Y-90685163D01*
X101283650Y-90685163D01*
X101379307Y-90675238D01*
X101379311Y-90675237D01*
X101386165Y-90674526D01*
X101392701Y-90672345D01*
X101392703Y-90672345D01*
X101524805Y-90628272D01*
X101553945Y-90618550D01*
X101704348Y-90525478D01*
X101829305Y-90400303D01*
X101856748Y-90355783D01*
X101918275Y-90255968D01*
X101918276Y-90255966D01*
X101922115Y-90249738D01*
X101977797Y-90081861D01*
X101988500Y-89977400D01*
X101988500Y-88410194D01*
X108315573Y-88410194D01*
X108325110Y-88472515D01*
X108327499Y-88482543D01*
X108398898Y-88700988D01*
X108402895Y-88710497D01*
X108509011Y-88914344D01*
X108514505Y-88923069D01*
X108652493Y-89106852D01*
X108659336Y-89114559D01*
X108825491Y-89273339D01*
X108833501Y-89279826D01*
X109023347Y-89409330D01*
X109032321Y-89414429D01*
X109240769Y-89511187D01*
X109250456Y-89514750D01*
X109471908Y-89576165D01*
X109482030Y-89578096D01*
X109526987Y-89582901D01*
X109541608Y-89580253D01*
X109544853Y-89568412D01*
X110053000Y-89568412D01*
X110057325Y-89583141D01*
X110069111Y-89585202D01*
X110080704Y-89584249D01*
X110090866Y-89582567D01*
X110313771Y-89526578D01*
X110323519Y-89523259D01*
X110534289Y-89431615D01*
X110543364Y-89426749D01*
X110736327Y-89301915D01*
X110744498Y-89295622D01*
X110914480Y-89140950D01*
X110921506Y-89133417D01*
X111063945Y-88953056D01*
X111069650Y-88944469D01*
X111180714Y-88743278D01*
X111184944Y-88733866D01*
X111261659Y-88517232D01*
X111264293Y-88507261D01*
X111281647Y-88409837D01*
X111280187Y-88396540D01*
X111265630Y-88392000D01*
X110071115Y-88392000D01*
X110055876Y-88396475D01*
X110054671Y-88397865D01*
X110053000Y-88405548D01*
X110053000Y-89568412D01*
X109544853Y-89568412D01*
X109545000Y-89567876D01*
X109545000Y-88410115D01*
X109540525Y-88394876D01*
X109539135Y-88393671D01*
X109531452Y-88392000D01*
X108330904Y-88392000D01*
X108317560Y-88395918D01*
X108315573Y-88410194D01*
X101988500Y-88410194D01*
X101988500Y-88076600D01*
X101977526Y-87970835D01*
X101948556Y-87884000D01*
X101923868Y-87810003D01*
X101921550Y-87803055D01*
X101828478Y-87652652D01*
X101785699Y-87609947D01*
X101708483Y-87532866D01*
X101703303Y-87527695D01*
X101697072Y-87523854D01*
X101558968Y-87438725D01*
X101558966Y-87438724D01*
X101552738Y-87434885D01*
X101402366Y-87385009D01*
X101391389Y-87381368D01*
X101391387Y-87381368D01*
X101384861Y-87379203D01*
X101378025Y-87378503D01*
X101378022Y-87378502D01*
X101334969Y-87374091D01*
X101280400Y-87368500D01*
X99379600Y-87368500D01*
X99376354Y-87368837D01*
X99376350Y-87368837D01*
X99280693Y-87378762D01*
X99280689Y-87378763D01*
X99273835Y-87379474D01*
X99267299Y-87381655D01*
X99267297Y-87381655D01*
X99135195Y-87425728D01*
X99106055Y-87435450D01*
X98955652Y-87528522D01*
X98830695Y-87653697D01*
X98826855Y-87659927D01*
X98826854Y-87659928D01*
X98774692Y-87744551D01*
X98737885Y-87804262D01*
X98682203Y-87972139D01*
X98671500Y-88076600D01*
X98671500Y-89977400D01*
X96892728Y-89977400D01*
X97012303Y-89782271D01*
X97039527Y-89716548D01*
X97110310Y-89545662D01*
X97110311Y-89545660D01*
X97112204Y-89541089D01*
X97169625Y-89301915D01*
X97171991Y-89292062D01*
X97171992Y-89292056D01*
X97173146Y-89287249D01*
X97193628Y-89027000D01*
X97173146Y-88766751D01*
X97171992Y-88761944D01*
X97171991Y-88761938D01*
X97113359Y-88517723D01*
X97112204Y-88512911D01*
X97099625Y-88482543D01*
X97014198Y-88276303D01*
X97014196Y-88276299D01*
X97012303Y-88271729D01*
X96875903Y-88049144D01*
X96706363Y-87850637D01*
X96507856Y-87681097D01*
X96285271Y-87544697D01*
X96280701Y-87542804D01*
X96280697Y-87542802D01*
X96048662Y-87446690D01*
X96048660Y-87446689D01*
X96044089Y-87444796D01*
X95955069Y-87423424D01*
X95795062Y-87385009D01*
X95795056Y-87385008D01*
X95790249Y-87383854D01*
X95530000Y-87363372D01*
X95269751Y-87383854D01*
X95264944Y-87385008D01*
X95264938Y-87385009D01*
X95104931Y-87423424D01*
X95015911Y-87444796D01*
X95011340Y-87446689D01*
X95011338Y-87446690D01*
X94779303Y-87542802D01*
X94779299Y-87542804D01*
X94774729Y-87544697D01*
X94552144Y-87681097D01*
X94353637Y-87850637D01*
X94184097Y-88049144D01*
X94047697Y-88271729D01*
X94045804Y-88276299D01*
X94045802Y-88276303D01*
X93960375Y-88482543D01*
X93947796Y-88512911D01*
X93946641Y-88517723D01*
X93888009Y-88761938D01*
X93888008Y-88761944D01*
X93886854Y-88766751D01*
X93866372Y-89027000D01*
X90926500Y-89027000D01*
X90926500Y-88076600D01*
X90915526Y-87970835D01*
X90886556Y-87884000D01*
X90861868Y-87810003D01*
X90859550Y-87803055D01*
X90766478Y-87652652D01*
X90723699Y-87609947D01*
X90646483Y-87532866D01*
X90641303Y-87527695D01*
X90635072Y-87523854D01*
X90496968Y-87438725D01*
X90496966Y-87438724D01*
X90490738Y-87434885D01*
X90340366Y-87385009D01*
X90329389Y-87381368D01*
X90329387Y-87381368D01*
X90322861Y-87379203D01*
X90316025Y-87378503D01*
X90316022Y-87378502D01*
X90272969Y-87374091D01*
X90218400Y-87368500D01*
X88317600Y-87368500D01*
X88314354Y-87368837D01*
X88314350Y-87368837D01*
X88218693Y-87378762D01*
X88218689Y-87378763D01*
X88211835Y-87379474D01*
X88205299Y-87381655D01*
X88205297Y-87381655D01*
X88073195Y-87425728D01*
X88044055Y-87435450D01*
X87893652Y-87528522D01*
X87768695Y-87653697D01*
X87764855Y-87659927D01*
X87764854Y-87659928D01*
X87712692Y-87744551D01*
X87675885Y-87804262D01*
X87620203Y-87972139D01*
X87609500Y-88076600D01*
X87609500Y-89977400D01*
X85830728Y-89977400D01*
X85950303Y-89782271D01*
X85977527Y-89716548D01*
X86048310Y-89545662D01*
X86048311Y-89545660D01*
X86050204Y-89541089D01*
X86107625Y-89301915D01*
X86109991Y-89292062D01*
X86109992Y-89292056D01*
X86111146Y-89287249D01*
X86131628Y-89027000D01*
X86111146Y-88766751D01*
X86109992Y-88761944D01*
X86109991Y-88761938D01*
X86051359Y-88517723D01*
X86050204Y-88512911D01*
X86037625Y-88482543D01*
X85952198Y-88276303D01*
X85952196Y-88276299D01*
X85950303Y-88271729D01*
X85813903Y-88049144D01*
X85644363Y-87850637D01*
X85445856Y-87681097D01*
X85223271Y-87544697D01*
X85218701Y-87542804D01*
X85218697Y-87542802D01*
X84986662Y-87446690D01*
X84986660Y-87446689D01*
X84982089Y-87444796D01*
X84893069Y-87423424D01*
X84733062Y-87385009D01*
X84733056Y-87385008D01*
X84728249Y-87383854D01*
X84468000Y-87363372D01*
X84207751Y-87383854D01*
X84202944Y-87385008D01*
X84202938Y-87385009D01*
X84042931Y-87423424D01*
X83953911Y-87444796D01*
X83949340Y-87446689D01*
X83949338Y-87446690D01*
X83717303Y-87542802D01*
X83717299Y-87542804D01*
X83712729Y-87544697D01*
X83490144Y-87681097D01*
X83291637Y-87850637D01*
X83122097Y-88049144D01*
X82985697Y-88271729D01*
X82983804Y-88276299D01*
X82983802Y-88276303D01*
X82898375Y-88482543D01*
X82885796Y-88512911D01*
X82884641Y-88517723D01*
X82826009Y-88761938D01*
X82826008Y-88761944D01*
X82824854Y-88766751D01*
X82804372Y-89027000D01*
X71249678Y-89027000D01*
X71248219Y-88965082D01*
X71248218Y-88965077D01*
X71248106Y-88960303D01*
X71203408Y-88708099D01*
X71156578Y-88570142D01*
X71122615Y-88470089D01*
X71122612Y-88470082D01*
X71121076Y-88465557D01*
X71008914Y-88249634D01*
X76977500Y-88249634D01*
X76984255Y-88311816D01*
X77035385Y-88448205D01*
X77122739Y-88564761D01*
X77239295Y-88652115D01*
X77375684Y-88703245D01*
X77437866Y-88710000D01*
X79534134Y-88710000D01*
X79596316Y-88703245D01*
X79732705Y-88652115D01*
X79849261Y-88564761D01*
X79936615Y-88448205D01*
X79987745Y-88311816D01*
X79994500Y-88249634D01*
X79994500Y-86248366D01*
X79987745Y-86186184D01*
X79936615Y-86049795D01*
X79849261Y-85933239D01*
X79732705Y-85845885D01*
X79712317Y-85838242D01*
X79655553Y-85795599D01*
X79630854Y-85729038D01*
X79646062Y-85659689D01*
X79657666Y-85642168D01*
X79750945Y-85524056D01*
X79756650Y-85515469D01*
X79867714Y-85314278D01*
X79871944Y-85304866D01*
X79898625Y-85229522D01*
X82156273Y-85229522D01*
X82203764Y-85406761D01*
X82207510Y-85417053D01*
X82299586Y-85614511D01*
X82305069Y-85624007D01*
X82430028Y-85802467D01*
X82437084Y-85810875D01*
X82591125Y-85964916D01*
X82599533Y-85971972D01*
X82777993Y-86096931D01*
X82787489Y-86102414D01*
X82984947Y-86194490D01*
X82995239Y-86198236D01*
X83167503Y-86244394D01*
X83181599Y-86244058D01*
X83185000Y-86236116D01*
X83185000Y-86230967D01*
X83693000Y-86230967D01*
X83696973Y-86244498D01*
X83705522Y-86245727D01*
X83882761Y-86198236D01*
X83893053Y-86194490D01*
X84090511Y-86102414D01*
X84100007Y-86096931D01*
X84278467Y-85971972D01*
X84286875Y-85964916D01*
X84440916Y-85810875D01*
X84447972Y-85802467D01*
X84572931Y-85624007D01*
X84578414Y-85614511D01*
X84670490Y-85417053D01*
X84674236Y-85406761D01*
X84720394Y-85234497D01*
X84720058Y-85220401D01*
X84712116Y-85217000D01*
X83711115Y-85217000D01*
X83695876Y-85221475D01*
X83694671Y-85222865D01*
X83693000Y-85230548D01*
X83693000Y-86230967D01*
X83185000Y-86230967D01*
X83185000Y-85235115D01*
X83180525Y-85219876D01*
X83179135Y-85218671D01*
X83171452Y-85217000D01*
X82171033Y-85217000D01*
X82157502Y-85220973D01*
X82156273Y-85229522D01*
X79898625Y-85229522D01*
X79948659Y-85088232D01*
X79951293Y-85078261D01*
X79968647Y-84980837D01*
X79967187Y-84967540D01*
X79952630Y-84963000D01*
X89745502Y-84963000D01*
X89765457Y-85191087D01*
X89766881Y-85196400D01*
X89766881Y-85196402D01*
X89819162Y-85391514D01*
X89824716Y-85412243D01*
X89827039Y-85417224D01*
X89827039Y-85417225D01*
X89919151Y-85614762D01*
X89919154Y-85614767D01*
X89921477Y-85619749D01*
X89990421Y-85718211D01*
X90048134Y-85800633D01*
X90052802Y-85807300D01*
X90214700Y-85969198D01*
X90219208Y-85972355D01*
X90219211Y-85972357D01*
X90293344Y-86024265D01*
X90402251Y-86100523D01*
X90407233Y-86102846D01*
X90407238Y-86102849D01*
X90603765Y-86194490D01*
X90609757Y-86197284D01*
X90615065Y-86198706D01*
X90615067Y-86198707D01*
X90825598Y-86255119D01*
X90825600Y-86255119D01*
X90830913Y-86256543D01*
X91059000Y-86276498D01*
X91287087Y-86256543D01*
X91292400Y-86255119D01*
X91292402Y-86255119D01*
X91502933Y-86198707D01*
X91502935Y-86198706D01*
X91508243Y-86197284D01*
X91514235Y-86194490D01*
X91710762Y-86102849D01*
X91710767Y-86102846D01*
X91715749Y-86100523D01*
X91824656Y-86024265D01*
X91898789Y-85972357D01*
X91898792Y-85972355D01*
X91903300Y-85969198D01*
X92065198Y-85807300D01*
X92087655Y-85775229D01*
X92143110Y-85730901D01*
X92190867Y-85721500D01*
X107826930Y-85721500D01*
X107845880Y-85722933D01*
X107860115Y-85725099D01*
X107860119Y-85725099D01*
X107867349Y-85726199D01*
X107874641Y-85725606D01*
X107874644Y-85725606D01*
X107920018Y-85721915D01*
X107930233Y-85721500D01*
X107938293Y-85721500D01*
X107951583Y-85719951D01*
X107966507Y-85718211D01*
X107970882Y-85717778D01*
X108036339Y-85712454D01*
X108036342Y-85712453D01*
X108043637Y-85711860D01*
X108050601Y-85709604D01*
X108056560Y-85708413D01*
X108062414Y-85707029D01*
X108069681Y-85706182D01*
X108076558Y-85703686D01*
X108076561Y-85703685D01*
X108134059Y-85682814D01*
X108204916Y-85678372D01*
X108266927Y-85712944D01*
X108301601Y-85782193D01*
X108304753Y-85802789D01*
X108325404Y-85937744D01*
X108353683Y-86024265D01*
X108398434Y-86161183D01*
X108398437Y-86161189D01*
X108400042Y-86166101D01*
X108402429Y-86170687D01*
X108402431Y-86170691D01*
X108446382Y-86255119D01*
X108510975Y-86379200D01*
X108655223Y-86571320D01*
X108658961Y-86574892D01*
X108784285Y-86694654D01*
X108828912Y-86737301D01*
X108866351Y-86762840D01*
X108911352Y-86817751D01*
X108919523Y-86888275D01*
X108888269Y-86952022D01*
X108863790Y-86972716D01*
X108861674Y-86974085D01*
X108853502Y-86980378D01*
X108683520Y-87135050D01*
X108676494Y-87142583D01*
X108534055Y-87322944D01*
X108528350Y-87331531D01*
X108417286Y-87532722D01*
X108413056Y-87542134D01*
X108336341Y-87758768D01*
X108333707Y-87768739D01*
X108316353Y-87866163D01*
X108317813Y-87879460D01*
X108332370Y-87884000D01*
X111267096Y-87884000D01*
X111280440Y-87880082D01*
X111282427Y-87865806D01*
X111272890Y-87803485D01*
X111270501Y-87793457D01*
X111199102Y-87575012D01*
X111195105Y-87565503D01*
X111088989Y-87361656D01*
X111083495Y-87352931D01*
X110945507Y-87169148D01*
X110938664Y-87161441D01*
X110772509Y-87002661D01*
X110764502Y-86996177D01*
X110731644Y-86973763D01*
X110686641Y-86918852D01*
X110678468Y-86848328D01*
X110709722Y-86784580D01*
X110734204Y-86763884D01*
X110736635Y-86762311D01*
X110740977Y-86759502D01*
X110918670Y-86597814D01*
X111059205Y-86419866D01*
X111064367Y-86413330D01*
X111064370Y-86413325D01*
X111067568Y-86409276D01*
X111081885Y-86383342D01*
X111181177Y-86203474D01*
X111181179Y-86203470D01*
X111183674Y-86198950D01*
X111203454Y-86143095D01*
X111262144Y-85977360D01*
X111262145Y-85977356D01*
X111263870Y-85972485D01*
X111265150Y-85965301D01*
X111305095Y-85741052D01*
X111305096Y-85741046D01*
X111306001Y-85735963D01*
X111308936Y-85495737D01*
X111272596Y-85258256D01*
X111205686Y-85053543D01*
X111199566Y-85034817D01*
X111199563Y-85034811D01*
X111197958Y-85029899D01*
X111165983Y-84968475D01*
X111089416Y-84821393D01*
X111087025Y-84816800D01*
X110970585Y-84661717D01*
X110945680Y-84595235D01*
X110960672Y-84525839D01*
X111010802Y-84475565D01*
X111027115Y-84468085D01*
X111037293Y-84464269D01*
X111037296Y-84464267D01*
X111045705Y-84461115D01*
X111162261Y-84373761D01*
X111249615Y-84257205D01*
X111300745Y-84120816D01*
X111307500Y-84058634D01*
X111307500Y-82057366D01*
X111300745Y-81995184D01*
X111249615Y-81858795D01*
X111162261Y-81742239D01*
X111045705Y-81654885D01*
X110909316Y-81603755D01*
X110847134Y-81597000D01*
X108750866Y-81597000D01*
X108688684Y-81603755D01*
X108552295Y-81654885D01*
X108435739Y-81742239D01*
X108348385Y-81858795D01*
X108297255Y-81995184D01*
X108290500Y-82057366D01*
X108290500Y-83441629D01*
X108270498Y-83509750D01*
X108253595Y-83530724D01*
X107616724Y-84167595D01*
X107554412Y-84201621D01*
X107527629Y-84204500D01*
X98078248Y-84204500D01*
X98010127Y-84184498D01*
X97963634Y-84130842D01*
X97953530Y-84060568D01*
X97960264Y-84034276D01*
X97973745Y-83998316D01*
X97980500Y-83936134D01*
X97980500Y-82139866D01*
X97973745Y-82077684D01*
X97922615Y-81941295D01*
X97877028Y-81880469D01*
X100695095Y-81880469D01*
X100695392Y-81885622D01*
X100695392Y-81885625D01*
X100705294Y-82057366D01*
X100708427Y-82111697D01*
X100709564Y-82116743D01*
X100709565Y-82116749D01*
X100717604Y-82152419D01*
X100759346Y-82337642D01*
X100761288Y-82342424D01*
X100761289Y-82342428D01*
X100827070Y-82504426D01*
X100846484Y-82552237D01*
X100967501Y-82749719D01*
X101119147Y-82924784D01*
X101297349Y-83072730D01*
X101497322Y-83189584D01*
X101713694Y-83272209D01*
X101718760Y-83273240D01*
X101718761Y-83273240D01*
X101771846Y-83284040D01*
X101940656Y-83318385D01*
X102070089Y-83323131D01*
X102166949Y-83326683D01*
X102166953Y-83326683D01*
X102172113Y-83326872D01*
X102177233Y-83326216D01*
X102177235Y-83326216D01*
X102251166Y-83316745D01*
X102401847Y-83297442D01*
X102406795Y-83295957D01*
X102406802Y-83295956D01*
X102618747Y-83232369D01*
X102623690Y-83230886D01*
X102643178Y-83221339D01*
X102827049Y-83131262D01*
X102827052Y-83131260D01*
X102831684Y-83128991D01*
X103020243Y-82994494D01*
X103065309Y-82949585D01*
X103127681Y-82915669D01*
X103198487Y-82920857D01*
X103255249Y-82963503D01*
X103272231Y-82994607D01*
X103297385Y-83061705D01*
X103384739Y-83178261D01*
X103501295Y-83265615D01*
X103637684Y-83316745D01*
X103699866Y-83323500D01*
X105596134Y-83323500D01*
X105658316Y-83316745D01*
X105794705Y-83265615D01*
X105911261Y-83178261D01*
X105998615Y-83061705D01*
X106049745Y-82925316D01*
X106056500Y-82863134D01*
X106056500Y-80966866D01*
X106049745Y-80904684D01*
X105998615Y-80768295D01*
X105911261Y-80651739D01*
X105794705Y-80564385D01*
X105658316Y-80513255D01*
X105596134Y-80506500D01*
X103699866Y-80506500D01*
X103637684Y-80513255D01*
X103501295Y-80564385D01*
X103384739Y-80651739D01*
X103297385Y-80768295D01*
X103294233Y-80776703D01*
X103294232Y-80776705D01*
X103273538Y-80831906D01*
X103230897Y-80888671D01*
X103164335Y-80913371D01*
X103094986Y-80898164D01*
X103072167Y-80881666D01*
X103071887Y-80881358D01*
X103009270Y-80831906D01*
X102894177Y-80741011D01*
X102894172Y-80741008D01*
X102890123Y-80737810D01*
X102885607Y-80735317D01*
X102885604Y-80735315D01*
X102691879Y-80628373D01*
X102691875Y-80628371D01*
X102687355Y-80625876D01*
X102682486Y-80624152D01*
X102682482Y-80624150D01*
X102473903Y-80550288D01*
X102473899Y-80550287D01*
X102469028Y-80548562D01*
X102463935Y-80547655D01*
X102463932Y-80547654D01*
X102246095Y-80508851D01*
X102246089Y-80508850D01*
X102241006Y-80507945D01*
X102168096Y-80507054D01*
X102014581Y-80505179D01*
X102014579Y-80505179D01*
X102009411Y-80505116D01*
X101780464Y-80540150D01*
X101560314Y-80612106D01*
X101555726Y-80614494D01*
X101555722Y-80614496D01*
X101375419Y-80708356D01*
X101354872Y-80719052D01*
X101350739Y-80722155D01*
X101350736Y-80722157D01*
X101173790Y-80855012D01*
X101169655Y-80858117D01*
X101105733Y-80925007D01*
X101023582Y-81010974D01*
X101009639Y-81025564D01*
X100879119Y-81216899D01*
X100781602Y-81426981D01*
X100719707Y-81650169D01*
X100695095Y-81880469D01*
X97877028Y-81880469D01*
X97835261Y-81824739D01*
X97718705Y-81737385D01*
X97706132Y-81732672D01*
X97600203Y-81692960D01*
X97543439Y-81650318D01*
X97518739Y-81583756D01*
X97533947Y-81514408D01*
X97555493Y-81485727D01*
X97656435Y-81385137D01*
X97660096Y-81381489D01*
X97719594Y-81298689D01*
X97787435Y-81204277D01*
X97790453Y-81200077D01*
X97838201Y-81103467D01*
X97887136Y-81004453D01*
X97887137Y-81004451D01*
X97889430Y-80999811D01*
X97954370Y-80786069D01*
X97983529Y-80564590D01*
X97983611Y-80561233D01*
X97985074Y-80501365D01*
X97985074Y-80501361D01*
X97985156Y-80498000D01*
X97966852Y-80275361D01*
X97912431Y-80058702D01*
X97823354Y-79853840D01*
X97702014Y-79666277D01*
X97551670Y-79501051D01*
X97547619Y-79497852D01*
X97547615Y-79497848D01*
X97380414Y-79365800D01*
X97380410Y-79365798D01*
X97376359Y-79362598D01*
X97180789Y-79254638D01*
X97175920Y-79252914D01*
X97175916Y-79252912D01*
X96975087Y-79181795D01*
X96975083Y-79181794D01*
X96970212Y-79180069D01*
X96965119Y-79179162D01*
X96965116Y-79179161D01*
X96755373Y-79141800D01*
X96755367Y-79141799D01*
X96750284Y-79140894D01*
X96676452Y-79139992D01*
X96532081Y-79138228D01*
X96532079Y-79138228D01*
X96526911Y-79138165D01*
X96306091Y-79171955D01*
X96093756Y-79241357D01*
X95895607Y-79344507D01*
X95891474Y-79347610D01*
X95891471Y-79347612D01*
X95795459Y-79419700D01*
X95716965Y-79478635D01*
X95713393Y-79482373D01*
X95594057Y-79607251D01*
X95562629Y-79640138D01*
X95559715Y-79644410D01*
X95559714Y-79644411D01*
X95474556Y-79769249D01*
X95436743Y-79824680D01*
X95421003Y-79858590D01*
X95350721Y-80010000D01*
X95342688Y-80027305D01*
X95282989Y-80242570D01*
X95259251Y-80464695D01*
X95259548Y-80469848D01*
X95259548Y-80469851D01*
X95267658Y-80610499D01*
X95272110Y-80687715D01*
X95273247Y-80692761D01*
X95273248Y-80692767D01*
X95292165Y-80776705D01*
X95321222Y-80905639D01*
X95405266Y-81112616D01*
X95521987Y-81303088D01*
X95668250Y-81471938D01*
X95672230Y-81475242D01*
X95676981Y-81479187D01*
X95716616Y-81538090D01*
X95718113Y-81609071D01*
X95680997Y-81669593D01*
X95640724Y-81694112D01*
X95525295Y-81737385D01*
X95408739Y-81824739D01*
X95321385Y-81941295D01*
X95270255Y-82077684D01*
X95263500Y-82139866D01*
X95263500Y-83936134D01*
X95270255Y-83998316D01*
X95283734Y-84034272D01*
X95288917Y-84105076D01*
X95254997Y-84167446D01*
X95192742Y-84201575D01*
X95165752Y-84204500D01*
X92190867Y-84204500D01*
X92122746Y-84184498D01*
X92087655Y-84150772D01*
X92065198Y-84118700D01*
X91903300Y-83956802D01*
X91898792Y-83953645D01*
X91898789Y-83953643D01*
X91813530Y-83893944D01*
X91715749Y-83825477D01*
X91710767Y-83823154D01*
X91710762Y-83823151D01*
X91513225Y-83731039D01*
X91513224Y-83731039D01*
X91508243Y-83728716D01*
X91502935Y-83727294D01*
X91502933Y-83727293D01*
X91292402Y-83670881D01*
X91292400Y-83670881D01*
X91287087Y-83669457D01*
X91059000Y-83649502D01*
X90830913Y-83669457D01*
X90825600Y-83670881D01*
X90825598Y-83670881D01*
X90615067Y-83727293D01*
X90615065Y-83727294D01*
X90609757Y-83728716D01*
X90604776Y-83731039D01*
X90604775Y-83731039D01*
X90407238Y-83823151D01*
X90407233Y-83823154D01*
X90402251Y-83825477D01*
X90304470Y-83893944D01*
X90219211Y-83953643D01*
X90219208Y-83953645D01*
X90214700Y-83956802D01*
X90052802Y-84118700D01*
X90049645Y-84123208D01*
X90049643Y-84123211D01*
X90018565Y-84167595D01*
X89921477Y-84306251D01*
X89919154Y-84311233D01*
X89919151Y-84311238D01*
X89849263Y-84461115D01*
X89824716Y-84513757D01*
X89823294Y-84519065D01*
X89823293Y-84519067D01*
X89775756Y-84696478D01*
X89765457Y-84734913D01*
X89745502Y-84963000D01*
X79952630Y-84963000D01*
X77017904Y-84963000D01*
X77004560Y-84966918D01*
X77002573Y-84981194D01*
X77012110Y-85043515D01*
X77014499Y-85053543D01*
X77085898Y-85271988D01*
X77089895Y-85281497D01*
X77196011Y-85485344D01*
X77201500Y-85494061D01*
X77314902Y-85645099D01*
X77339807Y-85711584D01*
X77324814Y-85780980D01*
X77274684Y-85831253D01*
X77258375Y-85838732D01*
X77239295Y-85845885D01*
X77122739Y-85933239D01*
X77035385Y-86049795D01*
X76984255Y-86186184D01*
X76977500Y-86248366D01*
X76977500Y-88249634D01*
X71008914Y-88249634D01*
X71003005Y-88238259D01*
X71000189Y-88234404D01*
X71000185Y-88234398D01*
X70854733Y-88035301D01*
X70854732Y-88035300D01*
X70851910Y-88031437D01*
X70761591Y-87940643D01*
X70674645Y-87853240D01*
X70674640Y-87853236D01*
X70671271Y-87849849D01*
X70618957Y-87811209D01*
X70547957Y-87758768D01*
X70465242Y-87697674D01*
X70439847Y-87684313D01*
X70242802Y-87580642D01*
X70242795Y-87580639D01*
X70238566Y-87578414D01*
X70234050Y-87576855D01*
X70234044Y-87576852D01*
X70106243Y-87532722D01*
X69996459Y-87494813D01*
X69914150Y-87479781D01*
X69748464Y-87449521D01*
X69748458Y-87449520D01*
X69744492Y-87448796D01*
X69699996Y-87446464D01*
X69664191Y-87444587D01*
X69664175Y-87444587D01*
X69662523Y-87444500D01*
X67152876Y-87444500D01*
X67150497Y-87444681D01*
X67150496Y-87444681D01*
X66967370Y-87458611D01*
X66967365Y-87458612D01*
X66962603Y-87458974D01*
X66957949Y-87460053D01*
X66957947Y-87460053D01*
X66763833Y-87505046D01*
X66713083Y-87516809D01*
X66475183Y-87611722D01*
X66471053Y-87614150D01*
X66324132Y-87700520D01*
X66254376Y-87741527D01*
X66055745Y-87903239D01*
X66052531Y-87906790D01*
X65887070Y-88089588D01*
X65887067Y-88089592D01*
X65883860Y-88093135D01*
X65881228Y-88097120D01*
X65881225Y-88097123D01*
X65765875Y-88271729D01*
X65742676Y-88306845D01*
X65740672Y-88311192D01*
X65645686Y-88517232D01*
X65635442Y-88539452D01*
X65634118Y-88544053D01*
X65634118Y-88544054D01*
X65570051Y-88766751D01*
X65564627Y-88785603D01*
X65531860Y-89039633D01*
X58284533Y-89039633D01*
X58274985Y-85386456D01*
X63385000Y-85386456D01*
X63385202Y-85391488D01*
X63399150Y-85564843D01*
X63400762Y-85574796D01*
X63456233Y-85800633D01*
X63459416Y-85810203D01*
X63550280Y-86024265D01*
X63554955Y-86033207D01*
X63678874Y-86229987D01*
X63684914Y-86238060D01*
X63838703Y-86412500D01*
X63845956Y-86419504D01*
X64025654Y-86567110D01*
X64033936Y-86572866D01*
X64234919Y-86689841D01*
X64244024Y-86694203D01*
X64461115Y-86777537D01*
X64470804Y-86780388D01*
X64621264Y-86811821D01*
X64635325Y-86810698D01*
X64639000Y-86800590D01*
X64639000Y-86798590D01*
X65147000Y-86798590D01*
X65151136Y-86812676D01*
X65164114Y-86814725D01*
X65181830Y-86812675D01*
X65191727Y-86810715D01*
X65415494Y-86747396D01*
X65424938Y-86743884D01*
X65635705Y-86645601D01*
X65644471Y-86640622D01*
X65836802Y-86509913D01*
X65844677Y-86503581D01*
X66013626Y-86343814D01*
X66020387Y-86336305D01*
X66161625Y-86151574D01*
X66167089Y-86143095D01*
X66276978Y-85938153D01*
X66281020Y-85928901D01*
X66356727Y-85709029D01*
X66359236Y-85699257D01*
X66399004Y-85469029D01*
X66399859Y-85461157D01*
X66400936Y-85437449D01*
X66401000Y-85434616D01*
X66401000Y-85389001D01*
X69384500Y-85389001D01*
X69384702Y-85391509D01*
X69384702Y-85391514D01*
X69398648Y-85564843D01*
X69399060Y-85569965D01*
X69400266Y-85574873D01*
X69400266Y-85574876D01*
X69455717Y-85800633D01*
X69456963Y-85805706D01*
X69458938Y-85810358D01*
X69458939Y-85810362D01*
X69511098Y-85933239D01*
X69551812Y-86029156D01*
X69554510Y-86033440D01*
X69678283Y-86229987D01*
X69681167Y-86234567D01*
X69689831Y-86244394D01*
X69838350Y-86412858D01*
X69838353Y-86412861D01*
X69841698Y-86416655D01*
X69845606Y-86419865D01*
X69845607Y-86419866D01*
X69955233Y-86509913D01*
X70029278Y-86570734D01*
X70068839Y-86593759D01*
X70233924Y-86689841D01*
X70239078Y-86692841D01*
X70243801Y-86694654D01*
X70460978Y-86778020D01*
X70460982Y-86778021D01*
X70465702Y-86779833D01*
X70470652Y-86780867D01*
X70470655Y-86780868D01*
X70698369Y-86828440D01*
X70698373Y-86828440D01*
X70703320Y-86829474D01*
X70945817Y-86840486D01*
X70950837Y-86839905D01*
X70950841Y-86839905D01*
X71181929Y-86813167D01*
X71181933Y-86813166D01*
X71186956Y-86812585D01*
X71191820Y-86811209D01*
X71191823Y-86811208D01*
X71415669Y-86747866D01*
X71415668Y-86747866D01*
X71420532Y-86746490D01*
X71425108Y-86744356D01*
X71425114Y-86744354D01*
X71635954Y-86646038D01*
X71635958Y-86646036D01*
X71640536Y-86643901D01*
X71841307Y-86507456D01*
X72017681Y-86340668D01*
X72067109Y-86276019D01*
X72162047Y-86151846D01*
X72162050Y-86151842D01*
X72165120Y-86147826D01*
X72189237Y-86102849D01*
X72277439Y-85938352D01*
X72279831Y-85933891D01*
X72358862Y-85704369D01*
X72391490Y-85515469D01*
X72399504Y-85469074D01*
X72399505Y-85469068D01*
X72400179Y-85465164D01*
X72401500Y-85436075D01*
X72401500Y-84691503D01*
X82157606Y-84691503D01*
X82157942Y-84705599D01*
X82165884Y-84709000D01*
X83166885Y-84709000D01*
X83182124Y-84704525D01*
X83183329Y-84703135D01*
X83185000Y-84695452D01*
X83185000Y-84690885D01*
X83693000Y-84690885D01*
X83697475Y-84706124D01*
X83698865Y-84707329D01*
X83706548Y-84709000D01*
X84706967Y-84709000D01*
X84720498Y-84705027D01*
X84721727Y-84696478D01*
X84674236Y-84519239D01*
X84670490Y-84508947D01*
X84578414Y-84311489D01*
X84572931Y-84301993D01*
X84447972Y-84123533D01*
X84440916Y-84115125D01*
X84286875Y-83961084D01*
X84278467Y-83954028D01*
X84100007Y-83829069D01*
X84090511Y-83823586D01*
X83893053Y-83731510D01*
X83882761Y-83727764D01*
X83710497Y-83681606D01*
X83696401Y-83681942D01*
X83693000Y-83689884D01*
X83693000Y-84690885D01*
X83185000Y-84690885D01*
X83185000Y-83695033D01*
X83181027Y-83681502D01*
X83172478Y-83680273D01*
X82995239Y-83727764D01*
X82984947Y-83731510D01*
X82787489Y-83823586D01*
X82777993Y-83829069D01*
X82599533Y-83954028D01*
X82591125Y-83961084D01*
X82437084Y-84115125D01*
X82430028Y-84123533D01*
X82305069Y-84301993D01*
X82299586Y-84311489D01*
X82207510Y-84508947D01*
X82203764Y-84519239D01*
X82157606Y-84691503D01*
X72401500Y-84691503D01*
X72401500Y-83266999D01*
X72398714Y-83232369D01*
X72387346Y-83091076D01*
X72387345Y-83091071D01*
X72386940Y-83086035D01*
X72378899Y-83053295D01*
X72330244Y-82855208D01*
X72329037Y-82850294D01*
X72320850Y-82831005D01*
X72236165Y-82631502D01*
X72234188Y-82626844D01*
X72156596Y-82503631D01*
X72107528Y-82425712D01*
X72107526Y-82425709D01*
X72104833Y-82421433D01*
X72015140Y-82319695D01*
X71972442Y-82271263D01*
X76976064Y-82271263D01*
X77012404Y-82508744D01*
X77026620Y-82552237D01*
X77085434Y-82732183D01*
X77085437Y-82732189D01*
X77087042Y-82737101D01*
X77089429Y-82741687D01*
X77089431Y-82741691D01*
X77182700Y-82920857D01*
X77197975Y-82950200D01*
X77201085Y-82954342D01*
X77303809Y-83091157D01*
X77342223Y-83142320D01*
X77397138Y-83194798D01*
X77465608Y-83260229D01*
X77515912Y-83308301D01*
X77553351Y-83333840D01*
X77598352Y-83388751D01*
X77606523Y-83459275D01*
X77575269Y-83523022D01*
X77550790Y-83543716D01*
X77548674Y-83545085D01*
X77540502Y-83551378D01*
X77370520Y-83706050D01*
X77363494Y-83713583D01*
X77221055Y-83893944D01*
X77215350Y-83902531D01*
X77104286Y-84103722D01*
X77100056Y-84113134D01*
X77023341Y-84329768D01*
X77020707Y-84339739D01*
X77003353Y-84437163D01*
X77004813Y-84450460D01*
X77019370Y-84455000D01*
X79954096Y-84455000D01*
X79967440Y-84451082D01*
X79969427Y-84436806D01*
X79959890Y-84374485D01*
X79957501Y-84364457D01*
X79886102Y-84146012D01*
X79882105Y-84136503D01*
X79775989Y-83932656D01*
X79770495Y-83923931D01*
X79632507Y-83740148D01*
X79625664Y-83732441D01*
X79459509Y-83573661D01*
X79451502Y-83567177D01*
X79418644Y-83544763D01*
X79373641Y-83489852D01*
X79365468Y-83419328D01*
X79396722Y-83355580D01*
X79421204Y-83334884D01*
X79423635Y-83333311D01*
X79427977Y-83330502D01*
X79605670Y-83168814D01*
X79679491Y-83075340D01*
X79751367Y-82984330D01*
X79751370Y-82984325D01*
X79754568Y-82980276D01*
X79763828Y-82963503D01*
X79868177Y-82774474D01*
X79868179Y-82774470D01*
X79870674Y-82769950D01*
X79877839Y-82749719D01*
X79949144Y-82548360D01*
X79949145Y-82548356D01*
X79950870Y-82543485D01*
X79956366Y-82512633D01*
X79992095Y-82312052D01*
X79992096Y-82312046D01*
X79993001Y-82306963D01*
X79995665Y-82088890D01*
X79995873Y-82071907D01*
X79995873Y-82071905D01*
X79995936Y-82066737D01*
X79959596Y-81829256D01*
X79922906Y-81717003D01*
X79886566Y-81605817D01*
X79886563Y-81605811D01*
X79884958Y-81600899D01*
X79872777Y-81577498D01*
X79776416Y-81392393D01*
X79774025Y-81387800D01*
X79710421Y-81303088D01*
X79632882Y-81199815D01*
X79632880Y-81199812D01*
X79629777Y-81195680D01*
X79456088Y-81029699D01*
X79296374Y-80920749D01*
X79261891Y-80897226D01*
X79261890Y-80897225D01*
X79257622Y-80894314D01*
X79252939Y-80892140D01*
X79252935Y-80892138D01*
X79044405Y-80795342D01*
X79044401Y-80795341D01*
X79039710Y-80793163D01*
X78808202Y-80728960D01*
X78803065Y-80728411D01*
X78615407Y-80708356D01*
X78615399Y-80708356D01*
X78612072Y-80708000D01*
X78377598Y-80708000D01*
X78375025Y-80708212D01*
X78375014Y-80708212D01*
X78274054Y-80716513D01*
X78199063Y-80722678D01*
X77966056Y-80781206D01*
X77837229Y-80837221D01*
X77750474Y-80874943D01*
X77750471Y-80874945D01*
X77745737Y-80877003D01*
X77671148Y-80925257D01*
X77548730Y-81004453D01*
X77544023Y-81007498D01*
X77366330Y-81169186D01*
X77342141Y-81199815D01*
X77220633Y-81353670D01*
X77220630Y-81353675D01*
X77217432Y-81357724D01*
X77214939Y-81362240D01*
X77214937Y-81362243D01*
X77103823Y-81563526D01*
X77101326Y-81568050D01*
X77099602Y-81572919D01*
X77099600Y-81572923D01*
X77037099Y-81749419D01*
X77021130Y-81794515D01*
X77020223Y-81799608D01*
X77020222Y-81799611D01*
X76990556Y-81966159D01*
X76978999Y-82031037D01*
X76978336Y-82085266D01*
X76976408Y-82243142D01*
X76976064Y-82271263D01*
X71972442Y-82271263D01*
X71947650Y-82243142D01*
X71947647Y-82243139D01*
X71944302Y-82239345D01*
X71837993Y-82152022D01*
X71760628Y-82088474D01*
X71760625Y-82088472D01*
X71756722Y-82085266D01*
X71589234Y-81987785D01*
X71551290Y-81965701D01*
X71551288Y-81965700D01*
X71546922Y-81963159D01*
X71489964Y-81941295D01*
X71325022Y-81877980D01*
X71325018Y-81877979D01*
X71320298Y-81876167D01*
X71315348Y-81875133D01*
X71315345Y-81875132D01*
X71087631Y-81827560D01*
X71087627Y-81827560D01*
X71082680Y-81826526D01*
X70840183Y-81815514D01*
X70835163Y-81816095D01*
X70835159Y-81816095D01*
X70604071Y-81842833D01*
X70604067Y-81842834D01*
X70599044Y-81843415D01*
X70594180Y-81844791D01*
X70594177Y-81844792D01*
X70483300Y-81876167D01*
X70365468Y-81909510D01*
X70360892Y-81911644D01*
X70360886Y-81911646D01*
X70150046Y-82009962D01*
X70150042Y-82009964D01*
X70145464Y-82012099D01*
X69944693Y-82148544D01*
X69768319Y-82315332D01*
X69765241Y-82319358D01*
X69765240Y-82319359D01*
X69623953Y-82504154D01*
X69623950Y-82504158D01*
X69620880Y-82508174D01*
X69506169Y-82722109D01*
X69427138Y-82951631D01*
X69419715Y-82994607D01*
X69387064Y-83183642D01*
X69385821Y-83190836D01*
X69384500Y-83219925D01*
X69384500Y-85389001D01*
X66401000Y-85389001D01*
X66401000Y-84600115D01*
X66396525Y-84584876D01*
X66395135Y-84583671D01*
X66387452Y-84582000D01*
X65165115Y-84582000D01*
X65149876Y-84586475D01*
X65148671Y-84587865D01*
X65147000Y-84595548D01*
X65147000Y-86798590D01*
X64639000Y-86798590D01*
X64639000Y-84600115D01*
X64634525Y-84584876D01*
X64633135Y-84583671D01*
X64625452Y-84582000D01*
X63403115Y-84582000D01*
X63387876Y-84586475D01*
X63386671Y-84587865D01*
X63385000Y-84595548D01*
X63385000Y-85386456D01*
X58274985Y-85386456D01*
X58271507Y-84055885D01*
X63385000Y-84055885D01*
X63389475Y-84071124D01*
X63390865Y-84072329D01*
X63398548Y-84074000D01*
X64620885Y-84074000D01*
X64636124Y-84069525D01*
X64637329Y-84068135D01*
X64639000Y-84060452D01*
X64639000Y-84055885D01*
X65147000Y-84055885D01*
X65151475Y-84071124D01*
X65152865Y-84072329D01*
X65160548Y-84074000D01*
X66382885Y-84074000D01*
X66398124Y-84069525D01*
X66399329Y-84068135D01*
X66401000Y-84060452D01*
X66401000Y-83269544D01*
X66400798Y-83264512D01*
X66386850Y-83091157D01*
X66385238Y-83081204D01*
X66329767Y-82855367D01*
X66326584Y-82845797D01*
X66235720Y-82631735D01*
X66231045Y-82622793D01*
X66107126Y-82426013D01*
X66101086Y-82417940D01*
X65947297Y-82243500D01*
X65940044Y-82236496D01*
X65760346Y-82088890D01*
X65752064Y-82083134D01*
X65551081Y-81966159D01*
X65541976Y-81961797D01*
X65324885Y-81878463D01*
X65315196Y-81875612D01*
X65164736Y-81844179D01*
X65150675Y-81845302D01*
X65147000Y-81855410D01*
X65147000Y-84055885D01*
X64639000Y-84055885D01*
X64639000Y-81857410D01*
X64634864Y-81843324D01*
X64621886Y-81841275D01*
X64604170Y-81843325D01*
X64594273Y-81845285D01*
X64370506Y-81908604D01*
X64361062Y-81912116D01*
X64150295Y-82010399D01*
X64141529Y-82015378D01*
X63949198Y-82146087D01*
X63941323Y-82152419D01*
X63772374Y-82312186D01*
X63765613Y-82319695D01*
X63624375Y-82504426D01*
X63618911Y-82512905D01*
X63509022Y-82717847D01*
X63504980Y-82727099D01*
X63429273Y-82946971D01*
X63426764Y-82956743D01*
X63386996Y-83186971D01*
X63386141Y-83194843D01*
X63385064Y-83218551D01*
X63385000Y-83221384D01*
X63385000Y-84055885D01*
X58271507Y-84055885D01*
X58262293Y-80530522D01*
X82410273Y-80530522D01*
X82457764Y-80707761D01*
X82461510Y-80718053D01*
X82553586Y-80915511D01*
X82559069Y-80925007D01*
X82684028Y-81103467D01*
X82691084Y-81111875D01*
X82845125Y-81265916D01*
X82853533Y-81272972D01*
X83031993Y-81397931D01*
X83041489Y-81403414D01*
X83238947Y-81495490D01*
X83249239Y-81499236D01*
X83421503Y-81545394D01*
X83435599Y-81545058D01*
X83439000Y-81537116D01*
X83439000Y-81531967D01*
X83947000Y-81531967D01*
X83950973Y-81545498D01*
X83959522Y-81546727D01*
X84136761Y-81499236D01*
X84147053Y-81495490D01*
X84344511Y-81403414D01*
X84354007Y-81397931D01*
X84532467Y-81272972D01*
X84540875Y-81265916D01*
X84694916Y-81111875D01*
X84701972Y-81103467D01*
X84826931Y-80925007D01*
X84832414Y-80915511D01*
X84924490Y-80718053D01*
X84928236Y-80707761D01*
X84974394Y-80535497D01*
X84974058Y-80521401D01*
X84966116Y-80518000D01*
X83965115Y-80518000D01*
X83949876Y-80522475D01*
X83948671Y-80523865D01*
X83947000Y-80531548D01*
X83947000Y-81531967D01*
X83439000Y-81531967D01*
X83439000Y-80536115D01*
X83434525Y-80520876D01*
X83433135Y-80519671D01*
X83425452Y-80518000D01*
X82425033Y-80518000D01*
X82411502Y-80521973D01*
X82410273Y-80530522D01*
X58262293Y-80530522D01*
X58261597Y-80264000D01*
X89999502Y-80264000D01*
X90019457Y-80492087D01*
X90020881Y-80497400D01*
X90020881Y-80497402D01*
X90052257Y-80614496D01*
X90078716Y-80713243D01*
X90081039Y-80718224D01*
X90081039Y-80718225D01*
X90173151Y-80915762D01*
X90173154Y-80915767D01*
X90175477Y-80920749D01*
X90306802Y-81108300D01*
X90468700Y-81270198D01*
X90473208Y-81273355D01*
X90473211Y-81273357D01*
X90521244Y-81306990D01*
X90656251Y-81401523D01*
X90661233Y-81403846D01*
X90661238Y-81403849D01*
X90822803Y-81479187D01*
X90863757Y-81498284D01*
X90869065Y-81499706D01*
X90869067Y-81499707D01*
X91079598Y-81556119D01*
X91079600Y-81556119D01*
X91084913Y-81557543D01*
X91313000Y-81577498D01*
X91541087Y-81557543D01*
X91546400Y-81556119D01*
X91546402Y-81556119D01*
X91756933Y-81499707D01*
X91756935Y-81499706D01*
X91762243Y-81498284D01*
X91803197Y-81479187D01*
X91964762Y-81403849D01*
X91964767Y-81403846D01*
X91969749Y-81401523D01*
X92104756Y-81306990D01*
X92152789Y-81273357D01*
X92152792Y-81273355D01*
X92157300Y-81270198D01*
X92319198Y-81108300D01*
X92450523Y-80920749D01*
X92452846Y-80915767D01*
X92452849Y-80915762D01*
X92544961Y-80718225D01*
X92544961Y-80718224D01*
X92547284Y-80713243D01*
X92573744Y-80614496D01*
X92605119Y-80497402D01*
X92605119Y-80497400D01*
X92606543Y-80492087D01*
X92626498Y-80264000D01*
X92606543Y-80035913D01*
X92605119Y-80030598D01*
X92548707Y-79820067D01*
X92548706Y-79820065D01*
X92547284Y-79814757D01*
X92480071Y-79670617D01*
X92452849Y-79612238D01*
X92452846Y-79612233D01*
X92450523Y-79607251D01*
X92319198Y-79419700D01*
X92157300Y-79257802D01*
X92152792Y-79254645D01*
X92152789Y-79254643D01*
X91991632Y-79141800D01*
X91969749Y-79126477D01*
X91964767Y-79124154D01*
X91964762Y-79124151D01*
X91767225Y-79032039D01*
X91767224Y-79032039D01*
X91762243Y-79029716D01*
X91756935Y-79028294D01*
X91756933Y-79028293D01*
X91546402Y-78971881D01*
X91546400Y-78971881D01*
X91541087Y-78970457D01*
X91313000Y-78950502D01*
X91084913Y-78970457D01*
X91079600Y-78971881D01*
X91079598Y-78971881D01*
X90869067Y-79028293D01*
X90869065Y-79028294D01*
X90863757Y-79029716D01*
X90858776Y-79032039D01*
X90858775Y-79032039D01*
X90661238Y-79124151D01*
X90661233Y-79124154D01*
X90656251Y-79126477D01*
X90634368Y-79141800D01*
X90473211Y-79254643D01*
X90473208Y-79254645D01*
X90468700Y-79257802D01*
X90306802Y-79419700D01*
X90175477Y-79607251D01*
X90173154Y-79612233D01*
X90173151Y-79612238D01*
X90145929Y-79670617D01*
X90078716Y-79814757D01*
X90077294Y-79820065D01*
X90077293Y-79820067D01*
X90020881Y-80030598D01*
X90019457Y-80035913D01*
X89999502Y-80264000D01*
X58261597Y-80264000D01*
X58260887Y-79992503D01*
X82411606Y-79992503D01*
X82411942Y-80006599D01*
X82419884Y-80010000D01*
X83420885Y-80010000D01*
X83436124Y-80005525D01*
X83437329Y-80004135D01*
X83439000Y-79996452D01*
X83439000Y-79991885D01*
X83947000Y-79991885D01*
X83951475Y-80007124D01*
X83952865Y-80008329D01*
X83960548Y-80010000D01*
X84960967Y-80010000D01*
X84974498Y-80006027D01*
X84975727Y-79997478D01*
X84928236Y-79820239D01*
X84924490Y-79809947D01*
X84832414Y-79612489D01*
X84826931Y-79602993D01*
X84701972Y-79424533D01*
X84694916Y-79416125D01*
X84540875Y-79262084D01*
X84532467Y-79255028D01*
X84354007Y-79130069D01*
X84344511Y-79124586D01*
X84147053Y-79032510D01*
X84136761Y-79028764D01*
X83964497Y-78982606D01*
X83950401Y-78982942D01*
X83947000Y-78990884D01*
X83947000Y-79991885D01*
X83439000Y-79991885D01*
X83439000Y-78996033D01*
X83435027Y-78982502D01*
X83426478Y-78981273D01*
X83249239Y-79028764D01*
X83238947Y-79032510D01*
X83041489Y-79124586D01*
X83031993Y-79130069D01*
X82853533Y-79255028D01*
X82845125Y-79262084D01*
X82691084Y-79416125D01*
X82684028Y-79424533D01*
X82559069Y-79602993D01*
X82553586Y-79612489D01*
X82461510Y-79809947D01*
X82457764Y-79820239D01*
X82411606Y-79992503D01*
X58260887Y-79992503D01*
X58251339Y-76339522D01*
X64503273Y-76339522D01*
X64550764Y-76516761D01*
X64554510Y-76527053D01*
X64646586Y-76724511D01*
X64652069Y-76734007D01*
X64777028Y-76912467D01*
X64784084Y-76920875D01*
X64938125Y-77074916D01*
X64946533Y-77081972D01*
X65124993Y-77206931D01*
X65134489Y-77212414D01*
X65331947Y-77304490D01*
X65342239Y-77308236D01*
X65514503Y-77354394D01*
X65528599Y-77354058D01*
X65532000Y-77346116D01*
X65532000Y-77340967D01*
X66040000Y-77340967D01*
X66043973Y-77354498D01*
X66052522Y-77355727D01*
X66229761Y-77308236D01*
X66240053Y-77304490D01*
X66437511Y-77212414D01*
X66447007Y-77206931D01*
X66625467Y-77081972D01*
X66633875Y-77074916D01*
X66787916Y-76920875D01*
X66794972Y-76912467D01*
X66919931Y-76734007D01*
X66925414Y-76724511D01*
X67017490Y-76527053D01*
X67021236Y-76516761D01*
X67067394Y-76344497D01*
X67067058Y-76330401D01*
X67059116Y-76327000D01*
X66058115Y-76327000D01*
X66042876Y-76331475D01*
X66041671Y-76332865D01*
X66040000Y-76340548D01*
X66040000Y-77340967D01*
X65532000Y-77340967D01*
X65532000Y-76345115D01*
X65527525Y-76329876D01*
X65526135Y-76328671D01*
X65518452Y-76327000D01*
X64518033Y-76327000D01*
X64504502Y-76330973D01*
X64503273Y-76339522D01*
X58251339Y-76339522D01*
X58249808Y-75753669D01*
X58559001Y-75753669D01*
X58559371Y-75760490D01*
X58564895Y-75811352D01*
X58568521Y-75826604D01*
X58613676Y-75947054D01*
X58622214Y-75962649D01*
X58698715Y-76064724D01*
X58711276Y-76077285D01*
X58813351Y-76153786D01*
X58828946Y-76162324D01*
X58949394Y-76207478D01*
X58964649Y-76211105D01*
X59015514Y-76216631D01*
X59022328Y-76217000D01*
X59544885Y-76217000D01*
X59560124Y-76212525D01*
X59561329Y-76211135D01*
X59563000Y-76203452D01*
X59563000Y-76198884D01*
X60071000Y-76198884D01*
X60075475Y-76214123D01*
X60076865Y-76215328D01*
X60084548Y-76216999D01*
X60611669Y-76216999D01*
X60618490Y-76216629D01*
X60669352Y-76211105D01*
X60684604Y-76207479D01*
X60805054Y-76162324D01*
X60820649Y-76153786D01*
X60922724Y-76077285D01*
X60927009Y-76073000D01*
X72092502Y-76073000D01*
X72112457Y-76301087D01*
X72113881Y-76306400D01*
X72113881Y-76306402D01*
X72134509Y-76383384D01*
X72171716Y-76522243D01*
X72174039Y-76527224D01*
X72174039Y-76527225D01*
X72266151Y-76724762D01*
X72266154Y-76724767D01*
X72268477Y-76729749D01*
X72399802Y-76917300D01*
X72561700Y-77079198D01*
X72566208Y-77082355D01*
X72566211Y-77082357D01*
X72590858Y-77099615D01*
X72749251Y-77210523D01*
X72754233Y-77212846D01*
X72754238Y-77212849D01*
X72950765Y-77304490D01*
X72956757Y-77307284D01*
X72962065Y-77308706D01*
X72962067Y-77308707D01*
X73172598Y-77365119D01*
X73172600Y-77365119D01*
X73177913Y-77366543D01*
X73406000Y-77386498D01*
X73634087Y-77366543D01*
X73639400Y-77365119D01*
X73639402Y-77365119D01*
X73849933Y-77308707D01*
X73849935Y-77308706D01*
X73855243Y-77307284D01*
X73861235Y-77304490D01*
X74057762Y-77212849D01*
X74057767Y-77212846D01*
X74062749Y-77210523D01*
X74221142Y-77099615D01*
X74245789Y-77082357D01*
X74245792Y-77082355D01*
X74250300Y-77079198D01*
X74412198Y-76917300D01*
X74543523Y-76729749D01*
X74545846Y-76724767D01*
X74545849Y-76724762D01*
X74637961Y-76527225D01*
X74637961Y-76527224D01*
X74640284Y-76522243D01*
X74677492Y-76383384D01*
X74689245Y-76339522D01*
X76187273Y-76339522D01*
X76234764Y-76516761D01*
X76238510Y-76527053D01*
X76330586Y-76724511D01*
X76336069Y-76734007D01*
X76461028Y-76912467D01*
X76468084Y-76920875D01*
X76622125Y-77074916D01*
X76630533Y-77081972D01*
X76808993Y-77206931D01*
X76818489Y-77212414D01*
X77015947Y-77304490D01*
X77026239Y-77308236D01*
X77198503Y-77354394D01*
X77212599Y-77354058D01*
X77216000Y-77346116D01*
X77216000Y-77340967D01*
X77724000Y-77340967D01*
X77727973Y-77354498D01*
X77736522Y-77355727D01*
X77913761Y-77308236D01*
X77924053Y-77304490D01*
X78121511Y-77212414D01*
X78131007Y-77206931D01*
X78309467Y-77081972D01*
X78317875Y-77074916D01*
X78471916Y-76920875D01*
X78478972Y-76912467D01*
X78603931Y-76734007D01*
X78609414Y-76724511D01*
X78701490Y-76527053D01*
X78705236Y-76516761D01*
X78751394Y-76344497D01*
X78751058Y-76330401D01*
X78743116Y-76327000D01*
X77742115Y-76327000D01*
X77726876Y-76331475D01*
X77725671Y-76332865D01*
X77724000Y-76340548D01*
X77724000Y-77340967D01*
X77216000Y-77340967D01*
X77216000Y-76345115D01*
X77211525Y-76329876D01*
X77210135Y-76328671D01*
X77202452Y-76327000D01*
X76202033Y-76327000D01*
X76188502Y-76330973D01*
X76187273Y-76339522D01*
X74689245Y-76339522D01*
X74698119Y-76306402D01*
X74698119Y-76306400D01*
X74699543Y-76301087D01*
X74719498Y-76073000D01*
X74710210Y-75966841D01*
X74705245Y-75910087D01*
X74719234Y-75840482D01*
X74741671Y-75810010D01*
X75461276Y-75090405D01*
X75523588Y-75056379D01*
X75550371Y-75053500D01*
X76345045Y-75053500D01*
X76413166Y-75073502D01*
X76459659Y-75127158D01*
X76469763Y-75197432D01*
X76448258Y-75251771D01*
X76336069Y-75411993D01*
X76330586Y-75421489D01*
X76238510Y-75618947D01*
X76234764Y-75629239D01*
X76188606Y-75801503D01*
X76188942Y-75815599D01*
X76196884Y-75819000D01*
X78737967Y-75819000D01*
X78751498Y-75815027D01*
X78752727Y-75806478D01*
X78705236Y-75629239D01*
X78701490Y-75618947D01*
X78609414Y-75421489D01*
X78603931Y-75411993D01*
X78491742Y-75251771D01*
X78469054Y-75184497D01*
X78486339Y-75115636D01*
X78538109Y-75067052D01*
X78594955Y-75053500D01*
X83964434Y-75053500D01*
X84032555Y-75073502D01*
X84079048Y-75127158D01*
X84089152Y-75197432D01*
X84067647Y-75251771D01*
X83955634Y-75411742D01*
X83955633Y-75411744D01*
X83952477Y-75416251D01*
X83950154Y-75421233D01*
X83950151Y-75421238D01*
X83858039Y-75618775D01*
X83855716Y-75623757D01*
X83854294Y-75629065D01*
X83854293Y-75629067D01*
X83806756Y-75806478D01*
X83796457Y-75844913D01*
X83776502Y-76073000D01*
X83796457Y-76301087D01*
X83797881Y-76306400D01*
X83797881Y-76306402D01*
X83818509Y-76383384D01*
X83855716Y-76522243D01*
X83858039Y-76527224D01*
X83858039Y-76527225D01*
X83950151Y-76724762D01*
X83950154Y-76724767D01*
X83952477Y-76729749D01*
X84083802Y-76917300D01*
X84245700Y-77079198D01*
X84250208Y-77082355D01*
X84250211Y-77082357D01*
X84274858Y-77099615D01*
X84433251Y-77210523D01*
X84438233Y-77212846D01*
X84438238Y-77212849D01*
X84634765Y-77304490D01*
X84640757Y-77307284D01*
X84646065Y-77308706D01*
X84646067Y-77308707D01*
X84856598Y-77365119D01*
X84856600Y-77365119D01*
X84861913Y-77366543D01*
X85090000Y-77386498D01*
X85318087Y-77366543D01*
X85323400Y-77365119D01*
X85323402Y-77365119D01*
X85533933Y-77308707D01*
X85533935Y-77308706D01*
X85539243Y-77307284D01*
X85545235Y-77304490D01*
X85741762Y-77212849D01*
X85741767Y-77212846D01*
X85746749Y-77210523D01*
X85905142Y-77099615D01*
X85929789Y-77082357D01*
X85929792Y-77082355D01*
X85934300Y-77079198D01*
X86096198Y-76917300D01*
X86227523Y-76729749D01*
X86229846Y-76724767D01*
X86229849Y-76724762D01*
X86321961Y-76527225D01*
X86321961Y-76527224D01*
X86324284Y-76522243D01*
X86361492Y-76383384D01*
X86382119Y-76306402D01*
X86382119Y-76306400D01*
X86383543Y-76301087D01*
X86403498Y-76073000D01*
X86383543Y-75844913D01*
X86373244Y-75806478D01*
X86325707Y-75629067D01*
X86325706Y-75629065D01*
X86324284Y-75623757D01*
X86321961Y-75618775D01*
X86229849Y-75421238D01*
X86229846Y-75421233D01*
X86227523Y-75416251D01*
X86144079Y-75297081D01*
X86099357Y-75233211D01*
X86099355Y-75233208D01*
X86096198Y-75228700D01*
X85934300Y-75066802D01*
X85929792Y-75063645D01*
X85929789Y-75063643D01*
X85777494Y-74957005D01*
X85746749Y-74935477D01*
X85741767Y-74933154D01*
X85741762Y-74933151D01*
X85583475Y-74859341D01*
X85530190Y-74812424D01*
X85510729Y-74744146D01*
X85531271Y-74676186D01*
X85547630Y-74656051D01*
X86891276Y-73312405D01*
X86953588Y-73278379D01*
X86980371Y-73275500D01*
X92089629Y-73275500D01*
X92157750Y-73295502D01*
X92178724Y-73312405D01*
X93692595Y-74826276D01*
X93726621Y-74888588D01*
X93729500Y-74915371D01*
X93729500Y-76069952D01*
X93728067Y-76088902D01*
X93724801Y-76110371D01*
X93725394Y-76117663D01*
X93725394Y-76117666D01*
X93729085Y-76163040D01*
X93729500Y-76173255D01*
X93729500Y-76181315D01*
X93729925Y-76184959D01*
X93732789Y-76209529D01*
X93733222Y-76213904D01*
X93739140Y-76286659D01*
X93741396Y-76293623D01*
X93742587Y-76299582D01*
X93743971Y-76305437D01*
X93744818Y-76312703D01*
X93769735Y-76381349D01*
X93771152Y-76385477D01*
X93793649Y-76454921D01*
X93797445Y-76461176D01*
X93799951Y-76466650D01*
X93802670Y-76472080D01*
X93805167Y-76478959D01*
X93809180Y-76485079D01*
X93809180Y-76485080D01*
X93845186Y-76539998D01*
X93847523Y-76543702D01*
X93885405Y-76606129D01*
X93889121Y-76610337D01*
X93889122Y-76610338D01*
X93892803Y-76614506D01*
X93892776Y-76614530D01*
X93895429Y-76617522D01*
X93898132Y-76620755D01*
X93902144Y-76626874D01*
X93907456Y-76631906D01*
X93958383Y-76680150D01*
X93960825Y-76682528D01*
X95745208Y-78466911D01*
X95757594Y-78481323D01*
X95766127Y-78492918D01*
X95766132Y-78492923D01*
X95770470Y-78498818D01*
X95776048Y-78503557D01*
X95776051Y-78503560D01*
X95810746Y-78533035D01*
X95818262Y-78539965D01*
X95823957Y-78545660D01*
X95826839Y-78547940D01*
X95846229Y-78563281D01*
X95849633Y-78566072D01*
X95899681Y-78608591D01*
X95905263Y-78613333D01*
X95911779Y-78616661D01*
X95916828Y-78620028D01*
X95921957Y-78623195D01*
X95927694Y-78627734D01*
X95993853Y-78658655D01*
X95997747Y-78660558D01*
X96062786Y-78693769D01*
X96069894Y-78695508D01*
X96075537Y-78697607D01*
X96081300Y-78699524D01*
X96087928Y-78702622D01*
X96095090Y-78704112D01*
X96095091Y-78704112D01*
X96159390Y-78717486D01*
X96163674Y-78718456D01*
X96234588Y-78735808D01*
X96240190Y-78736156D01*
X96240193Y-78736156D01*
X96245742Y-78736500D01*
X96245740Y-78736536D01*
X96249733Y-78736775D01*
X96253925Y-78737149D01*
X96261093Y-78738640D01*
X96338498Y-78736546D01*
X96341906Y-78736500D01*
X98103930Y-78736500D01*
X98122880Y-78737933D01*
X98137115Y-78740099D01*
X98137119Y-78740099D01*
X98144349Y-78741199D01*
X98151641Y-78740606D01*
X98151644Y-78740606D01*
X98197018Y-78736915D01*
X98207233Y-78736500D01*
X98215293Y-78736500D01*
X98232680Y-78734473D01*
X98243507Y-78733211D01*
X98247882Y-78732778D01*
X98313339Y-78727454D01*
X98313342Y-78727453D01*
X98320637Y-78726860D01*
X98327601Y-78724604D01*
X98333560Y-78723413D01*
X98339415Y-78722029D01*
X98346681Y-78721182D01*
X98415327Y-78696265D01*
X98419455Y-78694848D01*
X98481936Y-78674607D01*
X98481938Y-78674606D01*
X98488899Y-78672351D01*
X98495154Y-78668555D01*
X98500628Y-78666049D01*
X98506058Y-78663330D01*
X98512937Y-78660833D01*
X98519058Y-78656820D01*
X98573976Y-78620814D01*
X98577680Y-78618477D01*
X98640107Y-78580595D01*
X98648484Y-78573197D01*
X98648508Y-78573224D01*
X98651500Y-78570571D01*
X98654733Y-78567868D01*
X98660852Y-78563856D01*
X98714128Y-78507617D01*
X98716506Y-78505175D01*
X98862681Y-78359000D01*
X109557502Y-78359000D01*
X109577457Y-78587087D01*
X109578881Y-78592400D01*
X109578881Y-78592402D01*
X109618593Y-78740606D01*
X109636716Y-78808243D01*
X109639039Y-78813224D01*
X109639039Y-78813225D01*
X109731151Y-79010762D01*
X109731154Y-79010767D01*
X109733477Y-79015749D01*
X109806902Y-79120611D01*
X109847900Y-79179161D01*
X109864802Y-79203300D01*
X110026700Y-79365198D01*
X110031208Y-79368355D01*
X110031211Y-79368357D01*
X110098971Y-79415803D01*
X110214251Y-79496523D01*
X110219233Y-79498846D01*
X110219238Y-79498849D01*
X110416775Y-79590961D01*
X110421757Y-79593284D01*
X110427065Y-79594706D01*
X110427067Y-79594707D01*
X110637598Y-79651119D01*
X110637600Y-79651119D01*
X110642913Y-79652543D01*
X110871000Y-79672498D01*
X111099087Y-79652543D01*
X111104400Y-79651119D01*
X111104402Y-79651119D01*
X111314933Y-79594707D01*
X111314935Y-79594706D01*
X111320243Y-79593284D01*
X111325225Y-79590961D01*
X111522762Y-79498849D01*
X111522767Y-79498846D01*
X111527749Y-79496523D01*
X111643029Y-79415803D01*
X111710789Y-79368357D01*
X111710792Y-79368355D01*
X111715300Y-79365198D01*
X111877198Y-79203300D01*
X111894101Y-79179161D01*
X111935098Y-79120611D01*
X112008523Y-79015749D01*
X112010846Y-79010767D01*
X112010849Y-79010762D01*
X112102961Y-78813225D01*
X112102961Y-78813224D01*
X112105284Y-78808243D01*
X112123408Y-78740606D01*
X112163119Y-78592402D01*
X112163119Y-78592400D01*
X112164543Y-78587087D01*
X112184498Y-78359000D01*
X112164543Y-78130913D01*
X112105284Y-77909757D01*
X112102961Y-77904775D01*
X112010849Y-77707238D01*
X112010846Y-77707233D01*
X112008523Y-77702251D01*
X111877198Y-77514700D01*
X111715300Y-77352802D01*
X111710792Y-77349645D01*
X111710789Y-77349643D01*
X111632611Y-77294902D01*
X111527749Y-77221477D01*
X111522767Y-77219154D01*
X111522762Y-77219151D01*
X111325225Y-77127039D01*
X111325224Y-77127039D01*
X111320243Y-77124716D01*
X111314935Y-77123294D01*
X111314933Y-77123293D01*
X111104402Y-77066881D01*
X111104400Y-77066881D01*
X111099087Y-77065457D01*
X110871000Y-77045502D01*
X110642913Y-77065457D01*
X110637600Y-77066881D01*
X110637598Y-77066881D01*
X110427067Y-77123293D01*
X110427065Y-77123294D01*
X110421757Y-77124716D01*
X110416776Y-77127039D01*
X110416775Y-77127039D01*
X110219238Y-77219151D01*
X110219233Y-77219154D01*
X110214251Y-77221477D01*
X110109389Y-77294902D01*
X110031211Y-77349643D01*
X110031208Y-77349645D01*
X110026700Y-77352802D01*
X109864802Y-77514700D01*
X109733477Y-77702251D01*
X109731154Y-77707233D01*
X109731151Y-77707238D01*
X109639039Y-77904775D01*
X109636716Y-77909757D01*
X109577457Y-78130913D01*
X109557502Y-78359000D01*
X98862681Y-78359000D01*
X101757040Y-75464641D01*
X101819352Y-75430615D01*
X101871256Y-75430266D01*
X101935585Y-75443354D01*
X101935593Y-75443355D01*
X101940656Y-75444385D01*
X102070089Y-75449131D01*
X102166949Y-75452683D01*
X102166953Y-75452683D01*
X102172113Y-75452872D01*
X102177233Y-75452216D01*
X102177235Y-75452216D01*
X102265755Y-75440876D01*
X102401847Y-75423442D01*
X102406795Y-75421957D01*
X102406802Y-75421956D01*
X102618747Y-75358369D01*
X102623690Y-75356886D01*
X102628324Y-75354616D01*
X102827049Y-75257262D01*
X102827052Y-75257260D01*
X102831684Y-75254991D01*
X103020243Y-75120494D01*
X103065309Y-75075585D01*
X103127681Y-75041669D01*
X103198487Y-75046857D01*
X103255249Y-75089503D01*
X103272231Y-75120607D01*
X103274696Y-75127181D01*
X103297385Y-75187705D01*
X103384739Y-75304261D01*
X103501295Y-75391615D01*
X103637684Y-75442745D01*
X103699866Y-75449500D01*
X105596134Y-75449500D01*
X105658316Y-75442745D01*
X105794705Y-75391615D01*
X105911261Y-75304261D01*
X105998615Y-75187705D01*
X106049745Y-75051316D01*
X106056500Y-74989134D01*
X106056500Y-73092866D01*
X106049745Y-73030684D01*
X105998615Y-72894295D01*
X105911261Y-72777739D01*
X105794705Y-72690385D01*
X105658316Y-72639255D01*
X105596134Y-72632500D01*
X103699866Y-72632500D01*
X103637684Y-72639255D01*
X103501295Y-72690385D01*
X103384739Y-72777739D01*
X103297385Y-72894295D01*
X103294233Y-72902703D01*
X103294232Y-72902705D01*
X103273538Y-72957906D01*
X103230897Y-73014671D01*
X103164335Y-73039371D01*
X103094986Y-73024164D01*
X103072167Y-73007666D01*
X103071887Y-73007358D01*
X103009270Y-72957906D01*
X102894177Y-72867011D01*
X102894172Y-72867008D01*
X102890123Y-72863810D01*
X102885607Y-72861317D01*
X102885604Y-72861315D01*
X102691879Y-72754373D01*
X102691875Y-72754371D01*
X102687355Y-72751876D01*
X102682486Y-72750152D01*
X102682482Y-72750150D01*
X102473903Y-72676288D01*
X102473899Y-72676287D01*
X102469028Y-72674562D01*
X102463935Y-72673655D01*
X102463932Y-72673654D01*
X102246095Y-72634851D01*
X102246089Y-72634850D01*
X102241006Y-72633945D01*
X102168096Y-72633054D01*
X102014581Y-72631179D01*
X102014579Y-72631179D01*
X102009411Y-72631116D01*
X101780464Y-72666150D01*
X101560314Y-72738106D01*
X101555726Y-72740494D01*
X101555722Y-72740496D01*
X101379067Y-72832457D01*
X101354872Y-72845052D01*
X101350739Y-72848155D01*
X101350736Y-72848157D01*
X101173790Y-72981012D01*
X101169655Y-72984117D01*
X101117696Y-73038489D01*
X101048215Y-73111197D01*
X101009639Y-73151564D01*
X100879119Y-73342899D01*
X100781602Y-73552981D01*
X100719707Y-73776169D01*
X100695095Y-74006469D01*
X100695392Y-74011622D01*
X100695392Y-74011625D01*
X100703148Y-74146137D01*
X100708427Y-74237697D01*
X100717112Y-74276234D01*
X100712576Y-74347083D01*
X100683290Y-74393029D01*
X98322595Y-76753724D01*
X98260283Y-76787750D01*
X98189468Y-76782685D01*
X98132632Y-76740138D01*
X98107821Y-76673618D01*
X98107500Y-76664629D01*
X98107500Y-74900866D01*
X98100745Y-74838684D01*
X98049615Y-74702295D01*
X97962261Y-74585739D01*
X97845705Y-74498385D01*
X97803719Y-74482645D01*
X97727203Y-74453960D01*
X97670439Y-74411318D01*
X97645739Y-74344756D01*
X97660947Y-74275408D01*
X97682493Y-74246727D01*
X97783435Y-74146137D01*
X97787096Y-74142489D01*
X97805632Y-74116694D01*
X97914435Y-73965277D01*
X97917453Y-73961077D01*
X97941269Y-73912890D01*
X98014136Y-73765453D01*
X98014137Y-73765451D01*
X98016430Y-73760811D01*
X98078924Y-73555119D01*
X98079865Y-73552023D01*
X98079865Y-73552021D01*
X98081370Y-73547069D01*
X98110529Y-73325590D01*
X98112002Y-73265301D01*
X98112074Y-73262365D01*
X98112074Y-73262361D01*
X98112156Y-73259000D01*
X98093852Y-73036361D01*
X98039431Y-72819702D01*
X97950354Y-72614840D01*
X97889259Y-72520401D01*
X97831822Y-72431617D01*
X97831820Y-72431614D01*
X97829014Y-72427277D01*
X97678670Y-72262051D01*
X97674619Y-72258852D01*
X97674615Y-72258848D01*
X97507414Y-72126800D01*
X97507410Y-72126798D01*
X97503359Y-72123598D01*
X97307789Y-72015638D01*
X97302920Y-72013914D01*
X97302916Y-72013912D01*
X97102087Y-71942795D01*
X97102083Y-71942794D01*
X97097212Y-71941069D01*
X97092119Y-71940162D01*
X97092116Y-71940161D01*
X96882373Y-71902800D01*
X96882367Y-71902799D01*
X96877284Y-71901894D01*
X96803452Y-71900992D01*
X96659081Y-71899228D01*
X96659079Y-71899228D01*
X96653911Y-71899165D01*
X96433091Y-71932955D01*
X96220756Y-72002357D01*
X96022607Y-72105507D01*
X96018474Y-72108610D01*
X96018471Y-72108612D01*
X95848100Y-72236530D01*
X95843965Y-72239635D01*
X95689629Y-72401138D01*
X95563743Y-72585680D01*
X95537587Y-72642029D01*
X95474593Y-72777739D01*
X95469688Y-72788305D01*
X95468220Y-72793599D01*
X95468153Y-72793707D01*
X95466523Y-72798137D01*
X95465609Y-72797801D01*
X95430745Y-72853897D01*
X95366617Y-72884363D01*
X95296199Y-72875323D01*
X95257707Y-72849026D01*
X92235405Y-69826724D01*
X92201379Y-69764412D01*
X92198500Y-69737629D01*
X92198500Y-69495661D01*
X92218502Y-69427540D01*
X92243931Y-69398787D01*
X92247595Y-69395739D01*
X92247597Y-69395737D01*
X92252041Y-69392041D01*
X92386426Y-69230460D01*
X92489115Y-69047096D01*
X92490971Y-69041629D01*
X92490973Y-69041624D01*
X92554813Y-68853557D01*
X92554814Y-68853552D01*
X92556669Y-68848088D01*
X92586825Y-68640103D01*
X92586868Y-68638466D01*
X92607816Y-68584564D01*
X92584855Y-68537440D01*
X92583614Y-68527926D01*
X92569698Y-68376478D01*
X92569169Y-68370721D01*
X92562501Y-68347076D01*
X92523271Y-68207978D01*
X92512123Y-68168451D01*
X92419171Y-67979963D01*
X92293427Y-67811571D01*
X92179981Y-67706703D01*
X92143341Y-67672833D01*
X92143338Y-67672831D01*
X92139101Y-67668914D01*
X92134217Y-67665832D01*
X92129634Y-67662316D01*
X92130400Y-67661318D01*
X92087642Y-67612794D01*
X92076954Y-67542606D01*
X92105909Y-67477782D01*
X92165314Y-67438903D01*
X92201816Y-67433500D01*
X93218141Y-67433500D01*
X93286262Y-67453502D01*
X93332755Y-67507158D01*
X93342859Y-67577432D01*
X93313365Y-67642012D01*
X93301218Y-67654232D01*
X93280008Y-67672833D01*
X93146981Y-67789494D01*
X93016872Y-67954537D01*
X93014181Y-67959653D01*
X93014179Y-67959655D01*
X93002554Y-67981751D01*
X92919018Y-68140527D01*
X92856696Y-68341234D01*
X92856017Y-68346969D01*
X92856017Y-68346970D01*
X92834212Y-68531206D01*
X92812868Y-68581214D01*
X92835730Y-68624477D01*
X92837985Y-68641334D01*
X92845740Y-68759649D01*
X92897471Y-68963343D01*
X92899890Y-68968590D01*
X92983038Y-69148953D01*
X92983041Y-69148958D01*
X92985457Y-69154199D01*
X92988788Y-69158912D01*
X92988789Y-69158914D01*
X93002684Y-69178574D01*
X93106751Y-69325825D01*
X93257289Y-69472474D01*
X93262085Y-69475679D01*
X93262088Y-69475681D01*
X93369627Y-69547536D01*
X93432031Y-69589233D01*
X93437339Y-69591514D01*
X93437340Y-69591514D01*
X93619822Y-69669914D01*
X93619825Y-69669915D01*
X93625125Y-69672192D01*
X93630754Y-69673466D01*
X93630755Y-69673466D01*
X93824467Y-69717299D01*
X93824473Y-69717300D01*
X93830104Y-69718574D01*
X93835875Y-69718801D01*
X93835877Y-69718801D01*
X93899433Y-69721298D01*
X94040103Y-69726825D01*
X94248088Y-69696669D01*
X94253552Y-69694814D01*
X94253557Y-69694813D01*
X94441624Y-69630973D01*
X94441629Y-69630971D01*
X94447096Y-69629115D01*
X94500601Y-69599151D01*
X94550723Y-69571081D01*
X94630460Y-69526426D01*
X94792041Y-69392041D01*
X94926426Y-69230460D01*
X95029115Y-69047096D01*
X95030971Y-69041629D01*
X95030973Y-69041624D01*
X95094813Y-68853557D01*
X95094814Y-68853552D01*
X95096669Y-68848088D01*
X95126825Y-68640103D01*
X95126868Y-68638466D01*
X95147816Y-68584564D01*
X95124855Y-68537440D01*
X95123614Y-68527926D01*
X95109698Y-68376478D01*
X95109169Y-68370721D01*
X95102501Y-68347076D01*
X95063271Y-68207978D01*
X95052123Y-68168451D01*
X94959171Y-67979963D01*
X94833427Y-67811571D01*
X94719981Y-67706703D01*
X94683341Y-67672833D01*
X94683338Y-67672831D01*
X94679101Y-67668914D01*
X94674217Y-67665832D01*
X94669634Y-67662316D01*
X94670400Y-67661318D01*
X94627642Y-67612794D01*
X94616954Y-67542606D01*
X94645909Y-67477782D01*
X94705314Y-67438903D01*
X94741816Y-67433500D01*
X95758141Y-67433500D01*
X95826262Y-67453502D01*
X95872755Y-67507158D01*
X95882859Y-67577432D01*
X95853365Y-67642012D01*
X95841218Y-67654232D01*
X95820008Y-67672833D01*
X95686981Y-67789494D01*
X95556872Y-67954537D01*
X95554181Y-67959653D01*
X95554179Y-67959655D01*
X95542554Y-67981751D01*
X95459018Y-68140527D01*
X95396696Y-68341234D01*
X95396017Y-68346969D01*
X95396017Y-68346970D01*
X95374212Y-68531206D01*
X95352868Y-68581214D01*
X95375730Y-68624477D01*
X95377985Y-68641334D01*
X95385740Y-68759649D01*
X95437471Y-68963343D01*
X95439890Y-68968590D01*
X95523038Y-69148953D01*
X95523041Y-69148958D01*
X95525457Y-69154199D01*
X95528788Y-69158912D01*
X95528789Y-69158914D01*
X95542684Y-69178574D01*
X95646751Y-69325825D01*
X95797289Y-69472474D01*
X95802085Y-69475679D01*
X95802088Y-69475681D01*
X95909627Y-69547536D01*
X95972031Y-69589233D01*
X95977339Y-69591514D01*
X95977340Y-69591514D01*
X96159822Y-69669914D01*
X96159825Y-69669915D01*
X96165125Y-69672192D01*
X96170754Y-69673466D01*
X96170755Y-69673466D01*
X96364467Y-69717299D01*
X96364473Y-69717300D01*
X96370104Y-69718574D01*
X96375875Y-69718801D01*
X96375877Y-69718801D01*
X96439433Y-69721298D01*
X96580103Y-69726825D01*
X96788088Y-69696669D01*
X96793552Y-69694814D01*
X96793557Y-69694813D01*
X96981624Y-69630973D01*
X96981629Y-69630971D01*
X96987096Y-69629115D01*
X97040601Y-69599151D01*
X97090723Y-69571081D01*
X97170460Y-69526426D01*
X97332041Y-69392041D01*
X97466426Y-69230460D01*
X97569115Y-69047096D01*
X97570971Y-69041629D01*
X97570973Y-69041624D01*
X97634813Y-68853557D01*
X97634814Y-68853552D01*
X97636669Y-68848088D01*
X97666825Y-68640103D01*
X97666868Y-68638466D01*
X97687816Y-68584564D01*
X97664855Y-68537440D01*
X97663614Y-68527926D01*
X97649698Y-68376478D01*
X97649169Y-68370721D01*
X97642501Y-68347076D01*
X97603271Y-68207978D01*
X97592123Y-68168451D01*
X97499171Y-67979963D01*
X97373427Y-67811571D01*
X97259981Y-67706703D01*
X97223341Y-67672833D01*
X97223338Y-67672831D01*
X97219101Y-67668914D01*
X97214217Y-67665832D01*
X97209634Y-67662316D01*
X97210400Y-67661318D01*
X97167642Y-67612794D01*
X97156954Y-67542606D01*
X97185909Y-67477782D01*
X97245314Y-67438903D01*
X97281816Y-67433500D01*
X98298141Y-67433500D01*
X98366262Y-67453502D01*
X98412755Y-67507158D01*
X98422859Y-67577432D01*
X98393365Y-67642012D01*
X98381218Y-67654232D01*
X98360008Y-67672833D01*
X98226981Y-67789494D01*
X98096872Y-67954537D01*
X98094181Y-67959653D01*
X98094179Y-67959655D01*
X98082554Y-67981751D01*
X97999018Y-68140527D01*
X97936696Y-68341234D01*
X97936017Y-68346969D01*
X97936017Y-68346970D01*
X97914212Y-68531206D01*
X97892868Y-68581214D01*
X97915730Y-68624477D01*
X97917985Y-68641334D01*
X97925740Y-68759649D01*
X97977471Y-68963343D01*
X97979890Y-68968590D01*
X98063038Y-69148953D01*
X98063041Y-69148958D01*
X98065457Y-69154199D01*
X98068788Y-69158912D01*
X98068789Y-69158914D01*
X98082684Y-69178574D01*
X98186751Y-69325825D01*
X98337289Y-69472474D01*
X98342085Y-69475679D01*
X98342088Y-69475681D01*
X98449627Y-69547536D01*
X98512031Y-69589233D01*
X98517339Y-69591514D01*
X98517340Y-69591514D01*
X98699822Y-69669914D01*
X98699825Y-69669915D01*
X98705125Y-69672192D01*
X98710754Y-69673466D01*
X98710755Y-69673466D01*
X98904467Y-69717299D01*
X98904473Y-69717300D01*
X98910104Y-69718574D01*
X98915875Y-69718801D01*
X98915877Y-69718801D01*
X98979433Y-69721298D01*
X99120103Y-69726825D01*
X99328088Y-69696669D01*
X99333552Y-69694814D01*
X99333557Y-69694813D01*
X99521624Y-69630973D01*
X99521629Y-69630971D01*
X99527096Y-69629115D01*
X99580601Y-69599151D01*
X99630723Y-69571081D01*
X99710460Y-69526426D01*
X99872041Y-69392041D01*
X100006426Y-69230460D01*
X100109115Y-69047096D01*
X100110971Y-69041629D01*
X100110973Y-69041624D01*
X100174813Y-68853557D01*
X100174814Y-68853552D01*
X100176669Y-68848088D01*
X100206825Y-68640103D01*
X100208399Y-68580000D01*
X100189169Y-68370721D01*
X100182501Y-68347076D01*
X100143271Y-68207978D01*
X100132123Y-68168451D01*
X100039171Y-67979963D01*
X99913427Y-67811571D01*
X99799981Y-67706703D01*
X99763341Y-67672833D01*
X99763338Y-67672831D01*
X99759101Y-67668914D01*
X99754217Y-67665832D01*
X99749634Y-67662316D01*
X99750400Y-67661318D01*
X99707642Y-67612794D01*
X99696954Y-67542606D01*
X99725909Y-67477782D01*
X99785314Y-67438903D01*
X99821816Y-67433500D01*
X106440629Y-67433500D01*
X106508750Y-67453502D01*
X106529724Y-67470405D01*
X109535329Y-70476010D01*
X109569355Y-70538322D01*
X109571755Y-70576087D01*
X109571283Y-70581484D01*
X109557502Y-70739000D01*
X109577457Y-70967087D01*
X109578881Y-70972400D01*
X109578881Y-70972402D01*
X109619275Y-71123151D01*
X109636716Y-71188243D01*
X109639039Y-71193224D01*
X109639039Y-71193225D01*
X109731151Y-71390762D01*
X109731154Y-71390767D01*
X109733477Y-71395749D01*
X109864802Y-71583300D01*
X110026700Y-71745198D01*
X110031208Y-71748355D01*
X110031211Y-71748357D01*
X110080551Y-71782905D01*
X110214251Y-71876523D01*
X110219233Y-71878846D01*
X110219238Y-71878849D01*
X110416775Y-71970961D01*
X110421757Y-71973284D01*
X110427065Y-71974706D01*
X110427067Y-71974707D01*
X110637598Y-72031119D01*
X110637600Y-72031119D01*
X110642913Y-72032543D01*
X110871000Y-72052498D01*
X111099087Y-72032543D01*
X111104400Y-72031119D01*
X111104402Y-72031119D01*
X111314933Y-71974707D01*
X111314935Y-71974706D01*
X111320243Y-71973284D01*
X111325225Y-71970961D01*
X111522762Y-71878849D01*
X111522767Y-71878846D01*
X111527749Y-71876523D01*
X111661449Y-71782905D01*
X111710789Y-71748357D01*
X111710792Y-71748355D01*
X111715300Y-71745198D01*
X111877198Y-71583300D01*
X112008523Y-71395749D01*
X112010846Y-71390767D01*
X112010849Y-71390762D01*
X112102961Y-71193225D01*
X112102961Y-71193224D01*
X112105284Y-71188243D01*
X112122726Y-71123151D01*
X112163119Y-70972402D01*
X112163119Y-70972400D01*
X112164543Y-70967087D01*
X112184498Y-70739000D01*
X112164543Y-70510913D01*
X112147133Y-70445937D01*
X112106707Y-70295067D01*
X112106706Y-70295065D01*
X112105284Y-70289757D01*
X112094467Y-70266560D01*
X112010849Y-70087238D01*
X112010846Y-70087233D01*
X112008523Y-70082251D01*
X111877198Y-69894700D01*
X111715300Y-69732802D01*
X111710792Y-69729645D01*
X111710789Y-69729643D01*
X111611655Y-69660229D01*
X111527749Y-69601477D01*
X111522767Y-69599154D01*
X111522762Y-69599151D01*
X111325225Y-69507039D01*
X111325224Y-69507039D01*
X111320243Y-69504716D01*
X111314935Y-69503294D01*
X111314933Y-69503293D01*
X111104402Y-69446881D01*
X111104400Y-69446881D01*
X111099087Y-69445457D01*
X110871000Y-69425502D01*
X110865525Y-69425981D01*
X110708087Y-69439755D01*
X110638482Y-69425766D01*
X110608010Y-69403329D01*
X107390770Y-66186089D01*
X107378384Y-66171677D01*
X107369851Y-66160082D01*
X107369846Y-66160077D01*
X107365508Y-66154182D01*
X107359930Y-66149443D01*
X107359927Y-66149440D01*
X107325232Y-66119965D01*
X107317716Y-66113035D01*
X107312021Y-66107340D01*
X107295736Y-66094456D01*
X107289749Y-66089719D01*
X107286345Y-66086928D01*
X107236297Y-66044409D01*
X107236295Y-66044408D01*
X107230715Y-66039667D01*
X107224199Y-66036339D01*
X107219150Y-66032972D01*
X107214021Y-66029805D01*
X107208284Y-66025266D01*
X107142125Y-65994345D01*
X107138225Y-65992439D01*
X107073192Y-65959231D01*
X107066084Y-65957492D01*
X107060441Y-65955393D01*
X107054678Y-65953476D01*
X107048050Y-65950378D01*
X106976583Y-65935513D01*
X106972299Y-65934543D01*
X106901390Y-65917192D01*
X106895788Y-65916844D01*
X106895785Y-65916844D01*
X106890236Y-65916500D01*
X106890238Y-65916464D01*
X106886245Y-65916225D01*
X106882053Y-65915851D01*
X106874885Y-65914360D01*
X106811120Y-65916085D01*
X106797479Y-65916454D01*
X106794072Y-65916500D01*
X83252070Y-65916500D01*
X83233120Y-65915067D01*
X83218885Y-65912901D01*
X83218881Y-65912901D01*
X83211651Y-65911801D01*
X83204359Y-65912394D01*
X83204356Y-65912394D01*
X83158982Y-65916085D01*
X83148767Y-65916500D01*
X83140707Y-65916500D01*
X83137073Y-65916924D01*
X83137067Y-65916924D01*
X83124042Y-65918443D01*
X83112480Y-65919791D01*
X83108132Y-65920221D01*
X83035364Y-65926140D01*
X83028403Y-65928395D01*
X83022463Y-65929582D01*
X83016588Y-65930971D01*
X83009319Y-65931818D01*
X82940670Y-65956736D01*
X82936542Y-65958153D01*
X82874064Y-65978393D01*
X82874062Y-65978394D01*
X82867101Y-65980649D01*
X82860846Y-65984445D01*
X82855372Y-65986951D01*
X82849942Y-65989670D01*
X82843063Y-65992167D01*
X82836943Y-65996180D01*
X82836942Y-65996180D01*
X82782024Y-66032186D01*
X82778320Y-66034523D01*
X82715893Y-66072405D01*
X82707516Y-66079803D01*
X82707492Y-66079776D01*
X82704500Y-66082429D01*
X82701267Y-66085132D01*
X82695148Y-66089144D01*
X82665951Y-66119965D01*
X82641872Y-66145383D01*
X82639494Y-66147825D01*
X81387671Y-67399648D01*
X81325359Y-67433674D01*
X81296927Y-67436542D01*
X81264200Y-67436114D01*
X81189898Y-67435141D01*
X81184201Y-67436120D01*
X81184200Y-67436120D01*
X81083044Y-67453502D01*
X80982772Y-67470732D01*
X80785601Y-67543472D01*
X80780640Y-67546424D01*
X80780639Y-67546424D01*
X80671780Y-67611189D01*
X80604988Y-67650926D01*
X80446981Y-67789494D01*
X80316872Y-67954537D01*
X80314181Y-67959653D01*
X80314179Y-67959655D01*
X80302554Y-67981751D01*
X80219018Y-68140527D01*
X80156696Y-68341234D01*
X80156017Y-68346969D01*
X80156017Y-68346970D01*
X80134212Y-68531206D01*
X80112868Y-68581214D01*
X80135730Y-68624477D01*
X80137985Y-68641334D01*
X80145740Y-68759649D01*
X80197471Y-68963343D01*
X80199890Y-68968590D01*
X80283038Y-69148953D01*
X80283041Y-69148958D01*
X80285457Y-69154199D01*
X80288788Y-69158912D01*
X80288789Y-69158914D01*
X80302684Y-69178574D01*
X80406751Y-69325825D01*
X80557289Y-69472474D01*
X80562085Y-69475679D01*
X80562088Y-69475681D01*
X80669627Y-69547536D01*
X80732031Y-69589233D01*
X80737339Y-69591514D01*
X80737340Y-69591514D01*
X80919822Y-69669914D01*
X80919825Y-69669915D01*
X80925125Y-69672192D01*
X80930754Y-69673466D01*
X80930755Y-69673466D01*
X81124467Y-69717299D01*
X81124473Y-69717300D01*
X81130104Y-69718574D01*
X81135875Y-69718801D01*
X81135877Y-69718801D01*
X81199433Y-69721298D01*
X81340103Y-69726825D01*
X81548088Y-69696669D01*
X81553552Y-69694814D01*
X81553557Y-69694813D01*
X81741624Y-69630973D01*
X81741629Y-69630971D01*
X81747096Y-69629115D01*
X81800601Y-69599151D01*
X81850723Y-69571081D01*
X81894562Y-69546530D01*
X83217830Y-69546530D01*
X83227710Y-69559017D01*
X83267472Y-69585585D01*
X83277575Y-69591071D01*
X83459973Y-69669435D01*
X83470916Y-69672990D01*
X83664533Y-69716802D01*
X83675942Y-69718304D01*
X83874308Y-69726097D01*
X83885790Y-69725495D01*
X84082250Y-69697011D01*
X84093445Y-69694323D01*
X84281424Y-69630512D01*
X84291931Y-69625834D01*
X84413745Y-69557614D01*
X84423610Y-69547536D01*
X84420654Y-69539864D01*
X83832812Y-68952022D01*
X83818868Y-68944408D01*
X83817035Y-68944539D01*
X83810420Y-68948790D01*
X83224027Y-69535183D01*
X83217830Y-69546530D01*
X81894562Y-69546530D01*
X81930460Y-69526426D01*
X82092041Y-69392041D01*
X82226426Y-69230460D01*
X82329115Y-69047096D01*
X82330971Y-69041629D01*
X82330973Y-69041624D01*
X82394813Y-68853557D01*
X82394814Y-68853552D01*
X82396669Y-68848088D01*
X82426825Y-68640103D01*
X82426922Y-68636394D01*
X82426994Y-68635551D01*
X82452711Y-68569376D01*
X82510123Y-68527610D01*
X82581002Y-68523514D01*
X82642843Y-68558388D01*
X82676013Y-68621159D01*
X82678268Y-68638015D01*
X82685858Y-68753803D01*
X82687659Y-68765173D01*
X82736523Y-68957576D01*
X82740364Y-68968423D01*
X82823475Y-69148705D01*
X82829223Y-69158661D01*
X82840675Y-69174867D01*
X82851263Y-69183254D01*
X82864564Y-69176226D01*
X83459658Y-68581132D01*
X84184408Y-68581132D01*
X84184539Y-68582965D01*
X84188790Y-68589580D01*
X84775950Y-69176740D01*
X84788330Y-69183500D01*
X84794910Y-69178574D01*
X84865834Y-69051931D01*
X84870512Y-69041424D01*
X84934323Y-68853445D01*
X84937011Y-68842250D01*
X84965791Y-68643753D01*
X84966493Y-68635525D01*
X84986332Y-68584487D01*
X84964572Y-68539828D01*
X84963331Y-68530314D01*
X84949204Y-68376566D01*
X84947107Y-68365251D01*
X84893222Y-68174190D01*
X84889100Y-68163451D01*
X84801299Y-67985409D01*
X84799192Y-67981970D01*
X84789876Y-67974980D01*
X84777459Y-67981751D01*
X84192022Y-68567188D01*
X84184408Y-68581132D01*
X83459658Y-68581132D01*
X84415657Y-67625133D01*
X84423271Y-67611189D01*
X84421629Y-67588225D01*
X84414267Y-67568485D01*
X84429360Y-67499112D01*
X84479564Y-67448911D01*
X84539946Y-67433500D01*
X85598141Y-67433500D01*
X85666262Y-67453502D01*
X85712755Y-67507158D01*
X85722859Y-67577432D01*
X85693365Y-67642012D01*
X85681218Y-67654232D01*
X85660008Y-67672833D01*
X85526981Y-67789494D01*
X85396872Y-67954537D01*
X85394181Y-67959653D01*
X85394179Y-67959655D01*
X85382554Y-67981751D01*
X85299018Y-68140527D01*
X85236696Y-68341234D01*
X85236018Y-68346966D01*
X85236017Y-68346969D01*
X85213929Y-68533595D01*
X85193966Y-68580365D01*
X85215514Y-68621147D01*
X85217766Y-68637993D01*
X85225740Y-68759649D01*
X85277471Y-68963343D01*
X85279890Y-68968590D01*
X85363038Y-69148953D01*
X85363041Y-69148958D01*
X85365457Y-69154199D01*
X85368788Y-69158912D01*
X85368789Y-69158914D01*
X85382684Y-69178574D01*
X85486751Y-69325825D01*
X85637289Y-69472474D01*
X85642085Y-69475679D01*
X85642088Y-69475681D01*
X85749627Y-69547536D01*
X85812031Y-69589233D01*
X85817339Y-69591514D01*
X85817340Y-69591514D01*
X85999822Y-69669914D01*
X85999825Y-69669915D01*
X86005125Y-69672192D01*
X86010754Y-69673466D01*
X86010755Y-69673466D01*
X86204467Y-69717299D01*
X86204473Y-69717300D01*
X86210104Y-69718574D01*
X86215875Y-69718801D01*
X86215877Y-69718801D01*
X86279433Y-69721298D01*
X86420103Y-69726825D01*
X86628088Y-69696669D01*
X86633552Y-69694814D01*
X86633557Y-69694813D01*
X86821624Y-69630973D01*
X86821629Y-69630971D01*
X86827096Y-69629115D01*
X86880601Y-69599151D01*
X86930723Y-69571081D01*
X87010460Y-69526426D01*
X87172041Y-69392041D01*
X87306426Y-69230460D01*
X87409115Y-69047096D01*
X87410971Y-69041629D01*
X87410973Y-69041624D01*
X87474813Y-68853557D01*
X87474814Y-68853552D01*
X87476669Y-68848088D01*
X87506825Y-68640103D01*
X87506868Y-68638466D01*
X87527816Y-68584564D01*
X87504855Y-68537440D01*
X87503614Y-68527926D01*
X87489698Y-68376478D01*
X87489169Y-68370721D01*
X87482501Y-68347076D01*
X87443271Y-68207978D01*
X87432123Y-68168451D01*
X87339171Y-67979963D01*
X87213427Y-67811571D01*
X87099981Y-67706703D01*
X87063341Y-67672833D01*
X87063338Y-67672831D01*
X87059101Y-67668914D01*
X87054217Y-67665832D01*
X87049634Y-67662316D01*
X87050400Y-67661318D01*
X87007642Y-67612794D01*
X86996954Y-67542606D01*
X87025909Y-67477782D01*
X87085314Y-67438903D01*
X87121816Y-67433500D01*
X88138141Y-67433500D01*
X88206262Y-67453502D01*
X88252755Y-67507158D01*
X88262859Y-67577432D01*
X88233365Y-67642012D01*
X88221218Y-67654232D01*
X88200008Y-67672833D01*
X88066981Y-67789494D01*
X87936872Y-67954537D01*
X87934181Y-67959653D01*
X87934179Y-67959655D01*
X87922554Y-67981751D01*
X87839018Y-68140527D01*
X87776696Y-68341234D01*
X87776017Y-68346969D01*
X87776017Y-68346970D01*
X87754212Y-68531206D01*
X87732868Y-68581214D01*
X87755730Y-68624477D01*
X87757985Y-68641334D01*
X87765740Y-68759649D01*
X87817471Y-68963343D01*
X87819890Y-68968590D01*
X87903038Y-69148953D01*
X87903041Y-69148958D01*
X87905457Y-69154199D01*
X87908788Y-69158912D01*
X87908789Y-69158914D01*
X87922684Y-69178574D01*
X88026751Y-69325825D01*
X88177289Y-69472474D01*
X88182085Y-69475679D01*
X88182088Y-69475681D01*
X88289627Y-69547536D01*
X88352031Y-69589233D01*
X88357339Y-69591514D01*
X88357340Y-69591514D01*
X88539822Y-69669914D01*
X88539825Y-69669915D01*
X88545125Y-69672192D01*
X88550754Y-69673466D01*
X88550755Y-69673466D01*
X88744467Y-69717299D01*
X88744473Y-69717300D01*
X88750104Y-69718574D01*
X88755875Y-69718801D01*
X88755877Y-69718801D01*
X88819433Y-69721298D01*
X88960103Y-69726825D01*
X89168088Y-69696669D01*
X89173552Y-69694814D01*
X89173557Y-69694813D01*
X89361624Y-69630973D01*
X89361629Y-69630971D01*
X89367096Y-69629115D01*
X89420601Y-69599151D01*
X89470723Y-69571081D01*
X89550460Y-69526426D01*
X89712041Y-69392041D01*
X89846426Y-69230460D01*
X89949115Y-69047096D01*
X89950971Y-69041629D01*
X89950973Y-69041624D01*
X90014813Y-68853557D01*
X90014814Y-68853552D01*
X90016669Y-68848088D01*
X90046825Y-68640103D01*
X90046868Y-68638466D01*
X90067816Y-68584564D01*
X90044855Y-68537440D01*
X90043614Y-68527926D01*
X90029698Y-68376478D01*
X90029169Y-68370721D01*
X90022501Y-68347076D01*
X89983271Y-68207978D01*
X89972123Y-68168451D01*
X89879171Y-67979963D01*
X89753427Y-67811571D01*
X89639981Y-67706703D01*
X89603341Y-67672833D01*
X89603338Y-67672831D01*
X89599101Y-67668914D01*
X89594217Y-67665832D01*
X89589634Y-67662316D01*
X89590400Y-67661318D01*
X89547642Y-67612794D01*
X89536954Y-67542606D01*
X89565909Y-67477782D01*
X89625314Y-67438903D01*
X89661816Y-67433500D01*
X90678141Y-67433500D01*
X90746262Y-67453502D01*
X90792755Y-67507158D01*
X90802859Y-67577432D01*
X90773365Y-67642012D01*
X90761218Y-67654232D01*
X90740008Y-67672833D01*
X90606981Y-67789494D01*
X90476872Y-67954537D01*
X90474181Y-67959653D01*
X90474179Y-67959655D01*
X90462554Y-67981751D01*
X90379018Y-68140527D01*
X90316696Y-68341234D01*
X90316017Y-68346969D01*
X90316017Y-68346970D01*
X90294212Y-68531206D01*
X90272868Y-68581214D01*
X90295730Y-68624477D01*
X90297985Y-68641334D01*
X90305740Y-68759649D01*
X90357471Y-68963343D01*
X90359890Y-68968590D01*
X90443038Y-69148953D01*
X90443041Y-69148958D01*
X90445457Y-69154199D01*
X90448788Y-69158912D01*
X90448789Y-69158914D01*
X90465991Y-69183254D01*
X90566751Y-69325825D01*
X90570887Y-69329854D01*
X90570890Y-69329857D01*
X90643422Y-69400516D01*
X90678260Y-69462378D01*
X90681500Y-69490769D01*
X90681500Y-70036930D01*
X90680067Y-70055880D01*
X90676801Y-70077349D01*
X90677394Y-70084641D01*
X90677394Y-70084644D01*
X90681085Y-70130018D01*
X90681500Y-70140233D01*
X90681500Y-70148293D01*
X90681925Y-70151937D01*
X90684789Y-70176507D01*
X90685222Y-70180882D01*
X90691140Y-70253637D01*
X90693396Y-70260601D01*
X90694587Y-70266560D01*
X90695971Y-70272415D01*
X90696818Y-70279681D01*
X90721735Y-70348327D01*
X90723152Y-70352455D01*
X90745649Y-70421899D01*
X90749445Y-70428154D01*
X90751951Y-70433628D01*
X90754670Y-70439058D01*
X90757167Y-70445937D01*
X90761180Y-70452057D01*
X90761180Y-70452058D01*
X90797186Y-70506976D01*
X90799523Y-70510680D01*
X90837405Y-70573107D01*
X90841121Y-70577315D01*
X90841122Y-70577316D01*
X90844803Y-70581484D01*
X90844776Y-70581508D01*
X90847429Y-70584500D01*
X90850132Y-70587733D01*
X90854144Y-70593852D01*
X90859456Y-70598884D01*
X90910383Y-70647128D01*
X90912825Y-70649506D01*
X91806724Y-71543405D01*
X91840750Y-71605717D01*
X91835685Y-71676532D01*
X91793138Y-71733368D01*
X91726618Y-71758179D01*
X91717629Y-71758500D01*
X86681070Y-71758500D01*
X86662120Y-71757067D01*
X86647885Y-71754901D01*
X86647881Y-71754901D01*
X86640651Y-71753801D01*
X86633359Y-71754394D01*
X86633356Y-71754394D01*
X86587982Y-71758085D01*
X86577767Y-71758500D01*
X86569707Y-71758500D01*
X86566073Y-71758924D01*
X86566067Y-71758924D01*
X86553042Y-71760443D01*
X86541480Y-71761791D01*
X86537132Y-71762221D01*
X86464364Y-71768140D01*
X86457403Y-71770395D01*
X86451463Y-71771582D01*
X86445588Y-71772971D01*
X86438319Y-71773818D01*
X86431438Y-71776316D01*
X86424313Y-71778000D01*
X86423895Y-71776232D01*
X86362429Y-71780078D01*
X86300422Y-71745500D01*
X86276112Y-71710451D01*
X86229849Y-71611238D01*
X86229846Y-71611233D01*
X86227523Y-71606251D01*
X86096198Y-71418700D01*
X85934300Y-71256802D01*
X85929792Y-71253645D01*
X85929789Y-71253643D01*
X85828804Y-71182933D01*
X85746749Y-71125477D01*
X85741767Y-71123154D01*
X85741762Y-71123151D01*
X85544225Y-71031039D01*
X85544224Y-71031039D01*
X85539243Y-71028716D01*
X85533935Y-71027294D01*
X85533933Y-71027293D01*
X85323402Y-70970881D01*
X85323400Y-70970881D01*
X85318087Y-70969457D01*
X85090000Y-70949502D01*
X84861913Y-70969457D01*
X84856600Y-70970881D01*
X84856598Y-70970881D01*
X84646067Y-71027293D01*
X84646065Y-71027294D01*
X84640757Y-71028716D01*
X84635776Y-71031039D01*
X84635775Y-71031039D01*
X84438238Y-71123151D01*
X84438233Y-71123154D01*
X84433251Y-71125477D01*
X84351196Y-71182933D01*
X84250211Y-71253643D01*
X84250208Y-71253645D01*
X84245700Y-71256802D01*
X84083802Y-71418700D01*
X83952477Y-71606251D01*
X83950154Y-71611233D01*
X83950151Y-71611238D01*
X83870102Y-71782905D01*
X83855716Y-71813757D01*
X83854294Y-71819065D01*
X83854293Y-71819067D01*
X83806756Y-71996478D01*
X83796457Y-72034913D01*
X83776502Y-72263000D01*
X83796457Y-72491087D01*
X83797881Y-72496400D01*
X83797881Y-72496402D01*
X83849015Y-72687233D01*
X83855716Y-72712243D01*
X83858039Y-72717224D01*
X83858039Y-72717225D01*
X83950151Y-72914762D01*
X83950154Y-72914767D01*
X83952477Y-72919749D01*
X84009929Y-73001799D01*
X84076088Y-73096283D01*
X84083802Y-73107300D01*
X84245700Y-73269198D01*
X84250210Y-73272356D01*
X84250216Y-73272361D01*
X84300096Y-73307287D01*
X84344425Y-73362744D01*
X84351734Y-73433363D01*
X84319704Y-73496724D01*
X84258502Y-73532709D01*
X84227826Y-73536500D01*
X78331302Y-73536500D01*
X78263181Y-73516498D01*
X78216688Y-73462842D01*
X78206584Y-73392568D01*
X78236078Y-73327988D01*
X78259032Y-73307287D01*
X78309462Y-73271976D01*
X78317875Y-73264916D01*
X78471916Y-73110875D01*
X78478972Y-73102467D01*
X78603931Y-72924007D01*
X78609414Y-72914511D01*
X78701490Y-72717053D01*
X78705236Y-72706761D01*
X78751394Y-72534497D01*
X78751058Y-72520401D01*
X78743116Y-72517000D01*
X76202033Y-72517000D01*
X76188502Y-72520973D01*
X76187273Y-72529522D01*
X76234764Y-72706761D01*
X76238510Y-72717053D01*
X76330586Y-72914511D01*
X76336069Y-72924007D01*
X76461028Y-73102467D01*
X76468084Y-73110875D01*
X76622125Y-73264916D01*
X76630538Y-73271976D01*
X76680968Y-73307287D01*
X76725297Y-73362744D01*
X76732606Y-73433363D01*
X76700576Y-73496723D01*
X76639375Y-73532709D01*
X76608698Y-73536500D01*
X75251070Y-73536500D01*
X75232120Y-73535067D01*
X75217885Y-73532901D01*
X75217881Y-73532901D01*
X75210651Y-73531801D01*
X75203359Y-73532394D01*
X75203356Y-73532394D01*
X75157982Y-73536085D01*
X75147767Y-73536500D01*
X75139707Y-73536500D01*
X75136073Y-73536924D01*
X75136067Y-73536924D01*
X75123042Y-73538443D01*
X75111480Y-73539791D01*
X75107132Y-73540221D01*
X75034364Y-73546140D01*
X75027403Y-73548395D01*
X75021463Y-73549582D01*
X75015588Y-73550971D01*
X75008319Y-73551818D01*
X74939670Y-73576736D01*
X74935542Y-73578153D01*
X74873064Y-73598393D01*
X74873062Y-73598394D01*
X74866101Y-73600649D01*
X74859846Y-73604445D01*
X74854372Y-73606951D01*
X74848942Y-73609670D01*
X74842063Y-73612167D01*
X74835943Y-73616180D01*
X74835942Y-73616180D01*
X74781024Y-73652186D01*
X74777320Y-73654523D01*
X74714893Y-73692405D01*
X74706516Y-73699803D01*
X74706492Y-73699776D01*
X74703500Y-73702429D01*
X74700267Y-73705132D01*
X74694148Y-73709144D01*
X74689116Y-73714456D01*
X74640872Y-73765383D01*
X74638494Y-73767825D01*
X73668990Y-74737329D01*
X73606678Y-74771355D01*
X73568913Y-74773755D01*
X73411475Y-74759981D01*
X73406000Y-74759502D01*
X73177913Y-74779457D01*
X73172600Y-74780881D01*
X73172598Y-74780881D01*
X72962067Y-74837293D01*
X72962065Y-74837294D01*
X72956757Y-74838716D01*
X72951776Y-74841039D01*
X72951775Y-74841039D01*
X72754238Y-74933151D01*
X72754233Y-74933154D01*
X72749251Y-74935477D01*
X72718506Y-74957005D01*
X72566211Y-75063643D01*
X72566208Y-75063645D01*
X72561700Y-75066802D01*
X72399802Y-75228700D01*
X72396645Y-75233208D01*
X72396643Y-75233211D01*
X72351921Y-75297081D01*
X72268477Y-75416251D01*
X72266154Y-75421233D01*
X72266151Y-75421238D01*
X72174039Y-75618775D01*
X72171716Y-75623757D01*
X72170294Y-75629065D01*
X72170293Y-75629067D01*
X72122756Y-75806478D01*
X72112457Y-75844913D01*
X72092502Y-76073000D01*
X60927009Y-76073000D01*
X60935285Y-76064724D01*
X61011786Y-75962649D01*
X61020324Y-75947054D01*
X61065478Y-75826606D01*
X61069105Y-75811351D01*
X61070175Y-75801503D01*
X64504606Y-75801503D01*
X64504942Y-75815599D01*
X64512884Y-75819000D01*
X65513885Y-75819000D01*
X65529124Y-75814525D01*
X65530329Y-75813135D01*
X65532000Y-75805452D01*
X65532000Y-75800885D01*
X66040000Y-75800885D01*
X66044475Y-75816124D01*
X66045865Y-75817329D01*
X66053548Y-75819000D01*
X67053967Y-75819000D01*
X67067498Y-75815027D01*
X67068727Y-75806478D01*
X67021236Y-75629239D01*
X67017490Y-75618947D01*
X66925414Y-75421489D01*
X66919931Y-75411993D01*
X66794972Y-75233533D01*
X66787916Y-75225125D01*
X66633875Y-75071084D01*
X66625467Y-75064028D01*
X66447007Y-74939069D01*
X66437511Y-74933586D01*
X66240053Y-74841510D01*
X66229761Y-74837764D01*
X66057497Y-74791606D01*
X66043401Y-74791942D01*
X66040000Y-74799884D01*
X66040000Y-75800885D01*
X65532000Y-75800885D01*
X65532000Y-74805033D01*
X65528027Y-74791502D01*
X65519478Y-74790273D01*
X65342239Y-74837764D01*
X65331947Y-74841510D01*
X65134489Y-74933586D01*
X65124993Y-74939069D01*
X64946533Y-75064028D01*
X64938125Y-75071084D01*
X64784084Y-75225125D01*
X64777028Y-75233533D01*
X64652069Y-75411993D01*
X64646586Y-75421489D01*
X64554510Y-75618947D01*
X64550764Y-75629239D01*
X64504606Y-75801503D01*
X61070175Y-75801503D01*
X61074631Y-75760486D01*
X61075000Y-75753672D01*
X61075000Y-75456115D01*
X61070525Y-75440876D01*
X61069135Y-75439671D01*
X61061452Y-75438000D01*
X60089115Y-75438000D01*
X60073876Y-75442475D01*
X60072671Y-75443865D01*
X60071000Y-75451548D01*
X60071000Y-76198884D01*
X59563000Y-76198884D01*
X59563000Y-75456115D01*
X59558525Y-75440876D01*
X59557135Y-75439671D01*
X59549452Y-75438000D01*
X58577116Y-75438000D01*
X58561877Y-75442475D01*
X58560672Y-75443865D01*
X58559001Y-75451548D01*
X58559001Y-75753669D01*
X58249808Y-75753669D01*
X58244981Y-73906750D01*
X58553524Y-73906750D01*
X58571894Y-74108596D01*
X58573632Y-74114502D01*
X58573633Y-74114506D01*
X58580634Y-74138292D01*
X58629119Y-74303029D01*
X58628441Y-74303229D01*
X58634956Y-74369273D01*
X58621680Y-74406323D01*
X58613679Y-74420937D01*
X58568522Y-74541394D01*
X58564895Y-74556649D01*
X58559369Y-74607514D01*
X58559000Y-74614328D01*
X58559000Y-74911885D01*
X58563475Y-74927124D01*
X58564865Y-74928329D01*
X58572548Y-74930000D01*
X59370758Y-74930000D01*
X59384803Y-74930785D01*
X59533817Y-74947500D01*
X60093004Y-74947500D01*
X60243713Y-74932723D01*
X60246002Y-74932032D01*
X60266724Y-74930000D01*
X61056884Y-74930000D01*
X61072123Y-74925525D01*
X61073328Y-74924135D01*
X61074999Y-74916452D01*
X61074999Y-74614331D01*
X61074629Y-74607510D01*
X61069105Y-74556648D01*
X61065479Y-74541396D01*
X61020323Y-74420944D01*
X61011886Y-74405534D01*
X60996716Y-74336177D01*
X61002040Y-74307764D01*
X61023730Y-74237697D01*
X61059290Y-74122820D01*
X61080476Y-73921250D01*
X61066291Y-73765383D01*
X61062665Y-73725543D01*
X61062664Y-73725540D01*
X61062106Y-73719404D01*
X61059087Y-73709144D01*
X61012843Y-73552023D01*
X61004881Y-73524971D01*
X61000951Y-73517452D01*
X60935663Y-73392568D01*
X60910981Y-73345355D01*
X60911016Y-73345337D01*
X60891111Y-73279559D01*
X60906271Y-73218591D01*
X60940202Y-73155837D01*
X60999356Y-73046435D01*
X61040116Y-72914762D01*
X61057468Y-72858707D01*
X61057469Y-72858704D01*
X61059290Y-72852820D01*
X61060107Y-72845052D01*
X61079832Y-72657378D01*
X61079832Y-72657377D01*
X61080476Y-72651250D01*
X61069398Y-72529522D01*
X61062665Y-72455543D01*
X61062664Y-72455540D01*
X61062106Y-72449404D01*
X61054470Y-72423457D01*
X61007244Y-72263000D01*
X64472502Y-72263000D01*
X64492457Y-72491087D01*
X64493881Y-72496400D01*
X64493881Y-72496402D01*
X64545015Y-72687233D01*
X64551716Y-72712243D01*
X64554039Y-72717224D01*
X64554039Y-72717225D01*
X64646151Y-72914762D01*
X64646154Y-72914767D01*
X64648477Y-72919749D01*
X64705929Y-73001799D01*
X64772088Y-73096283D01*
X64779802Y-73107300D01*
X64941700Y-73269198D01*
X64946208Y-73272355D01*
X64946211Y-73272357D01*
X65003406Y-73312405D01*
X65129251Y-73400523D01*
X65134233Y-73402846D01*
X65134238Y-73402849D01*
X65331775Y-73494961D01*
X65336757Y-73497284D01*
X65342065Y-73498706D01*
X65342067Y-73498707D01*
X65552598Y-73555119D01*
X65552600Y-73555119D01*
X65557913Y-73556543D01*
X65786000Y-73576498D01*
X66014087Y-73556543D01*
X66019400Y-73555119D01*
X66019402Y-73555119D01*
X66229933Y-73498707D01*
X66229935Y-73498706D01*
X66235243Y-73497284D01*
X66240225Y-73494961D01*
X66437762Y-73402849D01*
X66437767Y-73402846D01*
X66442749Y-73400523D01*
X66568594Y-73312405D01*
X66625789Y-73272357D01*
X66625792Y-73272355D01*
X66630300Y-73269198D01*
X66792198Y-73107300D01*
X66799913Y-73096283D01*
X66866071Y-73001799D01*
X66923523Y-72919749D01*
X66925846Y-72914767D01*
X66925849Y-72914762D01*
X67017961Y-72717225D01*
X67017961Y-72717224D01*
X67020284Y-72712243D01*
X67026986Y-72687233D01*
X67078119Y-72496402D01*
X67078119Y-72496400D01*
X67079543Y-72491087D01*
X67099498Y-72263000D01*
X72092502Y-72263000D01*
X72112457Y-72491087D01*
X72113881Y-72496400D01*
X72113881Y-72496402D01*
X72165015Y-72687233D01*
X72171716Y-72712243D01*
X72174039Y-72717224D01*
X72174039Y-72717225D01*
X72266151Y-72914762D01*
X72266154Y-72914767D01*
X72268477Y-72919749D01*
X72325929Y-73001799D01*
X72392088Y-73096283D01*
X72399802Y-73107300D01*
X72561700Y-73269198D01*
X72566208Y-73272355D01*
X72566211Y-73272357D01*
X72623406Y-73312405D01*
X72749251Y-73400523D01*
X72754233Y-73402846D01*
X72754238Y-73402849D01*
X72951775Y-73494961D01*
X72956757Y-73497284D01*
X72962065Y-73498706D01*
X72962067Y-73498707D01*
X73172598Y-73555119D01*
X73172600Y-73555119D01*
X73177913Y-73556543D01*
X73406000Y-73576498D01*
X73634087Y-73556543D01*
X73639400Y-73555119D01*
X73639402Y-73555119D01*
X73849933Y-73498707D01*
X73849935Y-73498706D01*
X73855243Y-73497284D01*
X73860225Y-73494961D01*
X74057762Y-73402849D01*
X74057767Y-73402846D01*
X74062749Y-73400523D01*
X74188594Y-73312405D01*
X74245789Y-73272357D01*
X74245792Y-73272355D01*
X74250300Y-73269198D01*
X74412198Y-73107300D01*
X74419913Y-73096283D01*
X74486071Y-73001799D01*
X74543523Y-72919749D01*
X74545846Y-72914767D01*
X74545849Y-72914762D01*
X74637961Y-72717225D01*
X74637961Y-72717224D01*
X74640284Y-72712243D01*
X74646986Y-72687233D01*
X74698119Y-72496402D01*
X74698119Y-72496400D01*
X74699543Y-72491087D01*
X74719498Y-72263000D01*
X74699543Y-72034913D01*
X74689244Y-71996478D01*
X74687911Y-71991503D01*
X76188606Y-71991503D01*
X76188942Y-72005599D01*
X76196884Y-72009000D01*
X77197885Y-72009000D01*
X77213124Y-72004525D01*
X77214329Y-72003135D01*
X77216000Y-71995452D01*
X77216000Y-71990885D01*
X77724000Y-71990885D01*
X77728475Y-72006124D01*
X77729865Y-72007329D01*
X77737548Y-72009000D01*
X78737967Y-72009000D01*
X78751498Y-72005027D01*
X78752727Y-71996478D01*
X78705236Y-71819239D01*
X78701490Y-71808947D01*
X78609414Y-71611489D01*
X78603931Y-71601993D01*
X78478972Y-71423533D01*
X78471916Y-71415125D01*
X78317875Y-71261084D01*
X78309467Y-71254028D01*
X78131007Y-71129069D01*
X78121511Y-71123586D01*
X77924053Y-71031510D01*
X77913761Y-71027764D01*
X77741497Y-70981606D01*
X77727401Y-70981942D01*
X77724000Y-70989884D01*
X77724000Y-71990885D01*
X77216000Y-71990885D01*
X77216000Y-70995033D01*
X77212027Y-70981502D01*
X77203478Y-70980273D01*
X77026239Y-71027764D01*
X77015947Y-71031510D01*
X76818489Y-71123586D01*
X76808993Y-71129069D01*
X76630533Y-71254028D01*
X76622125Y-71261084D01*
X76468084Y-71415125D01*
X76461028Y-71423533D01*
X76336069Y-71601993D01*
X76330586Y-71611489D01*
X76238510Y-71808947D01*
X76234764Y-71819239D01*
X76188606Y-71991503D01*
X74687911Y-71991503D01*
X74641707Y-71819067D01*
X74641706Y-71819065D01*
X74640284Y-71813757D01*
X74625898Y-71782905D01*
X74545849Y-71611238D01*
X74545846Y-71611233D01*
X74543523Y-71606251D01*
X74412198Y-71418700D01*
X74250300Y-71256802D01*
X74245792Y-71253645D01*
X74245789Y-71253643D01*
X74144804Y-71182933D01*
X74062749Y-71125477D01*
X74057767Y-71123154D01*
X74057762Y-71123151D01*
X73860225Y-71031039D01*
X73860224Y-71031039D01*
X73855243Y-71028716D01*
X73849935Y-71027294D01*
X73849933Y-71027293D01*
X73639402Y-70970881D01*
X73639400Y-70970881D01*
X73634087Y-70969457D01*
X73406000Y-70949502D01*
X73177913Y-70969457D01*
X73172600Y-70970881D01*
X73172598Y-70970881D01*
X72962067Y-71027293D01*
X72962065Y-71027294D01*
X72956757Y-71028716D01*
X72951776Y-71031039D01*
X72951775Y-71031039D01*
X72754238Y-71123151D01*
X72754233Y-71123154D01*
X72749251Y-71125477D01*
X72667196Y-71182933D01*
X72566211Y-71253643D01*
X72566208Y-71253645D01*
X72561700Y-71256802D01*
X72399802Y-71418700D01*
X72268477Y-71606251D01*
X72266154Y-71611233D01*
X72266151Y-71611238D01*
X72186102Y-71782905D01*
X72171716Y-71813757D01*
X72170294Y-71819065D01*
X72170293Y-71819067D01*
X72122756Y-71996478D01*
X72112457Y-72034913D01*
X72092502Y-72263000D01*
X67099498Y-72263000D01*
X67079543Y-72034913D01*
X67069244Y-71996478D01*
X67021707Y-71819067D01*
X67021706Y-71819065D01*
X67020284Y-71813757D01*
X67005898Y-71782905D01*
X66925849Y-71611238D01*
X66925846Y-71611233D01*
X66923523Y-71606251D01*
X66792198Y-71418700D01*
X66630300Y-71256802D01*
X66625792Y-71253645D01*
X66625789Y-71253643D01*
X66524804Y-71182933D01*
X66442749Y-71125477D01*
X66437767Y-71123154D01*
X66437762Y-71123151D01*
X66240225Y-71031039D01*
X66240224Y-71031039D01*
X66235243Y-71028716D01*
X66229935Y-71027294D01*
X66229933Y-71027293D01*
X66019402Y-70970881D01*
X66019400Y-70970881D01*
X66014087Y-70969457D01*
X65786000Y-70949502D01*
X65557913Y-70969457D01*
X65552600Y-70970881D01*
X65552598Y-70970881D01*
X65342067Y-71027293D01*
X65342065Y-71027294D01*
X65336757Y-71028716D01*
X65331776Y-71031039D01*
X65331775Y-71031039D01*
X65134238Y-71123151D01*
X65134233Y-71123154D01*
X65129251Y-71125477D01*
X65047196Y-71182933D01*
X64946211Y-71253643D01*
X64946208Y-71253645D01*
X64941700Y-71256802D01*
X64779802Y-71418700D01*
X64648477Y-71606251D01*
X64646154Y-71611233D01*
X64646151Y-71611238D01*
X64566102Y-71782905D01*
X64551716Y-71813757D01*
X64550294Y-71819065D01*
X64550293Y-71819067D01*
X64502756Y-71996478D01*
X64492457Y-72034913D01*
X64472502Y-72263000D01*
X61007244Y-72263000D01*
X61006620Y-72260880D01*
X61004881Y-72254971D01*
X61000951Y-72247452D01*
X60957931Y-72165163D01*
X60910981Y-72075355D01*
X60905630Y-72068699D01*
X60874191Y-72029598D01*
X60783981Y-71917399D01*
X60628719Y-71787119D01*
X60623327Y-71784155D01*
X60623323Y-71784152D01*
X60456506Y-71692444D01*
X60451109Y-71689477D01*
X60257916Y-71628193D01*
X60251799Y-71627507D01*
X60251795Y-71627506D01*
X60177652Y-71619190D01*
X60100183Y-71610500D01*
X59540996Y-71610500D01*
X59390287Y-71625277D01*
X59196258Y-71683858D01*
X59017302Y-71779010D01*
X59012528Y-71782904D01*
X59012526Y-71782905D01*
X58967977Y-71819239D01*
X58860237Y-71907110D01*
X58856310Y-71911857D01*
X58856308Y-71911859D01*
X58734973Y-72058528D01*
X58734971Y-72058531D01*
X58731044Y-72063278D01*
X58634644Y-72241565D01*
X58626314Y-72268475D01*
X58586405Y-72397401D01*
X58574710Y-72435180D01*
X58553524Y-72636750D01*
X58559896Y-72706761D01*
X58567809Y-72793707D01*
X58571894Y-72838596D01*
X58573632Y-72844502D01*
X58573633Y-72844506D01*
X58607009Y-72957906D01*
X58629119Y-73033029D01*
X58631972Y-73038486D01*
X58631973Y-73038489D01*
X58669815Y-73110875D01*
X58722923Y-73212460D01*
X58722923Y-73212462D01*
X58723019Y-73212645D01*
X58722984Y-73212663D01*
X58742889Y-73278441D01*
X58727729Y-73339409D01*
X58634644Y-73511565D01*
X58614032Y-73578153D01*
X58578665Y-73692405D01*
X58574710Y-73705180D01*
X58574066Y-73711305D01*
X58574066Y-73711306D01*
X58568863Y-73760811D01*
X58553524Y-73906750D01*
X58244981Y-73906750D01*
X58232844Y-69263134D01*
X62356500Y-69263134D01*
X62363255Y-69325316D01*
X62414385Y-69461705D01*
X62501739Y-69578261D01*
X62618295Y-69665615D01*
X62754684Y-69716745D01*
X62816866Y-69723500D01*
X64183134Y-69723500D01*
X64245316Y-69716745D01*
X64381705Y-69665615D01*
X64498261Y-69578261D01*
X64522042Y-69546530D01*
X65437830Y-69546530D01*
X65447710Y-69559017D01*
X65487472Y-69585585D01*
X65497575Y-69591071D01*
X65679973Y-69669435D01*
X65690916Y-69672990D01*
X65884533Y-69716802D01*
X65895942Y-69718304D01*
X66094308Y-69726097D01*
X66105790Y-69725495D01*
X66302250Y-69697011D01*
X66313445Y-69694323D01*
X66501424Y-69630512D01*
X66511931Y-69625834D01*
X66633745Y-69557614D01*
X66643610Y-69547536D01*
X66640654Y-69539864D01*
X66052812Y-68952022D01*
X66038868Y-68944408D01*
X66037035Y-68944539D01*
X66030420Y-68948790D01*
X65444027Y-69535183D01*
X65437830Y-69546530D01*
X64522042Y-69546530D01*
X64585615Y-69461705D01*
X64636745Y-69325316D01*
X64643500Y-69263134D01*
X64643500Y-68599903D01*
X64655474Y-68559123D01*
X64653663Y-68555407D01*
X64884613Y-68555407D01*
X64890396Y-68564405D01*
X64895230Y-68591662D01*
X64905858Y-68753803D01*
X64907659Y-68765173D01*
X64956523Y-68957576D01*
X64960364Y-68968423D01*
X65043475Y-69148705D01*
X65049223Y-69158661D01*
X65060675Y-69174867D01*
X65071263Y-69183254D01*
X65084564Y-69176226D01*
X65667978Y-68592812D01*
X65674356Y-68581132D01*
X66404408Y-68581132D01*
X66404539Y-68582965D01*
X66408790Y-68589580D01*
X66995950Y-69176740D01*
X67008330Y-69183500D01*
X67014910Y-69178574D01*
X67085834Y-69051931D01*
X67090512Y-69041424D01*
X67154323Y-68853445D01*
X67157011Y-68842250D01*
X67185791Y-68643753D01*
X67186493Y-68635525D01*
X67206332Y-68584487D01*
X67204324Y-68580365D01*
X67413966Y-68580365D01*
X67435514Y-68621147D01*
X67437766Y-68637993D01*
X67445740Y-68759649D01*
X67497471Y-68963343D01*
X67499890Y-68968590D01*
X67583038Y-69148953D01*
X67583041Y-69148958D01*
X67585457Y-69154199D01*
X67588788Y-69158912D01*
X67588789Y-69158914D01*
X67602684Y-69178574D01*
X67706751Y-69325825D01*
X67857289Y-69472474D01*
X67862085Y-69475679D01*
X67862088Y-69475681D01*
X67969627Y-69547536D01*
X68032031Y-69589233D01*
X68037339Y-69591514D01*
X68037340Y-69591514D01*
X68219822Y-69669914D01*
X68219825Y-69669915D01*
X68225125Y-69672192D01*
X68230754Y-69673466D01*
X68230755Y-69673466D01*
X68424467Y-69717299D01*
X68424473Y-69717300D01*
X68430104Y-69718574D01*
X68435875Y-69718801D01*
X68435877Y-69718801D01*
X68499433Y-69721298D01*
X68640103Y-69726825D01*
X68848088Y-69696669D01*
X68853552Y-69694814D01*
X68853557Y-69694813D01*
X69041624Y-69630973D01*
X69041629Y-69630971D01*
X69047096Y-69629115D01*
X69100601Y-69599151D01*
X69150723Y-69571081D01*
X69230460Y-69526426D01*
X69392041Y-69392041D01*
X69526426Y-69230460D01*
X69629115Y-69047096D01*
X69630971Y-69041629D01*
X69630973Y-69041624D01*
X69694813Y-68853557D01*
X69694814Y-68853552D01*
X69696669Y-68848088D01*
X69726825Y-68640103D01*
X69726868Y-68638466D01*
X69747816Y-68584564D01*
X69746184Y-68581214D01*
X69952868Y-68581214D01*
X69975730Y-68624477D01*
X69977985Y-68641334D01*
X69985740Y-68759649D01*
X70037471Y-68963343D01*
X70039890Y-68968590D01*
X70123038Y-69148953D01*
X70123041Y-69148958D01*
X70125457Y-69154199D01*
X70128788Y-69158912D01*
X70128789Y-69158914D01*
X70142684Y-69178574D01*
X70246751Y-69325825D01*
X70397289Y-69472474D01*
X70402085Y-69475679D01*
X70402088Y-69475681D01*
X70509627Y-69547536D01*
X70572031Y-69589233D01*
X70577339Y-69591514D01*
X70577340Y-69591514D01*
X70759822Y-69669914D01*
X70759825Y-69669915D01*
X70765125Y-69672192D01*
X70770754Y-69673466D01*
X70770755Y-69673466D01*
X70964467Y-69717299D01*
X70964473Y-69717300D01*
X70970104Y-69718574D01*
X70975875Y-69718801D01*
X70975877Y-69718801D01*
X71039433Y-69721298D01*
X71180103Y-69726825D01*
X71388088Y-69696669D01*
X71393552Y-69694814D01*
X71393557Y-69694813D01*
X71581624Y-69630973D01*
X71581629Y-69630971D01*
X71587096Y-69629115D01*
X71640601Y-69599151D01*
X71690723Y-69571081D01*
X71770460Y-69526426D01*
X71932041Y-69392041D01*
X72066426Y-69230460D01*
X72169115Y-69047096D01*
X72170971Y-69041629D01*
X72170973Y-69041624D01*
X72234813Y-68853557D01*
X72234814Y-68853552D01*
X72236669Y-68848088D01*
X72266825Y-68640103D01*
X72266868Y-68638466D01*
X72287816Y-68584564D01*
X72286184Y-68581214D01*
X72492868Y-68581214D01*
X72515730Y-68624477D01*
X72517985Y-68641334D01*
X72525740Y-68759649D01*
X72577471Y-68963343D01*
X72579890Y-68968590D01*
X72663038Y-69148953D01*
X72663041Y-69148958D01*
X72665457Y-69154199D01*
X72668788Y-69158912D01*
X72668789Y-69158914D01*
X72682684Y-69178574D01*
X72786751Y-69325825D01*
X72937289Y-69472474D01*
X72942085Y-69475679D01*
X72942088Y-69475681D01*
X73049627Y-69547536D01*
X73112031Y-69589233D01*
X73117339Y-69591514D01*
X73117340Y-69591514D01*
X73299822Y-69669914D01*
X73299825Y-69669915D01*
X73305125Y-69672192D01*
X73310754Y-69673466D01*
X73310755Y-69673466D01*
X73504467Y-69717299D01*
X73504473Y-69717300D01*
X73510104Y-69718574D01*
X73515875Y-69718801D01*
X73515877Y-69718801D01*
X73579433Y-69721298D01*
X73720103Y-69726825D01*
X73928088Y-69696669D01*
X73933552Y-69694814D01*
X73933557Y-69694813D01*
X74121624Y-69630973D01*
X74121629Y-69630971D01*
X74127096Y-69629115D01*
X74180601Y-69599151D01*
X74230723Y-69571081D01*
X74310460Y-69526426D01*
X74472041Y-69392041D01*
X74606426Y-69230460D01*
X74709115Y-69047096D01*
X74710971Y-69041629D01*
X74710973Y-69041624D01*
X74774813Y-68853557D01*
X74774814Y-68853552D01*
X74776669Y-68848088D01*
X74806825Y-68640103D01*
X74806868Y-68638466D01*
X74827816Y-68584564D01*
X74826184Y-68581214D01*
X75032868Y-68581214D01*
X75055730Y-68624477D01*
X75057985Y-68641334D01*
X75065740Y-68759649D01*
X75117471Y-68963343D01*
X75119890Y-68968590D01*
X75203038Y-69148953D01*
X75203041Y-69148958D01*
X75205457Y-69154199D01*
X75208788Y-69158912D01*
X75208789Y-69158914D01*
X75222684Y-69178574D01*
X75326751Y-69325825D01*
X75477289Y-69472474D01*
X75482085Y-69475679D01*
X75482088Y-69475681D01*
X75589627Y-69547536D01*
X75652031Y-69589233D01*
X75657339Y-69591514D01*
X75657340Y-69591514D01*
X75839822Y-69669914D01*
X75839825Y-69669915D01*
X75845125Y-69672192D01*
X75850754Y-69673466D01*
X75850755Y-69673466D01*
X76044467Y-69717299D01*
X76044473Y-69717300D01*
X76050104Y-69718574D01*
X76055875Y-69718801D01*
X76055877Y-69718801D01*
X76119433Y-69721298D01*
X76260103Y-69726825D01*
X76468088Y-69696669D01*
X76473552Y-69694814D01*
X76473557Y-69694813D01*
X76661624Y-69630973D01*
X76661629Y-69630971D01*
X76667096Y-69629115D01*
X76720601Y-69599151D01*
X76770723Y-69571081D01*
X76850460Y-69526426D01*
X77012041Y-69392041D01*
X77146426Y-69230460D01*
X77249115Y-69047096D01*
X77250971Y-69041629D01*
X77250973Y-69041624D01*
X77314813Y-68853557D01*
X77314814Y-68853552D01*
X77316669Y-68848088D01*
X77346825Y-68640103D01*
X77346868Y-68638466D01*
X77367816Y-68584564D01*
X77366184Y-68581214D01*
X77572868Y-68581214D01*
X77595730Y-68624477D01*
X77597985Y-68641334D01*
X77605740Y-68759649D01*
X77657471Y-68963343D01*
X77659890Y-68968590D01*
X77743038Y-69148953D01*
X77743041Y-69148958D01*
X77745457Y-69154199D01*
X77748788Y-69158912D01*
X77748789Y-69158914D01*
X77762684Y-69178574D01*
X77866751Y-69325825D01*
X78017289Y-69472474D01*
X78022085Y-69475679D01*
X78022088Y-69475681D01*
X78129627Y-69547536D01*
X78192031Y-69589233D01*
X78197339Y-69591514D01*
X78197340Y-69591514D01*
X78379822Y-69669914D01*
X78379825Y-69669915D01*
X78385125Y-69672192D01*
X78390754Y-69673466D01*
X78390755Y-69673466D01*
X78584467Y-69717299D01*
X78584473Y-69717300D01*
X78590104Y-69718574D01*
X78595875Y-69718801D01*
X78595877Y-69718801D01*
X78659433Y-69721298D01*
X78800103Y-69726825D01*
X79008088Y-69696669D01*
X79013552Y-69694814D01*
X79013557Y-69694813D01*
X79201624Y-69630973D01*
X79201629Y-69630971D01*
X79207096Y-69629115D01*
X79260601Y-69599151D01*
X79310723Y-69571081D01*
X79390460Y-69526426D01*
X79552041Y-69392041D01*
X79686426Y-69230460D01*
X79789115Y-69047096D01*
X79790971Y-69041629D01*
X79790973Y-69041624D01*
X79854813Y-68853557D01*
X79854814Y-68853552D01*
X79856669Y-68848088D01*
X79886825Y-68640103D01*
X79886868Y-68638466D01*
X79907816Y-68584564D01*
X79884855Y-68537440D01*
X79883614Y-68527926D01*
X79869698Y-68376478D01*
X79869169Y-68370721D01*
X79862501Y-68347076D01*
X79823271Y-68207978D01*
X79812123Y-68168451D01*
X79719171Y-67979963D01*
X79593427Y-67811571D01*
X79479981Y-67706703D01*
X79443341Y-67672833D01*
X79443338Y-67672831D01*
X79439101Y-67668914D01*
X79261362Y-67556769D01*
X79066163Y-67478892D01*
X79060506Y-67477767D01*
X79060500Y-67477765D01*
X78865707Y-67439019D01*
X78865705Y-67439019D01*
X78860040Y-67437892D01*
X78854265Y-67437816D01*
X78854261Y-67437816D01*
X78749001Y-67436438D01*
X78649898Y-67435141D01*
X78644201Y-67436120D01*
X78644200Y-67436120D01*
X78543044Y-67453502D01*
X78442772Y-67470732D01*
X78245601Y-67543472D01*
X78240640Y-67546424D01*
X78240639Y-67546424D01*
X78131780Y-67611189D01*
X78064988Y-67650926D01*
X77906981Y-67789494D01*
X77776872Y-67954537D01*
X77774181Y-67959653D01*
X77774179Y-67959655D01*
X77762554Y-67981751D01*
X77679018Y-68140527D01*
X77616696Y-68341234D01*
X77616017Y-68346969D01*
X77616017Y-68346970D01*
X77594212Y-68531206D01*
X77572868Y-68581214D01*
X77366184Y-68581214D01*
X77344855Y-68537440D01*
X77343614Y-68527926D01*
X77329698Y-68376478D01*
X77329169Y-68370721D01*
X77322501Y-68347076D01*
X77283271Y-68207978D01*
X77272123Y-68168451D01*
X77179171Y-67979963D01*
X77053427Y-67811571D01*
X76939981Y-67706703D01*
X76903341Y-67672833D01*
X76903338Y-67672831D01*
X76899101Y-67668914D01*
X76721362Y-67556769D01*
X76526163Y-67478892D01*
X76520506Y-67477767D01*
X76520500Y-67477765D01*
X76325707Y-67439019D01*
X76325705Y-67439019D01*
X76320040Y-67437892D01*
X76314265Y-67437816D01*
X76314261Y-67437816D01*
X76209001Y-67436438D01*
X76109898Y-67435141D01*
X76104201Y-67436120D01*
X76104200Y-67436120D01*
X76003044Y-67453502D01*
X75902772Y-67470732D01*
X75705601Y-67543472D01*
X75700640Y-67546424D01*
X75700639Y-67546424D01*
X75591780Y-67611189D01*
X75524988Y-67650926D01*
X75366981Y-67789494D01*
X75236872Y-67954537D01*
X75234181Y-67959653D01*
X75234179Y-67959655D01*
X75222554Y-67981751D01*
X75139018Y-68140527D01*
X75076696Y-68341234D01*
X75076017Y-68346969D01*
X75076017Y-68346970D01*
X75054212Y-68531206D01*
X75032868Y-68581214D01*
X74826184Y-68581214D01*
X74804855Y-68537440D01*
X74803614Y-68527926D01*
X74789698Y-68376478D01*
X74789169Y-68370721D01*
X74782501Y-68347076D01*
X74743271Y-68207978D01*
X74732123Y-68168451D01*
X74639171Y-67979963D01*
X74513427Y-67811571D01*
X74399981Y-67706703D01*
X74363341Y-67672833D01*
X74363338Y-67672831D01*
X74359101Y-67668914D01*
X74181362Y-67556769D01*
X73986163Y-67478892D01*
X73980506Y-67477767D01*
X73980500Y-67477765D01*
X73785707Y-67439019D01*
X73785705Y-67439019D01*
X73780040Y-67437892D01*
X73774265Y-67437816D01*
X73774261Y-67437816D01*
X73669001Y-67436438D01*
X73569898Y-67435141D01*
X73564201Y-67436120D01*
X73564200Y-67436120D01*
X73463044Y-67453502D01*
X73362772Y-67470732D01*
X73165601Y-67543472D01*
X73160640Y-67546424D01*
X73160639Y-67546424D01*
X73051780Y-67611189D01*
X72984988Y-67650926D01*
X72826981Y-67789494D01*
X72696872Y-67954537D01*
X72694181Y-67959653D01*
X72694179Y-67959655D01*
X72682554Y-67981751D01*
X72599018Y-68140527D01*
X72536696Y-68341234D01*
X72536017Y-68346969D01*
X72536017Y-68346970D01*
X72514212Y-68531206D01*
X72492868Y-68581214D01*
X72286184Y-68581214D01*
X72264855Y-68537440D01*
X72263614Y-68527926D01*
X72249698Y-68376478D01*
X72249169Y-68370721D01*
X72242501Y-68347076D01*
X72203271Y-68207978D01*
X72192123Y-68168451D01*
X72099171Y-67979963D01*
X71973427Y-67811571D01*
X71859981Y-67706703D01*
X71823341Y-67672833D01*
X71823338Y-67672831D01*
X71819101Y-67668914D01*
X71641362Y-67556769D01*
X71446163Y-67478892D01*
X71440506Y-67477767D01*
X71440500Y-67477765D01*
X71245707Y-67439019D01*
X71245705Y-67439019D01*
X71240040Y-67437892D01*
X71234265Y-67437816D01*
X71234261Y-67437816D01*
X71129001Y-67436438D01*
X71029898Y-67435141D01*
X71024201Y-67436120D01*
X71024200Y-67436120D01*
X70923044Y-67453502D01*
X70822772Y-67470732D01*
X70625601Y-67543472D01*
X70620640Y-67546424D01*
X70620639Y-67546424D01*
X70511780Y-67611189D01*
X70444988Y-67650926D01*
X70286981Y-67789494D01*
X70156872Y-67954537D01*
X70154181Y-67959653D01*
X70154179Y-67959655D01*
X70142554Y-67981751D01*
X70059018Y-68140527D01*
X69996696Y-68341234D01*
X69996017Y-68346969D01*
X69996017Y-68346970D01*
X69974212Y-68531206D01*
X69952868Y-68581214D01*
X69746184Y-68581214D01*
X69724855Y-68537440D01*
X69723614Y-68527926D01*
X69709698Y-68376478D01*
X69709169Y-68370721D01*
X69702501Y-68347076D01*
X69663271Y-68207978D01*
X69652123Y-68168451D01*
X69559171Y-67979963D01*
X69433427Y-67811571D01*
X69319981Y-67706703D01*
X69283341Y-67672833D01*
X69283338Y-67672831D01*
X69279101Y-67668914D01*
X69101362Y-67556769D01*
X68906163Y-67478892D01*
X68900506Y-67477767D01*
X68900500Y-67477765D01*
X68705707Y-67439019D01*
X68705705Y-67439019D01*
X68700040Y-67437892D01*
X68694265Y-67437816D01*
X68694261Y-67437816D01*
X68589001Y-67436438D01*
X68489898Y-67435141D01*
X68484201Y-67436120D01*
X68484200Y-67436120D01*
X68383044Y-67453502D01*
X68282772Y-67470732D01*
X68085601Y-67543472D01*
X68080640Y-67546424D01*
X68080639Y-67546424D01*
X67971780Y-67611189D01*
X67904988Y-67650926D01*
X67746981Y-67789494D01*
X67616872Y-67954537D01*
X67614181Y-67959653D01*
X67614179Y-67959655D01*
X67602554Y-67981751D01*
X67519018Y-68140527D01*
X67456696Y-68341234D01*
X67456018Y-68346966D01*
X67456017Y-68346969D01*
X67433929Y-68533595D01*
X67413966Y-68580365D01*
X67204324Y-68580365D01*
X67184572Y-68539828D01*
X67183331Y-68530314D01*
X67169204Y-68376566D01*
X67167107Y-68365251D01*
X67113222Y-68174190D01*
X67109100Y-68163451D01*
X67021299Y-67985409D01*
X67019192Y-67981970D01*
X67009876Y-67974980D01*
X66997459Y-67981751D01*
X66412022Y-68567188D01*
X66404408Y-68581132D01*
X65674356Y-68581132D01*
X65675592Y-68578868D01*
X65675461Y-68577035D01*
X65671210Y-68570420D01*
X65082626Y-67981836D01*
X65070246Y-67975076D01*
X65064280Y-67979542D01*
X64982173Y-68135602D01*
X64977768Y-68146236D01*
X64918900Y-68335822D01*
X64916508Y-68347076D01*
X64894627Y-68531947D01*
X64884613Y-68555407D01*
X64653663Y-68555407D01*
X64645269Y-68538179D01*
X64643500Y-68517137D01*
X64643500Y-67896866D01*
X64636745Y-67834684D01*
X64585615Y-67698295D01*
X64521794Y-67613139D01*
X65437251Y-67613139D01*
X65440738Y-67621528D01*
X66027188Y-68207978D01*
X66041132Y-68215592D01*
X66042965Y-68215461D01*
X66049580Y-68211210D01*
X66635657Y-67625133D01*
X66642417Y-67612753D01*
X66636387Y-67604698D01*
X66566020Y-67560299D01*
X66555769Y-67555076D01*
X66371389Y-67481516D01*
X66360352Y-67478247D01*
X66165654Y-67439518D01*
X66154210Y-67438315D01*
X65955719Y-67435718D01*
X65944239Y-67436621D01*
X65748599Y-67470238D01*
X65737479Y-67473218D01*
X65551234Y-67541927D01*
X65540856Y-67546877D01*
X65446849Y-67602806D01*
X65437251Y-67613139D01*
X64521794Y-67613139D01*
X64498261Y-67581739D01*
X64381705Y-67494385D01*
X64245316Y-67443255D01*
X64183134Y-67436500D01*
X62816866Y-67436500D01*
X62754684Y-67443255D01*
X62618295Y-67494385D01*
X62501739Y-67581739D01*
X62414385Y-67698295D01*
X62363255Y-67834684D01*
X62356500Y-67896866D01*
X62356500Y-69263134D01*
X58232844Y-69263134D01*
X58173096Y-46403134D01*
X62356500Y-46403134D01*
X62363255Y-46465316D01*
X62414385Y-46601705D01*
X62501739Y-46718261D01*
X62618295Y-46805615D01*
X62754684Y-46856745D01*
X62816866Y-46863500D01*
X64183134Y-46863500D01*
X64245316Y-46856745D01*
X64381705Y-46805615D01*
X64498261Y-46718261D01*
X64522042Y-46686530D01*
X65437830Y-46686530D01*
X65447710Y-46699017D01*
X65487472Y-46725585D01*
X65497575Y-46731071D01*
X65679973Y-46809435D01*
X65690916Y-46812990D01*
X65884533Y-46856802D01*
X65895942Y-46858304D01*
X66094308Y-46866097D01*
X66105790Y-46865495D01*
X66302250Y-46837011D01*
X66313445Y-46834323D01*
X66501424Y-46770512D01*
X66511931Y-46765834D01*
X66633745Y-46697614D01*
X66643610Y-46687536D01*
X66640654Y-46679864D01*
X66052812Y-46092022D01*
X66038868Y-46084408D01*
X66037035Y-46084539D01*
X66030420Y-46088790D01*
X65444027Y-46675183D01*
X65437830Y-46686530D01*
X64522042Y-46686530D01*
X64585615Y-46601705D01*
X64636745Y-46465316D01*
X64643500Y-46403134D01*
X64643500Y-45739903D01*
X64655474Y-45699123D01*
X64653663Y-45695407D01*
X64884613Y-45695407D01*
X64890396Y-45704405D01*
X64895230Y-45731662D01*
X64905858Y-45893803D01*
X64907659Y-45905173D01*
X64956523Y-46097576D01*
X64960364Y-46108423D01*
X65043475Y-46288705D01*
X65049223Y-46298661D01*
X65060675Y-46314867D01*
X65071263Y-46323254D01*
X65084564Y-46316226D01*
X65667978Y-45732812D01*
X65674356Y-45721132D01*
X66404408Y-45721132D01*
X66404539Y-45722965D01*
X66408790Y-45729580D01*
X66995950Y-46316740D01*
X67008330Y-46323500D01*
X67014910Y-46318574D01*
X67085834Y-46191931D01*
X67090512Y-46181424D01*
X67154323Y-45993445D01*
X67157011Y-45982250D01*
X67185791Y-45783753D01*
X67186493Y-45775525D01*
X67206332Y-45724487D01*
X67204324Y-45720365D01*
X67413966Y-45720365D01*
X67435514Y-45761147D01*
X67437766Y-45777993D01*
X67445740Y-45899649D01*
X67497471Y-46103343D01*
X67499890Y-46108590D01*
X67583038Y-46288953D01*
X67583041Y-46288958D01*
X67585457Y-46294199D01*
X67588788Y-46298912D01*
X67588789Y-46298914D01*
X67602684Y-46318574D01*
X67706751Y-46465825D01*
X67857289Y-46612474D01*
X67862085Y-46615679D01*
X67862088Y-46615681D01*
X67969627Y-46687536D01*
X68032031Y-46729233D01*
X68037339Y-46731514D01*
X68037340Y-46731514D01*
X68219822Y-46809914D01*
X68219825Y-46809915D01*
X68225125Y-46812192D01*
X68230754Y-46813466D01*
X68230755Y-46813466D01*
X68424467Y-46857299D01*
X68424473Y-46857300D01*
X68430104Y-46858574D01*
X68435875Y-46858801D01*
X68435877Y-46858801D01*
X68499433Y-46861298D01*
X68640103Y-46866825D01*
X68848088Y-46836669D01*
X68853552Y-46834814D01*
X68853557Y-46834813D01*
X69041624Y-46770973D01*
X69041629Y-46770971D01*
X69047096Y-46769115D01*
X69230460Y-46666426D01*
X69392041Y-46532041D01*
X69526426Y-46370460D01*
X69629115Y-46187096D01*
X69630971Y-46181629D01*
X69630973Y-46181624D01*
X69694813Y-45993557D01*
X69694814Y-45993552D01*
X69696669Y-45988088D01*
X69726825Y-45780103D01*
X69726868Y-45778466D01*
X69747816Y-45724564D01*
X69746184Y-45721214D01*
X69952868Y-45721214D01*
X69975730Y-45764477D01*
X69977985Y-45781334D01*
X69985740Y-45899649D01*
X70037471Y-46103343D01*
X70039890Y-46108590D01*
X70123038Y-46288953D01*
X70123041Y-46288958D01*
X70125457Y-46294199D01*
X70128788Y-46298912D01*
X70128789Y-46298914D01*
X70142684Y-46318574D01*
X70246751Y-46465825D01*
X70397289Y-46612474D01*
X70402085Y-46615679D01*
X70402088Y-46615681D01*
X70509627Y-46687536D01*
X70572031Y-46729233D01*
X70577339Y-46731514D01*
X70577340Y-46731514D01*
X70759822Y-46809914D01*
X70759825Y-46809915D01*
X70765125Y-46812192D01*
X70770754Y-46813466D01*
X70770755Y-46813466D01*
X70964467Y-46857299D01*
X70964473Y-46857300D01*
X70970104Y-46858574D01*
X70975875Y-46858801D01*
X70975877Y-46858801D01*
X71039433Y-46861298D01*
X71180103Y-46866825D01*
X71388088Y-46836669D01*
X71393552Y-46834814D01*
X71393557Y-46834813D01*
X71581624Y-46770973D01*
X71581629Y-46770971D01*
X71587096Y-46769115D01*
X71770460Y-46666426D01*
X71932041Y-46532041D01*
X72066426Y-46370460D01*
X72169115Y-46187096D01*
X72170971Y-46181629D01*
X72170973Y-46181624D01*
X72234813Y-45993557D01*
X72234814Y-45993552D01*
X72236669Y-45988088D01*
X72266825Y-45780103D01*
X72266868Y-45778466D01*
X72287816Y-45724564D01*
X72286184Y-45721214D01*
X72492868Y-45721214D01*
X72515730Y-45764477D01*
X72517985Y-45781334D01*
X72525740Y-45899649D01*
X72577471Y-46103343D01*
X72579890Y-46108590D01*
X72663038Y-46288953D01*
X72663041Y-46288958D01*
X72665457Y-46294199D01*
X72668788Y-46298912D01*
X72668789Y-46298914D01*
X72682684Y-46318574D01*
X72786751Y-46465825D01*
X72937289Y-46612474D01*
X72942085Y-46615679D01*
X72942088Y-46615681D01*
X73049627Y-46687536D01*
X73112031Y-46729233D01*
X73117339Y-46731514D01*
X73117340Y-46731514D01*
X73299822Y-46809914D01*
X73299825Y-46809915D01*
X73305125Y-46812192D01*
X73310754Y-46813466D01*
X73310755Y-46813466D01*
X73504467Y-46857299D01*
X73504473Y-46857300D01*
X73510104Y-46858574D01*
X73515875Y-46858801D01*
X73515877Y-46858801D01*
X73579433Y-46861298D01*
X73720103Y-46866825D01*
X73928088Y-46836669D01*
X73933552Y-46834814D01*
X73933557Y-46834813D01*
X74121624Y-46770973D01*
X74121629Y-46770971D01*
X74127096Y-46769115D01*
X74274562Y-46686530D01*
X75597830Y-46686530D01*
X75607710Y-46699017D01*
X75647472Y-46725585D01*
X75657575Y-46731071D01*
X75839973Y-46809435D01*
X75850916Y-46812990D01*
X76044533Y-46856802D01*
X76055942Y-46858304D01*
X76254308Y-46866097D01*
X76265790Y-46865495D01*
X76462250Y-46837011D01*
X76473445Y-46834323D01*
X76661424Y-46770512D01*
X76671931Y-46765834D01*
X76793745Y-46697614D01*
X76803610Y-46687536D01*
X76800654Y-46679864D01*
X76212812Y-46092022D01*
X76198868Y-46084408D01*
X76197035Y-46084539D01*
X76190420Y-46088790D01*
X75604027Y-46675183D01*
X75597830Y-46686530D01*
X74274562Y-46686530D01*
X74310460Y-46666426D01*
X74472041Y-46532041D01*
X74606426Y-46370460D01*
X74709115Y-46187096D01*
X74710971Y-46181629D01*
X74710973Y-46181624D01*
X74774813Y-45993557D01*
X74774814Y-45993552D01*
X74776669Y-45988088D01*
X74806825Y-45780103D01*
X74806922Y-45776394D01*
X74806994Y-45775551D01*
X74826836Y-45724493D01*
X74824832Y-45720380D01*
X75034464Y-45720380D01*
X75056013Y-45761159D01*
X75058268Y-45778015D01*
X75065858Y-45893803D01*
X75067659Y-45905173D01*
X75116523Y-46097576D01*
X75120364Y-46108423D01*
X75203475Y-46288705D01*
X75209223Y-46298661D01*
X75220675Y-46314867D01*
X75231263Y-46323254D01*
X75244564Y-46316226D01*
X75827978Y-45732812D01*
X75834356Y-45721132D01*
X76564408Y-45721132D01*
X76564539Y-45722965D01*
X76568790Y-45729580D01*
X77155950Y-46316740D01*
X77168330Y-46323500D01*
X77174910Y-46318574D01*
X77245834Y-46191931D01*
X77250512Y-46181424D01*
X77314323Y-45993445D01*
X77317011Y-45982250D01*
X77345791Y-45783753D01*
X77346493Y-45775525D01*
X77366332Y-45724487D01*
X77364324Y-45720365D01*
X77573966Y-45720365D01*
X77595514Y-45761147D01*
X77597766Y-45777993D01*
X77605740Y-45899649D01*
X77657471Y-46103343D01*
X77659890Y-46108590D01*
X77743038Y-46288953D01*
X77743041Y-46288958D01*
X77745457Y-46294199D01*
X77748788Y-46298912D01*
X77748789Y-46298914D01*
X77762684Y-46318574D01*
X77866751Y-46465825D01*
X78017289Y-46612474D01*
X78022085Y-46615679D01*
X78022088Y-46615681D01*
X78129627Y-46687536D01*
X78192031Y-46729233D01*
X78197339Y-46731514D01*
X78197340Y-46731514D01*
X78379822Y-46809914D01*
X78379825Y-46809915D01*
X78385125Y-46812192D01*
X78390754Y-46813466D01*
X78390755Y-46813466D01*
X78584467Y-46857299D01*
X78584473Y-46857300D01*
X78590104Y-46858574D01*
X78595875Y-46858801D01*
X78595877Y-46858801D01*
X78659433Y-46861298D01*
X78800103Y-46866825D01*
X79008088Y-46836669D01*
X79013552Y-46834814D01*
X79013557Y-46834813D01*
X79201624Y-46770973D01*
X79201629Y-46770971D01*
X79207096Y-46769115D01*
X79390460Y-46666426D01*
X79552041Y-46532041D01*
X79686426Y-46370460D01*
X79789115Y-46187096D01*
X79790971Y-46181629D01*
X79790973Y-46181624D01*
X79854813Y-45993557D01*
X79854814Y-45993552D01*
X79856669Y-45988088D01*
X79886825Y-45780103D01*
X79886868Y-45778466D01*
X79907816Y-45724564D01*
X79906184Y-45721214D01*
X80112868Y-45721214D01*
X80135730Y-45764477D01*
X80137985Y-45781334D01*
X80145740Y-45899649D01*
X80197471Y-46103343D01*
X80199890Y-46108590D01*
X80283038Y-46288953D01*
X80283041Y-46288958D01*
X80285457Y-46294199D01*
X80288788Y-46298912D01*
X80288789Y-46298914D01*
X80302684Y-46318574D01*
X80406751Y-46465825D01*
X80557289Y-46612474D01*
X80562085Y-46615679D01*
X80562088Y-46615681D01*
X80669627Y-46687536D01*
X80732031Y-46729233D01*
X80737339Y-46731514D01*
X80737340Y-46731514D01*
X80919822Y-46809914D01*
X80919825Y-46809915D01*
X80925125Y-46812192D01*
X80930754Y-46813466D01*
X80930755Y-46813466D01*
X81124467Y-46857299D01*
X81124473Y-46857300D01*
X81130104Y-46858574D01*
X81135875Y-46858801D01*
X81135877Y-46858801D01*
X81199433Y-46861298D01*
X81340103Y-46866825D01*
X81548088Y-46836669D01*
X81553552Y-46834814D01*
X81553557Y-46834813D01*
X81741624Y-46770973D01*
X81741629Y-46770971D01*
X81747096Y-46769115D01*
X81930460Y-46666426D01*
X82092041Y-46532041D01*
X82226426Y-46370460D01*
X82329115Y-46187096D01*
X82330971Y-46181629D01*
X82330973Y-46181624D01*
X82394813Y-45993557D01*
X82394814Y-45993552D01*
X82396669Y-45988088D01*
X82426825Y-45780103D01*
X82426868Y-45778466D01*
X82447816Y-45724564D01*
X82446184Y-45721214D01*
X82652868Y-45721214D01*
X82675730Y-45764477D01*
X82677985Y-45781334D01*
X82685740Y-45899649D01*
X82737471Y-46103343D01*
X82739890Y-46108590D01*
X82823038Y-46288953D01*
X82823041Y-46288958D01*
X82825457Y-46294199D01*
X82828788Y-46298912D01*
X82828789Y-46298914D01*
X82842684Y-46318574D01*
X82946751Y-46465825D01*
X83097289Y-46612474D01*
X83102085Y-46615679D01*
X83102088Y-46615681D01*
X83209627Y-46687536D01*
X83272031Y-46729233D01*
X83277339Y-46731514D01*
X83277340Y-46731514D01*
X83459822Y-46809914D01*
X83459825Y-46809915D01*
X83465125Y-46812192D01*
X83470754Y-46813466D01*
X83470755Y-46813466D01*
X83664467Y-46857299D01*
X83664473Y-46857300D01*
X83670104Y-46858574D01*
X83675875Y-46858801D01*
X83675877Y-46858801D01*
X83739433Y-46861298D01*
X83880103Y-46866825D01*
X84088088Y-46836669D01*
X84093552Y-46834814D01*
X84093557Y-46834813D01*
X84281624Y-46770973D01*
X84281629Y-46770971D01*
X84287096Y-46769115D01*
X84470460Y-46666426D01*
X84632041Y-46532041D01*
X84766426Y-46370460D01*
X84869115Y-46187096D01*
X84870971Y-46181629D01*
X84870973Y-46181624D01*
X84934813Y-45993557D01*
X84934814Y-45993552D01*
X84936669Y-45988088D01*
X84966825Y-45780103D01*
X84966868Y-45778466D01*
X84987816Y-45724564D01*
X84986184Y-45721214D01*
X85192868Y-45721214D01*
X85215730Y-45764477D01*
X85217985Y-45781334D01*
X85225740Y-45899649D01*
X85277471Y-46103343D01*
X85279890Y-46108590D01*
X85363038Y-46288953D01*
X85363041Y-46288958D01*
X85365457Y-46294199D01*
X85368788Y-46298912D01*
X85368789Y-46298914D01*
X85382684Y-46318574D01*
X85486751Y-46465825D01*
X85637289Y-46612474D01*
X85642085Y-46615679D01*
X85642088Y-46615681D01*
X85749627Y-46687536D01*
X85812031Y-46729233D01*
X85817339Y-46731514D01*
X85817340Y-46731514D01*
X85999822Y-46809914D01*
X85999825Y-46809915D01*
X86005125Y-46812192D01*
X86010754Y-46813466D01*
X86010755Y-46813466D01*
X86204467Y-46857299D01*
X86204473Y-46857300D01*
X86210104Y-46858574D01*
X86215875Y-46858801D01*
X86215877Y-46858801D01*
X86279433Y-46861298D01*
X86420103Y-46866825D01*
X86628088Y-46836669D01*
X86633552Y-46834814D01*
X86633557Y-46834813D01*
X86821624Y-46770973D01*
X86821629Y-46770971D01*
X86827096Y-46769115D01*
X87010460Y-46666426D01*
X87172041Y-46532041D01*
X87306426Y-46370460D01*
X87409115Y-46187096D01*
X87410971Y-46181629D01*
X87410973Y-46181624D01*
X87474813Y-45993557D01*
X87474814Y-45993552D01*
X87476669Y-45988088D01*
X87506825Y-45780103D01*
X87506868Y-45778466D01*
X87527816Y-45724564D01*
X87526184Y-45721214D01*
X87732868Y-45721214D01*
X87755730Y-45764477D01*
X87757985Y-45781334D01*
X87765740Y-45899649D01*
X87817471Y-46103343D01*
X87819890Y-46108590D01*
X87903038Y-46288953D01*
X87903041Y-46288958D01*
X87905457Y-46294199D01*
X87908788Y-46298912D01*
X87908789Y-46298914D01*
X87922684Y-46318574D01*
X88026751Y-46465825D01*
X88177289Y-46612474D01*
X88182085Y-46615679D01*
X88182088Y-46615681D01*
X88289627Y-46687536D01*
X88352031Y-46729233D01*
X88357339Y-46731514D01*
X88357340Y-46731514D01*
X88539822Y-46809914D01*
X88539825Y-46809915D01*
X88545125Y-46812192D01*
X88550754Y-46813466D01*
X88550755Y-46813466D01*
X88744467Y-46857299D01*
X88744473Y-46857300D01*
X88750104Y-46858574D01*
X88755875Y-46858801D01*
X88755877Y-46858801D01*
X88819433Y-46861298D01*
X88960103Y-46866825D01*
X89168088Y-46836669D01*
X89173552Y-46834814D01*
X89173557Y-46834813D01*
X89361624Y-46770973D01*
X89361629Y-46770971D01*
X89367096Y-46769115D01*
X89550460Y-46666426D01*
X89712041Y-46532041D01*
X89846426Y-46370460D01*
X89949115Y-46187096D01*
X89950971Y-46181629D01*
X89950973Y-46181624D01*
X90014813Y-45993557D01*
X90014814Y-45993552D01*
X90016669Y-45988088D01*
X90046825Y-45780103D01*
X90046868Y-45778466D01*
X90067816Y-45724564D01*
X90066184Y-45721214D01*
X90272868Y-45721214D01*
X90295730Y-45764477D01*
X90297985Y-45781334D01*
X90305740Y-45899649D01*
X90357471Y-46103343D01*
X90359890Y-46108590D01*
X90443038Y-46288953D01*
X90443041Y-46288958D01*
X90445457Y-46294199D01*
X90448788Y-46298912D01*
X90448789Y-46298914D01*
X90462684Y-46318574D01*
X90566751Y-46465825D01*
X90717289Y-46612474D01*
X90722085Y-46615679D01*
X90722088Y-46615681D01*
X90829627Y-46687536D01*
X90892031Y-46729233D01*
X90897339Y-46731514D01*
X90897340Y-46731514D01*
X91079822Y-46809914D01*
X91079825Y-46809915D01*
X91085125Y-46812192D01*
X91090754Y-46813466D01*
X91090755Y-46813466D01*
X91284467Y-46857299D01*
X91284473Y-46857300D01*
X91290104Y-46858574D01*
X91295875Y-46858801D01*
X91295877Y-46858801D01*
X91359433Y-46861298D01*
X91500103Y-46866825D01*
X91708088Y-46836669D01*
X91713552Y-46834814D01*
X91713557Y-46834813D01*
X91901624Y-46770973D01*
X91901629Y-46770971D01*
X91907096Y-46769115D01*
X92090460Y-46666426D01*
X92252041Y-46532041D01*
X92386426Y-46370460D01*
X92489115Y-46187096D01*
X92490971Y-46181629D01*
X92490973Y-46181624D01*
X92554813Y-45993557D01*
X92554814Y-45993552D01*
X92556669Y-45988088D01*
X92586825Y-45780103D01*
X92586868Y-45778466D01*
X92607816Y-45724564D01*
X92606184Y-45721214D01*
X92812868Y-45721214D01*
X92835730Y-45764477D01*
X92837985Y-45781334D01*
X92845740Y-45899649D01*
X92897471Y-46103343D01*
X92899890Y-46108590D01*
X92983038Y-46288953D01*
X92983041Y-46288958D01*
X92985457Y-46294199D01*
X92988788Y-46298912D01*
X92988789Y-46298914D01*
X93002684Y-46318574D01*
X93106751Y-46465825D01*
X93257289Y-46612474D01*
X93262085Y-46615679D01*
X93262088Y-46615681D01*
X93369627Y-46687536D01*
X93432031Y-46729233D01*
X93437339Y-46731514D01*
X93437340Y-46731514D01*
X93619822Y-46809914D01*
X93619825Y-46809915D01*
X93625125Y-46812192D01*
X93630754Y-46813466D01*
X93630755Y-46813466D01*
X93824467Y-46857299D01*
X93824473Y-46857300D01*
X93830104Y-46858574D01*
X93835875Y-46858801D01*
X93835877Y-46858801D01*
X93899433Y-46861298D01*
X94040103Y-46866825D01*
X94248088Y-46836669D01*
X94253552Y-46834814D01*
X94253557Y-46834813D01*
X94441624Y-46770973D01*
X94441629Y-46770971D01*
X94447096Y-46769115D01*
X94630460Y-46666426D01*
X94792041Y-46532041D01*
X94926426Y-46370460D01*
X95029115Y-46187096D01*
X95030971Y-46181629D01*
X95030973Y-46181624D01*
X95094813Y-45993557D01*
X95094814Y-45993552D01*
X95096669Y-45988088D01*
X95126825Y-45780103D01*
X95126868Y-45778466D01*
X95147816Y-45724564D01*
X95146184Y-45721214D01*
X95352868Y-45721214D01*
X95375730Y-45764477D01*
X95377985Y-45781334D01*
X95385740Y-45899649D01*
X95437471Y-46103343D01*
X95439890Y-46108590D01*
X95523038Y-46288953D01*
X95523041Y-46288958D01*
X95525457Y-46294199D01*
X95528788Y-46298912D01*
X95528789Y-46298914D01*
X95542684Y-46318574D01*
X95646751Y-46465825D01*
X95797289Y-46612474D01*
X95802085Y-46615679D01*
X95802088Y-46615681D01*
X95909627Y-46687536D01*
X95972031Y-46729233D01*
X95977339Y-46731514D01*
X95977340Y-46731514D01*
X96159822Y-46809914D01*
X96159825Y-46809915D01*
X96165125Y-46812192D01*
X96170754Y-46813466D01*
X96170755Y-46813466D01*
X96364467Y-46857299D01*
X96364473Y-46857300D01*
X96370104Y-46858574D01*
X96375875Y-46858801D01*
X96375877Y-46858801D01*
X96439433Y-46861298D01*
X96580103Y-46866825D01*
X96788088Y-46836669D01*
X96793552Y-46834814D01*
X96793557Y-46834813D01*
X96981624Y-46770973D01*
X96981629Y-46770971D01*
X96987096Y-46769115D01*
X97170460Y-46666426D01*
X97332041Y-46532041D01*
X97466426Y-46370460D01*
X97569115Y-46187096D01*
X97570971Y-46181629D01*
X97570973Y-46181624D01*
X97634813Y-45993557D01*
X97634814Y-45993552D01*
X97636669Y-45988088D01*
X97666825Y-45780103D01*
X97666868Y-45778466D01*
X97687816Y-45724564D01*
X97686184Y-45721214D01*
X97892868Y-45721214D01*
X97915730Y-45764477D01*
X97917985Y-45781334D01*
X97925740Y-45899649D01*
X97977471Y-46103343D01*
X97979890Y-46108590D01*
X98063038Y-46288953D01*
X98063041Y-46288958D01*
X98065457Y-46294199D01*
X98068788Y-46298912D01*
X98068789Y-46298914D01*
X98082684Y-46318574D01*
X98186751Y-46465825D01*
X98337289Y-46612474D01*
X98342085Y-46615679D01*
X98342088Y-46615681D01*
X98449627Y-46687536D01*
X98512031Y-46729233D01*
X98517339Y-46731514D01*
X98517340Y-46731514D01*
X98699822Y-46809914D01*
X98699825Y-46809915D01*
X98705125Y-46812192D01*
X98710754Y-46813466D01*
X98710755Y-46813466D01*
X98904467Y-46857299D01*
X98904473Y-46857300D01*
X98910104Y-46858574D01*
X98915875Y-46858801D01*
X98915877Y-46858801D01*
X98979433Y-46861298D01*
X99120103Y-46866825D01*
X99328088Y-46836669D01*
X99333552Y-46834814D01*
X99333557Y-46834813D01*
X99521624Y-46770973D01*
X99521629Y-46770971D01*
X99527096Y-46769115D01*
X99710460Y-46666426D01*
X99872041Y-46532041D01*
X100006426Y-46370460D01*
X100109115Y-46187096D01*
X100110971Y-46181629D01*
X100110973Y-46181624D01*
X100174813Y-45993557D01*
X100174814Y-45993552D01*
X100176669Y-45988088D01*
X100206825Y-45780103D01*
X100208399Y-45720000D01*
X100189169Y-45510721D01*
X100182501Y-45487076D01*
X100143271Y-45347978D01*
X100132123Y-45308451D01*
X100039171Y-45119963D01*
X99913427Y-44951571D01*
X99799981Y-44846703D01*
X99763341Y-44812833D01*
X99763338Y-44812831D01*
X99759101Y-44808914D01*
X99581362Y-44696769D01*
X99386163Y-44618892D01*
X99380506Y-44617767D01*
X99380500Y-44617765D01*
X99185707Y-44579019D01*
X99185705Y-44579019D01*
X99180040Y-44577892D01*
X99174265Y-44577816D01*
X99174261Y-44577816D01*
X99069001Y-44576438D01*
X98969898Y-44575141D01*
X98964201Y-44576120D01*
X98964200Y-44576120D01*
X98768469Y-44609753D01*
X98762772Y-44610732D01*
X98565601Y-44683472D01*
X98560640Y-44686424D01*
X98560639Y-44686424D01*
X98537318Y-44700299D01*
X98384988Y-44790926D01*
X98226981Y-44929494D01*
X98096872Y-45094537D01*
X98094181Y-45099653D01*
X98094179Y-45099655D01*
X98082554Y-45121751D01*
X97999018Y-45280527D01*
X97936696Y-45481234D01*
X97936017Y-45486969D01*
X97936017Y-45486970D01*
X97914212Y-45671206D01*
X97892868Y-45721214D01*
X97686184Y-45721214D01*
X97664855Y-45677440D01*
X97663614Y-45667926D01*
X97649698Y-45516478D01*
X97649169Y-45510721D01*
X97642501Y-45487076D01*
X97603271Y-45347978D01*
X97592123Y-45308451D01*
X97499171Y-45119963D01*
X97373427Y-44951571D01*
X97259981Y-44846703D01*
X97223341Y-44812833D01*
X97223338Y-44812831D01*
X97219101Y-44808914D01*
X97041362Y-44696769D01*
X96846163Y-44618892D01*
X96840506Y-44617767D01*
X96840500Y-44617765D01*
X96645707Y-44579019D01*
X96645705Y-44579019D01*
X96640040Y-44577892D01*
X96634265Y-44577816D01*
X96634261Y-44577816D01*
X96529001Y-44576438D01*
X96429898Y-44575141D01*
X96424201Y-44576120D01*
X96424200Y-44576120D01*
X96228469Y-44609753D01*
X96222772Y-44610732D01*
X96025601Y-44683472D01*
X96020640Y-44686424D01*
X96020639Y-44686424D01*
X95997318Y-44700299D01*
X95844988Y-44790926D01*
X95686981Y-44929494D01*
X95556872Y-45094537D01*
X95554181Y-45099653D01*
X95554179Y-45099655D01*
X95542554Y-45121751D01*
X95459018Y-45280527D01*
X95396696Y-45481234D01*
X95396017Y-45486969D01*
X95396017Y-45486970D01*
X95374212Y-45671206D01*
X95352868Y-45721214D01*
X95146184Y-45721214D01*
X95124855Y-45677440D01*
X95123614Y-45667926D01*
X95109698Y-45516478D01*
X95109169Y-45510721D01*
X95102501Y-45487076D01*
X95063271Y-45347978D01*
X95052123Y-45308451D01*
X94959171Y-45119963D01*
X94833427Y-44951571D01*
X94719981Y-44846703D01*
X94683341Y-44812833D01*
X94683338Y-44812831D01*
X94679101Y-44808914D01*
X94501362Y-44696769D01*
X94306163Y-44618892D01*
X94300506Y-44617767D01*
X94300500Y-44617765D01*
X94105707Y-44579019D01*
X94105705Y-44579019D01*
X94100040Y-44577892D01*
X94094265Y-44577816D01*
X94094261Y-44577816D01*
X93989001Y-44576438D01*
X93889898Y-44575141D01*
X93884201Y-44576120D01*
X93884200Y-44576120D01*
X93688469Y-44609753D01*
X93682772Y-44610732D01*
X93485601Y-44683472D01*
X93480640Y-44686424D01*
X93480639Y-44686424D01*
X93457318Y-44700299D01*
X93304988Y-44790926D01*
X93146981Y-44929494D01*
X93016872Y-45094537D01*
X93014181Y-45099653D01*
X93014179Y-45099655D01*
X93002554Y-45121751D01*
X92919018Y-45280527D01*
X92856696Y-45481234D01*
X92856017Y-45486969D01*
X92856017Y-45486970D01*
X92834212Y-45671206D01*
X92812868Y-45721214D01*
X92606184Y-45721214D01*
X92584855Y-45677440D01*
X92583614Y-45667926D01*
X92569698Y-45516478D01*
X92569169Y-45510721D01*
X92562501Y-45487076D01*
X92523271Y-45347978D01*
X92512123Y-45308451D01*
X92419171Y-45119963D01*
X92293427Y-44951571D01*
X92179981Y-44846703D01*
X92143341Y-44812833D01*
X92143338Y-44812831D01*
X92139101Y-44808914D01*
X91961362Y-44696769D01*
X91766163Y-44618892D01*
X91760506Y-44617767D01*
X91760500Y-44617765D01*
X91565707Y-44579019D01*
X91565705Y-44579019D01*
X91560040Y-44577892D01*
X91554265Y-44577816D01*
X91554261Y-44577816D01*
X91449001Y-44576438D01*
X91349898Y-44575141D01*
X91344201Y-44576120D01*
X91344200Y-44576120D01*
X91148469Y-44609753D01*
X91142772Y-44610732D01*
X90945601Y-44683472D01*
X90940640Y-44686424D01*
X90940639Y-44686424D01*
X90917318Y-44700299D01*
X90764988Y-44790926D01*
X90606981Y-44929494D01*
X90476872Y-45094537D01*
X90474181Y-45099653D01*
X90474179Y-45099655D01*
X90462554Y-45121751D01*
X90379018Y-45280527D01*
X90316696Y-45481234D01*
X90316017Y-45486969D01*
X90316017Y-45486970D01*
X90294212Y-45671206D01*
X90272868Y-45721214D01*
X90066184Y-45721214D01*
X90044855Y-45677440D01*
X90043614Y-45667926D01*
X90029698Y-45516478D01*
X90029169Y-45510721D01*
X90022501Y-45487076D01*
X89983271Y-45347978D01*
X89972123Y-45308451D01*
X89879171Y-45119963D01*
X89753427Y-44951571D01*
X89639981Y-44846703D01*
X89603341Y-44812833D01*
X89603338Y-44812831D01*
X89599101Y-44808914D01*
X89421362Y-44696769D01*
X89226163Y-44618892D01*
X89220506Y-44617767D01*
X89220500Y-44617765D01*
X89025707Y-44579019D01*
X89025705Y-44579019D01*
X89020040Y-44577892D01*
X89014265Y-44577816D01*
X89014261Y-44577816D01*
X88909001Y-44576438D01*
X88809898Y-44575141D01*
X88804201Y-44576120D01*
X88804200Y-44576120D01*
X88608469Y-44609753D01*
X88602772Y-44610732D01*
X88405601Y-44683472D01*
X88400640Y-44686424D01*
X88400639Y-44686424D01*
X88377318Y-44700299D01*
X88224988Y-44790926D01*
X88066981Y-44929494D01*
X87936872Y-45094537D01*
X87934181Y-45099653D01*
X87934179Y-45099655D01*
X87922554Y-45121751D01*
X87839018Y-45280527D01*
X87776696Y-45481234D01*
X87776017Y-45486969D01*
X87776017Y-45486970D01*
X87754212Y-45671206D01*
X87732868Y-45721214D01*
X87526184Y-45721214D01*
X87504855Y-45677440D01*
X87503614Y-45667926D01*
X87489698Y-45516478D01*
X87489169Y-45510721D01*
X87482501Y-45487076D01*
X87443271Y-45347978D01*
X87432123Y-45308451D01*
X87339171Y-45119963D01*
X87213427Y-44951571D01*
X87099981Y-44846703D01*
X87063341Y-44812833D01*
X87063338Y-44812831D01*
X87059101Y-44808914D01*
X86881362Y-44696769D01*
X86686163Y-44618892D01*
X86680506Y-44617767D01*
X86680500Y-44617765D01*
X86485707Y-44579019D01*
X86485705Y-44579019D01*
X86480040Y-44577892D01*
X86474265Y-44577816D01*
X86474261Y-44577816D01*
X86369001Y-44576438D01*
X86269898Y-44575141D01*
X86264201Y-44576120D01*
X86264200Y-44576120D01*
X86068469Y-44609753D01*
X86062772Y-44610732D01*
X85865601Y-44683472D01*
X85860640Y-44686424D01*
X85860639Y-44686424D01*
X85837318Y-44700299D01*
X85684988Y-44790926D01*
X85526981Y-44929494D01*
X85396872Y-45094537D01*
X85394181Y-45099653D01*
X85394179Y-45099655D01*
X85382554Y-45121751D01*
X85299018Y-45280527D01*
X85236696Y-45481234D01*
X85236017Y-45486969D01*
X85236017Y-45486970D01*
X85214212Y-45671206D01*
X85192868Y-45721214D01*
X84986184Y-45721214D01*
X84964855Y-45677440D01*
X84963614Y-45667926D01*
X84949698Y-45516478D01*
X84949169Y-45510721D01*
X84942501Y-45487076D01*
X84903271Y-45347978D01*
X84892123Y-45308451D01*
X84799171Y-45119963D01*
X84673427Y-44951571D01*
X84559981Y-44846703D01*
X84523341Y-44812833D01*
X84523338Y-44812831D01*
X84519101Y-44808914D01*
X84341362Y-44696769D01*
X84146163Y-44618892D01*
X84140506Y-44617767D01*
X84140500Y-44617765D01*
X83945707Y-44579019D01*
X83945705Y-44579019D01*
X83940040Y-44577892D01*
X83934265Y-44577816D01*
X83934261Y-44577816D01*
X83829001Y-44576438D01*
X83729898Y-44575141D01*
X83724201Y-44576120D01*
X83724200Y-44576120D01*
X83528469Y-44609753D01*
X83522772Y-44610732D01*
X83325601Y-44683472D01*
X83320640Y-44686424D01*
X83320639Y-44686424D01*
X83297318Y-44700299D01*
X83144988Y-44790926D01*
X82986981Y-44929494D01*
X82856872Y-45094537D01*
X82854181Y-45099653D01*
X82854179Y-45099655D01*
X82842554Y-45121751D01*
X82759018Y-45280527D01*
X82696696Y-45481234D01*
X82696017Y-45486969D01*
X82696017Y-45486970D01*
X82674212Y-45671206D01*
X82652868Y-45721214D01*
X82446184Y-45721214D01*
X82424855Y-45677440D01*
X82423614Y-45667926D01*
X82409698Y-45516478D01*
X82409169Y-45510721D01*
X82402501Y-45487076D01*
X82363271Y-45347978D01*
X82352123Y-45308451D01*
X82259171Y-45119963D01*
X82133427Y-44951571D01*
X82019981Y-44846703D01*
X81983341Y-44812833D01*
X81983338Y-44812831D01*
X81979101Y-44808914D01*
X81801362Y-44696769D01*
X81606163Y-44618892D01*
X81600506Y-44617767D01*
X81600500Y-44617765D01*
X81405707Y-44579019D01*
X81405705Y-44579019D01*
X81400040Y-44577892D01*
X81394265Y-44577816D01*
X81394261Y-44577816D01*
X81289001Y-44576438D01*
X81189898Y-44575141D01*
X81184201Y-44576120D01*
X81184200Y-44576120D01*
X80988469Y-44609753D01*
X80982772Y-44610732D01*
X80785601Y-44683472D01*
X80780640Y-44686424D01*
X80780639Y-44686424D01*
X80757318Y-44700299D01*
X80604988Y-44790926D01*
X80446981Y-44929494D01*
X80316872Y-45094537D01*
X80314181Y-45099653D01*
X80314179Y-45099655D01*
X80302554Y-45121751D01*
X80219018Y-45280527D01*
X80156696Y-45481234D01*
X80156017Y-45486969D01*
X80156017Y-45486970D01*
X80134212Y-45671206D01*
X80112868Y-45721214D01*
X79906184Y-45721214D01*
X79884855Y-45677440D01*
X79883614Y-45667926D01*
X79869698Y-45516478D01*
X79869169Y-45510721D01*
X79862501Y-45487076D01*
X79823271Y-45347978D01*
X79812123Y-45308451D01*
X79719171Y-45119963D01*
X79593427Y-44951571D01*
X79479981Y-44846703D01*
X79443341Y-44812833D01*
X79443338Y-44812831D01*
X79439101Y-44808914D01*
X79261362Y-44696769D01*
X79066163Y-44618892D01*
X79060506Y-44617767D01*
X79060500Y-44617765D01*
X78865707Y-44579019D01*
X78865705Y-44579019D01*
X78860040Y-44577892D01*
X78854265Y-44577816D01*
X78854261Y-44577816D01*
X78749001Y-44576438D01*
X78649898Y-44575141D01*
X78644201Y-44576120D01*
X78644200Y-44576120D01*
X78448469Y-44609753D01*
X78442772Y-44610732D01*
X78245601Y-44683472D01*
X78240640Y-44686424D01*
X78240639Y-44686424D01*
X78217318Y-44700299D01*
X78064988Y-44790926D01*
X77906981Y-44929494D01*
X77776872Y-45094537D01*
X77774181Y-45099653D01*
X77774179Y-45099655D01*
X77762554Y-45121751D01*
X77679018Y-45280527D01*
X77616696Y-45481234D01*
X77616018Y-45486966D01*
X77616017Y-45486969D01*
X77593929Y-45673595D01*
X77573966Y-45720365D01*
X77364324Y-45720365D01*
X77344572Y-45679828D01*
X77343331Y-45670314D01*
X77329204Y-45516566D01*
X77327107Y-45505251D01*
X77273222Y-45314190D01*
X77269100Y-45303451D01*
X77181299Y-45125409D01*
X77179192Y-45121970D01*
X77169876Y-45114980D01*
X77157459Y-45121751D01*
X76572022Y-45707188D01*
X76564408Y-45721132D01*
X75834356Y-45721132D01*
X75835592Y-45718868D01*
X75835461Y-45717035D01*
X75831210Y-45710420D01*
X75242626Y-45121836D01*
X75230246Y-45115076D01*
X75224280Y-45119542D01*
X75142173Y-45275602D01*
X75137768Y-45286236D01*
X75078900Y-45475822D01*
X75076508Y-45487076D01*
X75054432Y-45673597D01*
X75034464Y-45720380D01*
X74824832Y-45720380D01*
X74805075Y-45679830D01*
X74803834Y-45670316D01*
X74789698Y-45516478D01*
X74789169Y-45510721D01*
X74782501Y-45487076D01*
X74743271Y-45347978D01*
X74732123Y-45308451D01*
X74639171Y-45119963D01*
X74513427Y-44951571D01*
X74399981Y-44846703D01*
X74363341Y-44812833D01*
X74363338Y-44812831D01*
X74359101Y-44808914D01*
X74270703Y-44753139D01*
X75597251Y-44753139D01*
X75600738Y-44761528D01*
X76187188Y-45347978D01*
X76201132Y-45355592D01*
X76202965Y-45355461D01*
X76209580Y-45351210D01*
X76795657Y-44765133D01*
X76802417Y-44752753D01*
X76796387Y-44744698D01*
X76726020Y-44700299D01*
X76715769Y-44695076D01*
X76531389Y-44621516D01*
X76520352Y-44618247D01*
X76325654Y-44579518D01*
X76314210Y-44578315D01*
X76115719Y-44575718D01*
X76104239Y-44576621D01*
X75908599Y-44610238D01*
X75897479Y-44613218D01*
X75711234Y-44681927D01*
X75700856Y-44686877D01*
X75606849Y-44742806D01*
X75597251Y-44753139D01*
X74270703Y-44753139D01*
X74181362Y-44696769D01*
X73986163Y-44618892D01*
X73980506Y-44617767D01*
X73980500Y-44617765D01*
X73785707Y-44579019D01*
X73785705Y-44579019D01*
X73780040Y-44577892D01*
X73774265Y-44577816D01*
X73774261Y-44577816D01*
X73669001Y-44576438D01*
X73569898Y-44575141D01*
X73564201Y-44576120D01*
X73564200Y-44576120D01*
X73368469Y-44609753D01*
X73362772Y-44610732D01*
X73165601Y-44683472D01*
X73160640Y-44686424D01*
X73160639Y-44686424D01*
X73137318Y-44700299D01*
X72984988Y-44790926D01*
X72826981Y-44929494D01*
X72696872Y-45094537D01*
X72694181Y-45099653D01*
X72694179Y-45099655D01*
X72682554Y-45121751D01*
X72599018Y-45280527D01*
X72536696Y-45481234D01*
X72536017Y-45486969D01*
X72536017Y-45486970D01*
X72514212Y-45671206D01*
X72492868Y-45721214D01*
X72286184Y-45721214D01*
X72264855Y-45677440D01*
X72263614Y-45667926D01*
X72249698Y-45516478D01*
X72249169Y-45510721D01*
X72242501Y-45487076D01*
X72203271Y-45347978D01*
X72192123Y-45308451D01*
X72099171Y-45119963D01*
X71973427Y-44951571D01*
X71859981Y-44846703D01*
X71823341Y-44812833D01*
X71823338Y-44812831D01*
X71819101Y-44808914D01*
X71641362Y-44696769D01*
X71446163Y-44618892D01*
X71440506Y-44617767D01*
X71440500Y-44617765D01*
X71245707Y-44579019D01*
X71245705Y-44579019D01*
X71240040Y-44577892D01*
X71234265Y-44577816D01*
X71234261Y-44577816D01*
X71129001Y-44576438D01*
X71029898Y-44575141D01*
X71024201Y-44576120D01*
X71024200Y-44576120D01*
X70828469Y-44609753D01*
X70822772Y-44610732D01*
X70625601Y-44683472D01*
X70620640Y-44686424D01*
X70620639Y-44686424D01*
X70597318Y-44700299D01*
X70444988Y-44790926D01*
X70286981Y-44929494D01*
X70156872Y-45094537D01*
X70154181Y-45099653D01*
X70154179Y-45099655D01*
X70142554Y-45121751D01*
X70059018Y-45280527D01*
X69996696Y-45481234D01*
X69996017Y-45486969D01*
X69996017Y-45486970D01*
X69974212Y-45671206D01*
X69952868Y-45721214D01*
X69746184Y-45721214D01*
X69724855Y-45677440D01*
X69723614Y-45667926D01*
X69709698Y-45516478D01*
X69709169Y-45510721D01*
X69702501Y-45487076D01*
X69663271Y-45347978D01*
X69652123Y-45308451D01*
X69559171Y-45119963D01*
X69433427Y-44951571D01*
X69319981Y-44846703D01*
X69283341Y-44812833D01*
X69283338Y-44812831D01*
X69279101Y-44808914D01*
X69101362Y-44696769D01*
X68906163Y-44618892D01*
X68900506Y-44617767D01*
X68900500Y-44617765D01*
X68705707Y-44579019D01*
X68705705Y-44579019D01*
X68700040Y-44577892D01*
X68694265Y-44577816D01*
X68694261Y-44577816D01*
X68589001Y-44576438D01*
X68489898Y-44575141D01*
X68484201Y-44576120D01*
X68484200Y-44576120D01*
X68288469Y-44609753D01*
X68282772Y-44610732D01*
X68085601Y-44683472D01*
X68080640Y-44686424D01*
X68080639Y-44686424D01*
X68057318Y-44700299D01*
X67904988Y-44790926D01*
X67746981Y-44929494D01*
X67616872Y-45094537D01*
X67614181Y-45099653D01*
X67614179Y-45099655D01*
X67602554Y-45121751D01*
X67519018Y-45280527D01*
X67456696Y-45481234D01*
X67456018Y-45486966D01*
X67456017Y-45486969D01*
X67433929Y-45673595D01*
X67413966Y-45720365D01*
X67204324Y-45720365D01*
X67184572Y-45679828D01*
X67183331Y-45670314D01*
X67169204Y-45516566D01*
X67167107Y-45505251D01*
X67113222Y-45314190D01*
X67109100Y-45303451D01*
X67021299Y-45125409D01*
X67019192Y-45121970D01*
X67009876Y-45114980D01*
X66997459Y-45121751D01*
X66412022Y-45707188D01*
X66404408Y-45721132D01*
X65674356Y-45721132D01*
X65675592Y-45718868D01*
X65675461Y-45717035D01*
X65671210Y-45710420D01*
X65082626Y-45121836D01*
X65070246Y-45115076D01*
X65064280Y-45119542D01*
X64982173Y-45275602D01*
X64977768Y-45286236D01*
X64918900Y-45475822D01*
X64916508Y-45487076D01*
X64894627Y-45671947D01*
X64884613Y-45695407D01*
X64653663Y-45695407D01*
X64645269Y-45678179D01*
X64643500Y-45657137D01*
X64643500Y-45036866D01*
X64636745Y-44974684D01*
X64585615Y-44838295D01*
X64521794Y-44753139D01*
X65437251Y-44753139D01*
X65440738Y-44761528D01*
X66027188Y-45347978D01*
X66041132Y-45355592D01*
X66042965Y-45355461D01*
X66049580Y-45351210D01*
X66635657Y-44765133D01*
X66642417Y-44752753D01*
X66636387Y-44744698D01*
X66566020Y-44700299D01*
X66555769Y-44695076D01*
X66371389Y-44621516D01*
X66360352Y-44618247D01*
X66165654Y-44579518D01*
X66154210Y-44578315D01*
X65955719Y-44575718D01*
X65944239Y-44576621D01*
X65748599Y-44610238D01*
X65737479Y-44613218D01*
X65551234Y-44681927D01*
X65540856Y-44686877D01*
X65446849Y-44742806D01*
X65437251Y-44753139D01*
X64521794Y-44753139D01*
X64498261Y-44721739D01*
X64381705Y-44634385D01*
X64245316Y-44583255D01*
X64183134Y-44576500D01*
X62816866Y-44576500D01*
X62754684Y-44583255D01*
X62618295Y-44634385D01*
X62501739Y-44721739D01*
X62414385Y-44838295D01*
X62363255Y-44974684D01*
X62356500Y-45036866D01*
X62356500Y-46403134D01*
X58173096Y-46403134D01*
X58166526Y-43889328D01*
X58186350Y-43821157D01*
X58239884Y-43774524D01*
X58292526Y-43763000D01*
X113066334Y-43763000D01*
X113134455Y-43783002D01*
G37*
%TD.AperFunction*%
%TD*%
M02*
